<?xml version="1.0" standalone="no"?>
<!DOCTYPE svg PUBLIC "-//W3C//DTD SVG 20010904//EN"
 "http://www.w3.org/TR/2001/REC-SVG-20010904/DTD/svg10.dtd">
<svg version="1.0" xmlns="http://www.w3.org/2000/svg"
 width="1040.000000pt" height="1040.000000pt" viewBox="0 0 1040.000000 1040.000000"
 preserveAspectRatio="xMidYMid meet">
<metadata>
Created by potrace 1.14, written by Peter Selinger 2001-2017
</metadata>
<g transform="translate(0.000000,1040.000000) scale(0.100000,-0.100000)"
fill="#000000" stroke="none">
<path d="M5140 10138 c-11 -4 -20 -12 -20 -17 0 -6 -30 -72 -67 -148 -36 -76
-67 -142 -69 -148 -1 -5 -39 -86 -84 -180 -44 -93 -88 -185 -96 -205 -9 -19
-20 -42 -25 -50 -5 -8 -12 -22 -15 -30 -22 -52 -67 -147 -75 -160 -5 -8 -12
-22 -15 -30 -3 -8 -21 -46 -39 -85 l-32 -70 26 -40 c44 -68 51 -79 57 -95 3
-8 14 -35 24 -60 18 -44 59 -194 65 -235 1 -11 5 -36 9 -55 37 -202 38 -610 1
-1075 -3 -38 -7 -97 -10 -130 -3 -33 -7 -91 -11 -130 -26 -314 -34 -495 -21
-495 5 0 19 8 32 18 12 9 33 24 45 32 19 13 75 54 105 78 6 4 39 30 74 57 145
113 359 324 451 445 19 25 38 47 42 48 5 2 8 8 8 13 0 5 16 34 36 65 37 58 85
159 100 209 39 136 48 303 27 560 -16 210 -9 441 16 545 17 73 83 208 112 230
3 3 7 21 7 40 1 27 -61 160 -264 568 -146 292 -268 532 -272 533 -33 5 -106 3
-122 -3z"/>
<path d="M8164 9233 c-9 -16 -133 -145 -275 -288 -267 -270 -316 -322 -391
-415 -180 -224 -247 -416 -293 -840 -24 -220 -24 -711 0 -1070 2 -36 7 -108
10 -160 7 -129 13 -208 20 -320 11 -157 11 -161 31 -770 14 -423 10 -555 -20
-719 -13 -66 -69 -193 -116 -264 -73 -110 -231 -266 -342 -339 -27 -17 -48
-35 -48 -40 0 -4 -5 -8 -10 -8 -6 0 -33 -16 -60 -35 -27 -19 -54 -35 -59 -35
-5 0 -16 -6 -23 -13 -7 -7 -33 -24 -58 -38 -25 -13 -47 -26 -50 -29 -3 -3 -32
-18 -65 -35 -33 -16 -62 -33 -65 -36 -3 -3 -23 -14 -45 -25 -22 -10 -42 -20
-45 -23 -11 -12 -591 -297 -594 -292 -1 3 -2 623 -1 1378 l0 1372 -55 -31
c-30 -17 -76 -46 -103 -64 -26 -19 -49 -34 -52 -34 -5 0 -56 -39 -124 -95 -34
-28 -159 -153 -201 -201 -145 -167 -293 -473 -335 -694 -3 -14 -7 -35 -10 -47
-3 -13 -7 -31 -9 -40 -5 -21 -22 -145 -31 -217 -11 -90 -16 -170 -19 -292 -2
-67 -6 -126 -9 -131 -4 -6 -4 -13 0 -17 5 -5 8 -141 2 -156 -1 -3 0 -9 1 -15
8 -35 6 -105 -4 -105 -7 0 -7 -3 -1 -8 6 -4 11 -77 13 -172 2 -91 4 -227 6
-302 1 -76 1 -138 0 -138 -5 0 -132 54 -202 86 -40 19 -75 34 -78 34 -8 0
-301 146 -389 193 -141 77 -204 115 -330 198 -56 36 -108 74 -117 83 -9 9 -21
16 -27 16 -5 0 -14 6 -18 13 -4 7 -19 21 -32 29 -56 39 -193 174 -244 240 -70
93 -99 145 -130 238 -41 124 -51 209 -50 445 0 99 3 230 7 290 4 61 8 142 11
180 3 59 6 177 4 235 0 8 2 92 5 185 4 152 8 270 22 615 6 163 6 656 -1 745
-3 44 -8 107 -10 140 -1 33 -6 78 -9 100 -6 45 -17 120 -21 150 -8 55 -26 154
-36 190 -5 22 -12 54 -15 70 -8 38 -87 277 -110 330 -10 22 -18 42 -19 45 0 3
-5 12 -10 20 -5 8 -10 22 -12 30 -1 8 -7 16 -12 18 -6 2 -11 10 -11 18 0 17
-119 217 -132 222 -4 2 -8 8 -8 14 0 21 -138 186 -240 288 -127 128 -234 216
-351 293 l-25 17 -1 -1903 c-1 -1046 -4 -1945 -7 -1997 -6 -110 -14 -214 -20
-286 -20 -209 -28 -710 -13 -814 40 -289 119 -456 292 -624 84 -81 271 -221
335 -249 8 -4 31 -17 50 -29 54 -33 283 -148 295 -148 6 0 16 -5 23 -12 6 -6
17 -13 24 -14 7 -1 48 -18 91 -38 42 -20 79 -36 82 -36 2 0 32 -13 67 -29 71
-32 121 -54 128 -56 15 -5 280 -121 362 -159 32 -15 60 -25 62 -24 2 2 12 -4
22 -13 11 -8 51 -30 89 -49 86 -42 299 -169 303 -181 2 -5 8 -9 14 -9 13 0
109 -79 182 -148 98 -94 175 -214 205 -317 28 -93 42 -150 46 -184 3 -20 7
-47 10 -61 19 -99 26 -532 12 -745 -4 -55 -9 -134 -12 -176 -2 -42 -7 -98 -9
-125 -18 -192 -20 -216 -31 -376 -10 -157 -12 -217 -6 -226 3 -4 31 -8 61 -9
30 -1 98 -5 150 -8 126 -9 323 -9 385 -1 126 17 218 58 275 123 39 44 70 92
70 108 0 8 5 15 12 15 6 0 9 3 6 6 -4 3 0 21 8 40 43 103 50 402 14 652 -5 36
-7 69 -4 74 3 4 2 8 -3 8 -4 0 -8 12 -9 28 -1 15 -4 50 -8 77 -4 28 -9 70 -11
95 -3 25 -7 61 -10 80 -24 166 -28 491 -6 585 8 33 16 66 17 74 6 31 75 158
104 191 113 129 321 308 397 343 13 5 23 14 23 19 0 4 4 8 10 8 5 0 33 15 62
33 82 50 102 61 273 145 165 82 216 106 345 161 41 18 98 43 125 56 28 13 93
42 145 65 228 100 494 240 603 316 26 19 50 34 53 34 3 0 18 10 33 22 15 13
40 32 55 43 85 61 266 239 266 262 0 7 3 13 8 13 6 0 55 102 58 120 0 3 6 25
13 50 26 91 38 236 35 440 -2 113 -5 230 -8 260 -27 260 -28 362 -28 1825 0
1284 3 1599 18 1830 7 98 7 516 0 570 -14 115 -42 242 -58 263 -6 6 -8 12 -4
12 4 0 0 14 -9 30 -9 17 -17 30 -19 30 -2 0 -12 -12 -22 -27z"/>
</g>
</svg>
