<svg width="10" height="10" viewBox="0 0 10 10" fill="none" xmlns="http://www.w3.org/2000/svg">
<path d="M5.55865 4.89069L2.96427 2.39652C2.89283 2.32801 2.85353 2.23641 2.85353 2.13874C2.85353 2.04101 2.89283 1.94946 2.96427 1.88084L3.1916 1.66241C3.26293 1.59368 3.35827 1.55585 3.45987 1.55585C3.56147 1.55585 3.6567 1.59368 3.72808 1.66241L6.81711 4.63193C6.88877 4.70077 6.92802 4.79275 6.92773 4.89053C6.92802 4.98874 6.88883 5.08062 6.81711 5.14951L3.73096 8.11616C3.65958 8.18489 3.56435 8.22272 3.46269 8.22272C3.36109 8.22272 3.26586 8.18489 3.19442 8.11616L2.96715 7.89772C2.81925 7.75555 2.81925 7.52411 2.96715 7.38199L5.55865 4.89069Z" fill="white"/>
</svg>
