<svg width="16" height="16" viewBox="0 0 16 16" fill="none" xmlns="http://www.w3.org/2000/svg">
<g clip-path="url(#clip0_471_2176)">
<path fill-rule="evenodd" clip-rule="evenodd" d="M7.98172 0.68454C3.87181 0.68454 0.542969 4.01338 0.542969 8.12329C0.542969 11.4149 2.67231 14.1952 5.62922 15.1808C6.00115 15.2459 6.14063 15.0227 6.14063 14.8275C6.14063 14.6508 6.13133 14.065 6.13133 13.442C4.26235 13.786 3.77883 12.9864 3.63005 12.5679C3.54637 12.3541 3.18373 11.6939 2.86758 11.5172C2.60722 11.3777 2.23528 11.0337 2.85828 11.0244C3.44408 11.0151 3.86251 11.5637 4.00199 11.7869C4.67148 12.912 5.7408 12.5958 6.16853 12.4006C6.23361 11.9171 6.42888 11.5916 6.64275 11.4056C4.98762 11.2197 3.25811 10.5781 3.25811 7.73276C3.25811 6.92379 3.54637 6.25431 4.02059 5.73359C3.9462 5.54763 3.68584 4.78515 4.09497 3.76232C4.09497 3.76232 4.71797 3.56706 6.14063 4.5248C6.73573 4.35742 7.36802 4.27374 8.00032 4.27374C8.63261 4.27374 9.26491 4.35742 9.86001 4.5248C11.2827 3.55776 11.9057 3.76232 11.9057 3.76232C12.3148 4.78515 12.0544 5.54763 11.9801 5.73359C12.4543 6.25431 12.7425 6.9145 12.7425 7.73276C12.7425 10.5874 11.0037 11.2197 9.34859 11.4056C9.61825 11.6381 9.85071 12.0844 9.85071 12.7818C9.85071 13.7767 9.84141 14.5764 9.84141 14.8275C9.84141 15.0227 9.98089 15.2552 10.3528 15.1808C11.8295 14.6822 13.1127 13.7332 14.0218 12.4671C14.9308 11.2011 15.42 9.68189 15.4205 8.12329C15.4205 4.01338 12.0916 0.68454 7.98172 0.68454Z" fill="currentColor"/>
</g>
<defs>
<clipPath id="clip0_471_2176">
<rect width="14.8775" height="14.8775" fill="white" transform="translate(0.542969 0.68454)"/>
</clipPath>
</defs>
</svg>
