<svg width="16" height="16" viewBox="0 0 16 16" fill="none" xmlns="http://www.w3.org/2000/svg">
<circle cx="8.42508" cy="7.73599" r="7.43875" fill="currentColor"/>
<path d="M13.4724 4.491C13.0944 4.66454 12.6934 4.77844 12.2828 4.82894C12.7105 4.56333 13.0389 4.14272 13.1935 3.64157C12.7869 3.89157 12.3421 4.06771 11.8783 4.16238C11.5004 3.74529 10.9622 3.48462 10.3664 3.48462C9.22257 3.48462 8.29517 4.44556 8.29517 5.63076C8.29517 5.79899 8.31351 5.96277 8.3488 6.11989C6.62745 6.03036 5.1013 5.17595 4.07973 3.87748C3.90148 4.19445 3.79935 4.56316 3.79935 4.95643C3.79935 5.70104 4.16503 6.35792 4.72075 6.74281C4.39184 6.73213 4.07017 6.64008 3.78259 6.47434C3.78247 6.48333 3.78247 6.49232 3.78247 6.50135C3.78247 7.54119 4.4964 8.40864 5.44388 8.6058C5.13888 8.69176 4.81896 8.70433 4.50855 8.64258C4.7721 9.49523 5.53702 10.1157 6.44333 10.1331C5.73448 10.7087 4.84139 11.0518 3.87104 11.0518C3.70383 11.0518 3.53899 11.0416 3.37695 11.0218C4.29355 11.6307 5.38224 11.9861 6.55189 11.9861C10.3616 11.9861 12.4449 8.71573 12.4449 5.87965C12.4449 5.78657 12.4429 5.69401 12.4389 5.60199C12.8444 5.29825 13.1944 4.92203 13.4724 4.491Z" fill="white"/>
</svg>
