<svg width="21" height="22" viewBox="0 0 21 22" fill="none" xmlns="http://www.w3.org/2000/svg">
<path fill-rule="evenodd" clip-rule="evenodd" d="M16.3857 11.9004C16.6367 12.1515 16.6367 12.5585 16.3857 12.8096L11.9529 17.2424C11.7018 17.4934 11.2948 17.4934 11.0438 17.2424C10.7927 16.9913 10.7927 16.5843 11.0438 16.3332L15.4766 11.9004C15.7276 11.6494 16.1346 11.6494 16.3857 11.9004Z" fill="#2E74FF"/>
<path fill-rule="evenodd" clip-rule="evenodd" d="M9.52827 11.9004C9.77932 12.1515 9.77932 12.5585 9.52827 12.8096L5.09547 17.2424C4.84442 17.4934 4.43739 17.4934 4.18634 17.2424C3.93528 16.9913 3.93528 16.5843 4.18634 16.3332L8.61913 11.9004C8.87019 11.6494 9.27722 11.6494 9.52827 11.9004Z" fill="#2E74FF"/>
<path fill-rule="evenodd" clip-rule="evenodd" d="M16.3857 5.04327C16.6367 5.29432 16.6367 5.70135 16.3857 5.95241L11.9529 10.3852C11.7018 10.6363 11.2948 10.6363 11.0438 10.3852C10.7927 10.1342 10.7927 9.72712 11.0438 9.47607L15.4766 5.04327C15.7276 4.79222 16.1346 4.79222 16.3857 5.04327Z" fill="#2E74FF"/>
<path fill-rule="evenodd" clip-rule="evenodd" d="M9.52827 5.04327C9.77932 5.29432 9.77932 5.70135 9.52827 5.95241L5.09547 10.3852C4.84442 10.6363 4.43739 10.6363 4.18634 10.3852C3.93528 10.1342 3.93528 9.72712 4.18634 9.47607L8.61913 5.04327C8.87019 4.79222 9.27722 4.79222 9.52827 5.04327Z" fill="#2E74FF"/>
<path fill-rule="evenodd" clip-rule="evenodd" d="M3.42941 3.21436C2.83767 3.21436 2.35798 3.69406 2.35798 4.28579C2.35798 4.87751 2.83768 5.35722 3.42941 5.35722C4.02112 5.35722 4.50084 4.87751 4.50084 4.28579C4.50084 3.69406 4.02113 3.21436 3.42941 3.21436ZM1.07227 4.28579C1.07227 2.98398 2.12759 1.92865 3.42941 1.92865C4.7312 1.92865 5.78655 2.98397 5.78655 4.28579C5.78655 5.58759 4.7312 6.64293 3.42941 6.64293C2.12759 6.64293 1.07227 5.58759 1.07227 4.28579Z" fill="#2E74FF"/>
<path fill-rule="evenodd" clip-rule="evenodd" d="M10.2849 3.21436C9.69316 3.21436 9.21345 3.69406 9.21345 4.28579C9.21345 4.87751 9.69316 5.35722 10.2849 5.35722C10.8766 5.35722 11.3563 4.87751 11.3563 4.28579C11.3563 3.69406 10.8766 3.21436 10.2849 3.21436ZM7.92773 4.28579C7.92773 2.98397 8.98308 1.92865 10.2849 1.92865C11.5867 1.92865 12.642 2.98397 12.642 4.28579C12.642 5.58759 11.5867 6.64293 10.2849 6.64293C8.98308 6.64293 7.92773 5.58759 7.92773 4.28579Z" fill="#2E74FF"/>
<path fill-rule="evenodd" clip-rule="evenodd" d="M17.1423 3.21436C16.5506 3.21436 16.0709 3.69406 16.0709 4.28579C16.0709 4.87751 16.5506 5.35722 17.1423 5.35722C17.734 5.35722 18.2137 4.87751 18.2137 4.28579C18.2137 3.69406 17.734 3.21436 17.1423 3.21436ZM14.7852 4.28579C14.7852 2.98397 15.8405 1.92865 17.1423 1.92865C18.4441 1.92865 19.4994 2.98397 19.4994 4.28579C19.4994 5.58759 18.4441 6.64293 17.1423 6.64293C15.8405 6.64293 14.7852 5.58759 14.7852 4.28579Z" fill="#2E74FF"/>
<path fill-rule="evenodd" clip-rule="evenodd" d="M17.1423 10.0715C16.5506 10.0715 16.0709 10.5512 16.0709 11.1429C16.0709 11.7346 16.5506 12.2143 17.1423 12.2143C17.734 12.2143 18.2137 11.7346 18.2137 11.1429C18.2137 10.5512 17.734 10.0715 17.1423 10.0715ZM14.7852 11.1429C14.7852 9.84111 15.8405 8.78577 17.1423 8.78577C18.4441 8.78577 19.4994 9.84111 19.4994 11.1429C19.4994 12.4447 18.4441 13.5001 17.1423 13.5001C15.8405 13.5001 14.7852 12.4447 14.7852 11.1429Z" fill="#2E74FF"/>
<path fill-rule="evenodd" clip-rule="evenodd" d="M17.1423 16.9286C16.5506 16.9286 16.0709 17.4083 16.0709 18.0001C16.0709 18.5918 16.5506 19.0715 17.1423 19.0715C17.734 19.0715 18.2137 18.5918 18.2137 18.0001C18.2137 17.4083 17.734 16.9286 17.1423 16.9286ZM14.7852 18.0001C14.7852 16.6983 15.8405 15.6429 17.1423 15.6429C18.4441 15.6429 19.4994 16.6983 19.4994 18.0001C19.4994 19.3019 18.4441 20.3572 17.1423 20.3572C15.8405 20.3572 14.7852 19.3019 14.7852 18.0001Z" fill="#2E74FF"/>
<path fill-rule="evenodd" clip-rule="evenodd" d="M10.2849 16.9286C9.69316 16.9286 9.21345 17.4083 9.21345 18.0001C9.21345 18.5918 9.69316 19.0715 10.2849 19.0715C10.8766 19.0715 11.3563 18.5918 11.3563 18.0001C11.3563 17.4083 10.8766 16.9286 10.2849 16.9286ZM7.92773 18.0001C7.92773 16.6983 8.98308 15.6429 10.2849 15.6429C11.5867 15.6429 12.642 16.6983 12.642 18.0001C12.642 19.3019 11.5867 20.3572 10.2849 20.3572C8.98308 20.3572 7.92773 19.3019 7.92773 18.0001Z" fill="#2E74FF"/>
<path fill-rule="evenodd" clip-rule="evenodd" d="M3.42941 16.9286C2.83768 16.9286 2.35798 17.4083 2.35798 18.0001C2.35798 18.5918 2.83768 19.0715 3.42941 19.0715C4.02112 19.0715 4.50084 18.5918 4.50084 18.0001C4.50084 17.4083 4.02112 16.9286 3.42941 16.9286ZM1.07227 18.0001C1.07227 16.6983 2.12759 15.6429 3.42941 15.6429C4.7312 15.6429 5.78655 16.6983 5.78655 18.0001C5.78655 19.3019 4.7312 20.3572 3.42941 20.3572C2.12759 20.3572 1.07227 19.3018 1.07227 18.0001Z" fill="#2E74FF"/>
<path fill-rule="evenodd" clip-rule="evenodd" d="M3.42941 10.0715C2.83768 10.0715 2.35798 10.5512 2.35798 11.1429C2.35798 11.7346 2.83768 12.2143 3.42941 12.2143C4.02112 12.2143 4.50084 11.7346 4.50084 11.1429C4.50084 10.5512 4.02112 10.0715 3.42941 10.0715ZM1.07227 11.1429C1.07227 9.84112 2.12759 8.78577 3.42941 8.78577C4.7312 8.78577 5.78655 9.84111 5.78655 11.1429C5.78655 12.4447 4.7312 13.5001 3.42941 13.5001C2.12759 13.5001 1.07227 12.4447 1.07227 11.1429Z" fill="#2E74FF"/>
<path fill-rule="evenodd" clip-rule="evenodd" d="M10.2849 10.0715C9.69316 10.0715 9.21345 10.5512 9.21345 11.1429C9.21345 11.7346 9.69316 12.2143 10.2849 12.2143C10.8766 12.2143 11.3563 11.7346 11.3563 11.1429C11.3563 10.5512 10.8766 10.0715 10.2849 10.0715ZM7.92773 11.1429C7.92773 9.84111 8.98308 8.78577 10.2849 8.78577C11.5867 8.78577 12.642 9.84111 12.642 11.1429C12.642 12.4447 11.5867 13.5001 10.2849 13.5001C8.98308 13.5001 7.92773 12.4447 7.92773 11.1429Z" fill="#2E74FF"/>
</svg>
