<svg width="45" height="51" viewBox="0 0 45 51" fill="none" xmlns="http://www.w3.org/2000/svg">
<g clip-path="url(#clip0_471_2765)">
<path d="M21.4546 50.4115C21.0119 50.2759 20.578 50.1132 20.1553 49.9242C19.3539 49.4907 18.7288 48.7911 18.3879 47.9462C18.0469 47.1012 18.0114 46.1638 18.2875 45.2955C18.4962 44.6456 18.8704 44.0612 19.3735 43.5999C19.8765 43.1387 20.4911 42.8163 21.1565 42.6646C21.822 42.513 22.5155 42.5373 23.1688 42.7351C23.822 42.9328 24.4125 43.2973 24.8821 43.7927C25.3517 44.288 25.6842 44.8971 25.8469 45.5599C26.0096 46.2228 25.9969 46.9166 25.81 47.5731C25.6231 48.2295 25.2684 48.826 24.781 49.3037C24.2935 49.7815 23.6901 50.1241 23.03 50.2978L22.624 50.4115H21.4546Z" fill="#FDDE17"/>
<path d="M21.9924 35.388H15.0086C14.6329 35.4378 14.2507 35.401 13.8913 35.2803C13.532 35.1597 13.205 34.9584 12.9354 34.692C12.6658 34.4255 12.4607 34.1009 12.3359 33.743C12.211 33.3851 12.1698 33.0033 12.2152 32.627C12.2152 27.9171 12.2152 23.2071 12.2152 18.4972C12.1985 18.1238 12.2606 17.7512 12.3973 17.4034C12.5341 17.0557 12.7426 16.7406 13.0091 16.4786C13.2756 16.2167 13.5943 16.0138 13.9444 15.8831C14.2945 15.7523 14.6681 15.6968 15.0411 15.7199C19.7186 15.7199 24.4069 15.7199 29.106 15.7199C29.4783 15.6966 29.8513 15.7521 30.2006 15.883C30.5499 16.0138 30.8676 16.217 31.1329 16.4792C31.3982 16.7415 31.605 17.0568 31.74 17.4045C31.8749 17.7523 31.9348 18.1246 31.9157 18.4972C31.9157 23.2558 31.9157 28.0145 31.9157 32.7732C31.951 33.3517 31.7816 33.9243 31.4371 34.3905C31.0927 34.8567 30.5952 35.1868 30.0317 35.323C29.7458 35.3559 29.4569 35.3559 29.171 35.323L21.9924 35.388ZM19.0365 23.0772C19.0365 23.4345 19.0365 23.7918 19.0365 24.1491C19.0365 24.5064 18.8903 24.7013 18.5005 24.7338C18.1107 24.7663 17.6072 25.0749 17.591 25.5458C17.5747 26.0168 17.8996 26.3254 18.5005 26.3904C18.5767 26.3844 18.6533 26.3959 18.7244 26.4239C18.7955 26.4519 18.8593 26.4958 18.911 26.5521C18.9626 26.6084 19.0008 26.6758 19.0225 26.7491C19.0443 26.8224 19.049 26.8997 19.0365 26.9751C19.0365 27.7222 19.0365 28.4693 19.0365 29.2163C19.0266 29.3383 19.0435 29.4609 19.0857 29.5757C19.1279 29.6905 19.1946 29.7947 19.2811 29.8812C19.3676 29.9677 19.4718 30.0344 19.5866 30.0766C19.7014 30.1189 19.824 30.1357 19.946 30.1259C20.6606 30.1259 21.3589 30.1259 22.0736 30.1259C23.2105 30.1037 24.2975 29.6548 25.1189 28.8684C25.9402 28.082 26.4359 27.0155 26.5075 25.8806C26.579 24.7457 26.2213 23.6254 25.5052 22.7421C24.7892 21.8587 23.7671 21.2768 22.642 21.112C21.7139 21.0198 20.7804 20.9927 19.8485 21.0308C19.7376 21.0306 19.6279 21.0531 19.5261 21.0969C19.4242 21.1407 19.3324 21.205 19.2564 21.2856C19.1803 21.3663 19.1215 21.4616 19.0837 21.5658C19.0459 21.67 19.0298 21.7809 19.0365 21.8916C19.0202 22.2814 19.0365 22.6874 19.0365 23.0772Z" fill="url(#paint0_linear_471_2765)"/>
<path d="M40.197 11.1891C40.7131 11.1933 41.2232 11.2999 41.6977 11.5028C42.1722 11.7056 42.6017 12.0007 42.9613 12.3709C43.3209 12.741 43.6034 13.1789 43.7924 13.6591C43.9814 14.1393 44.0732 14.6522 44.0624 15.1682C44.0539 15.6843 43.9438 16.1937 43.7384 16.6673C43.533 17.1409 43.2363 17.5694 42.8653 17.9284C42.4943 18.2873 42.0563 18.5696 41.5761 18.7593C41.096 18.9489 40.5833 19.0421 40.0671 19.0336C39.551 19.0251 39.0416 18.915 38.568 18.7096C38.0944 18.5042 37.6659 18.2075 37.3069 17.8365C36.948 17.4655 36.6657 17.0274 36.476 16.5473C36.2864 16.0672 36.1932 15.5544 36.2017 15.0383C36.2102 14.5228 36.3203 14.0142 36.5259 13.5414C36.7315 13.0687 37.0284 12.6412 37.3996 12.2836C37.7709 11.9259 38.2091 11.6451 38.6892 11.4573C39.1692 11.2695 39.6817 11.1783 40.197 11.1891Z" fill="#FDDE17"/>
<path d="M3.93246 11.1726C4.97075 11.1768 5.96554 11.5901 6.70124 12.3227C7.43694 13.0554 7.85429 14.0485 7.86283 15.0867C7.85859 16.1336 7.44194 17.1367 6.70319 17.8785C5.96443 18.6203 4.96309 19.0411 3.91622 19.0496C2.91538 18.9853 1.97656 18.5424 1.29052 17.8108C0.604469 17.0793 0.222656 16.114 0.222656 15.1111C0.222656 14.1082 0.604469 13.1429 1.29052 12.4114C1.97656 11.6798 2.91538 11.2369 3.91622 11.1726H3.93246Z" fill="#FDDE17"/>
<path d="M3.93037 39.9522C2.88797 39.9522 1.88826 39.5381 1.15118 38.801C0.414091 38.0639 0 37.0642 0 36.0218C0 34.9794 0.414091 33.9797 1.15118 33.2426C1.88826 32.5055 2.88797 32.0914 3.93037 32.0914C4.97277 32.0914 5.97247 32.5055 6.70956 33.2426C7.44665 33.9797 7.86074 34.9794 7.86074 36.0218C7.86074 37.0642 7.44665 38.0639 6.70956 38.801C5.97247 39.5381 4.97277 39.9522 3.93037 39.9522Z" fill="#FDDE17"/>
<path d="M40.1332 39.9522C39.3538 39.9521 38.592 39.7203 37.9446 39.2863C37.2973 38.8522 36.7936 38.2355 36.4976 37.5144C36.2016 36.7934 36.1266 36.0007 36.2823 35.2369C36.4379 34.4732 36.8171 33.773 37.3717 33.2253C37.9262 32.6777 38.6311 32.3072 39.3967 32.1611C40.1623 32.015 40.9541 32.0998 41.6713 32.4048C42.3886 32.7098 42.999 33.2211 43.425 33.8738C43.8509 34.5265 44.0732 35.2912 44.0636 36.0705C44.0466 37.1031 43.6255 38.0879 42.8907 38.8136C42.1559 39.5393 41.1659 39.9481 40.1332 39.9522Z" fill="#FDDE17"/>
<path d="M25.97 4.70841C25.9631 5.48978 25.7234 6.25137 25.2817 6.8959C24.8399 7.54043 24.216 8.03865 23.4897 8.32691C22.7634 8.61518 21.9677 8.68042 21.2041 8.51429C20.4406 8.34816 19.7439 7.95821 19.203 7.39424C18.6622 6.83027 18.3017 6.11787 18.1676 5.34805C18.0336 4.57822 18.1321 3.78592 18.4504 3.07232C18.7688 2.35872 19.2927 1.75622 19.9552 1.34177C20.6176 0.927328 21.3885 0.719751 22.1695 0.745552C23.1935 0.783491 24.1626 1.2182 24.8718 1.95776C25.5811 2.69731 25.9749 3.68374 25.97 4.70841Z" fill="#FDDE17"/>
<path d="M17.2987 43.2336C17.305 43.3827 17.2709 43.5307 17.2 43.662C17.1291 43.7934 17.0241 43.9031 16.896 43.9796C16.7678 44.0562 16.6214 44.0967 16.4722 44.0969C16.323 44.0971 16.1765 44.0569 16.0482 43.9807C15.4635 43.6721 14.9113 43.331 14.3266 42.99L9.1619 40.0178C9.04767 39.9734 8.94501 39.9036 8.86159 39.8138C8.77817 39.724 8.71616 39.6164 8.68022 39.4992C8.64428 39.3821 8.63534 39.2582 8.65406 39.1371C8.67279 39.016 8.7187 38.9006 8.78834 38.7997C8.84556 38.7028 8.9227 38.6191 9.01467 38.5541C9.10664 38.4892 9.21134 38.4444 9.32186 38.423C9.43239 38.4015 9.54622 38.4037 9.65583 38.4294C9.76544 38.4552 9.86833 38.5039 9.95771 38.5724C11.0784 39.1895 12.1828 39.8392 13.2059 40.4726L16.6816 42.4865C17.0876 42.6652 17.315 42.8763 17.2987 43.2336Z" fill="#FDDE17"/>
<path d="M35.4223 11.7087C35.4223 12.5532 34.7726 12.9268 34.1555 12.5857C33.5383 12.2446 32.6938 11.7574 31.9629 11.3352C30.3388 10.4256 28.8284 9.53237 27.2692 8.60662C27.144 8.51854 27.0387 8.40503 26.9604 8.2735C26.882 8.14196 26.8323 7.99535 26.8145 7.84328C26.8262 7.69806 26.872 7.55766 26.9482 7.43348C27.0244 7.30931 27.1288 7.20487 27.253 7.12866C27.3812 7.07324 27.5193 7.04468 27.659 7.04468C27.7987 7.04468 27.9368 7.07324 28.065 7.12866C30.3713 8.4442 32.6613 9.75976 34.9513 11.1078C35.1498 11.2718 35.3104 11.4768 35.4223 11.7087Z" fill="#FDDE17"/>
<path d="M35.4402 39.4157C35.2749 39.6529 35.0719 39.8614 34.8393 40.0329C32.9553 41.1536 31.0551 42.2417 29.1386 43.2811L28.018 43.9308C27.9228 43.9874 27.8171 44.024 27.7073 44.0383C27.5975 44.0526 27.4859 44.0443 27.3794 44.0139C27.2729 43.9835 27.1738 43.9316 27.0881 43.8614C27.0024 43.7913 26.9319 43.7043 26.8811 43.606C26.8247 43.5121 26.7883 43.4075 26.7742 43.2989C26.7601 43.1903 26.7685 43.08 26.799 42.9748C26.8295 42.8696 26.8814 42.7718 26.9514 42.6876C27.0214 42.6034 27.1081 42.5345 27.2059 42.4853C29.5122 41.1319 31.8347 39.7947 34.1734 38.4737C34.7581 38.1976 35.4077 38.5874 35.4402 39.4157Z" fill="#FDDE17"/>
<path d="M8.51172 11.8386C8.68389 11.5879 8.88566 11.3589 9.11265 11.1565L15.9989 7.24238C16.093 7.17793 16.1994 7.13361 16.3113 7.11217C16.4233 7.09074 16.5386 7.09267 16.6498 7.11782C16.761 7.14298 16.8658 7.19084 16.9577 7.25839C17.0496 7.32594 17.1265 7.41174 17.1837 7.5104C17.2408 7.60906 17.277 7.71845 17.29 7.83175C17.3029 7.94504 17.2923 8.05977 17.2589 8.16878C17.2254 8.27779 17.1698 8.37873 17.0955 8.46525C17.0212 8.55177 16.9299 8.62203 16.8272 8.67161C14.5372 10.0034 12.2634 11.3189 9.97343 12.6182C9.83225 12.6785 9.68032 12.7096 9.52679 12.7096C9.37327 12.7096 9.22134 12.6785 9.08016 12.6182C8.85278 12.4883 8.72285 12.1147 8.51172 11.8386Z" fill="#FDDE17"/>
<path d="M40.9783 25.563V29.4447C40.9783 30.0781 40.7022 30.4192 40.1662 30.4192C39.6302 30.4192 39.3379 30.0781 39.3379 29.4609C39.3379 26.8623 39.3379 24.2638 39.3379 21.6652C39.3469 21.5054 39.3892 21.3492 39.4619 21.2066C39.5346 21.064 39.6361 20.938 39.7602 20.8368C39.8875 20.7686 40.0298 20.7329 40.1743 20.7329C40.3188 20.7329 40.4611 20.7686 40.5885 20.8368C40.6996 20.9307 40.7891 21.0476 40.8508 21.1793C40.9125 21.3111 40.9449 21.4547 40.9458 21.6002C41.0107 22.9482 40.9783 24.2475 40.9783 25.563Z" fill="#FDDE17"/>
<path d="M4.74172 25.5629C4.74172 26.8784 4.74172 28.1777 4.74172 29.4933C4.76104 29.6306 4.74556 29.7706 4.69671 29.9004C4.64786 30.0302 4.56721 30.1457 4.46214 30.2362C4.35707 30.3267 4.23094 30.3894 4.09534 30.4185C3.95974 30.4476 3.81901 30.4422 3.68604 30.4028C3.51169 30.358 3.3582 30.2543 3.25162 30.1092C3.14505 29.9642 3.09196 29.7867 3.10136 29.607C3.10136 26.9109 3.10136 24.2149 3.10136 21.4864C3.0939 21.3764 3.11035 21.2661 3.14957 21.1631C3.18879 21.0601 3.24985 20.9668 3.32856 20.8896C3.40727 20.8125 3.50175 20.7533 3.60551 20.7161C3.70928 20.6789 3.81986 20.6647 3.92966 20.6743C4.04273 20.6714 4.15511 20.6926 4.25932 20.7366C4.36353 20.7805 4.45718 20.8462 4.53402 20.9292C4.61086 21.0122 4.66914 21.1106 4.70495 21.2179C4.74077 21.3251 4.7533 21.4388 4.74172 21.5513C4.75796 22.9156 4.74172 24.2311 4.74172 25.5629Z" fill="#FDDE17"/>
<path d="M22.9505 39.0103C22.9505 39.3676 22.9505 39.7249 22.9505 40.0822C22.9128 40.2698 22.8113 40.4386 22.6632 40.5598C22.5152 40.681 22.3298 40.7473 22.1384 40.7473C21.9471 40.7473 21.7616 40.681 21.6136 40.5598C21.4656 40.4386 21.3641 40.2698 21.3264 40.0822C21.3264 39.3351 21.3264 38.588 21.3264 37.8572C21.324 37.7507 21.3436 37.6448 21.3838 37.5461C21.424 37.4474 21.484 37.358 21.5601 37.2835C21.6362 37.2089 21.7268 37.1507 21.8262 37.1125C21.9257 37.0743 22.032 37.0569 22.1384 37.0614C22.2429 37.0592 22.3468 37.0777 22.4442 37.1157C22.5416 37.1537 22.6305 37.2105 22.7059 37.2829C22.7814 37.3553 22.8418 37.4418 22.8837 37.5376C22.9257 37.6333 22.9484 37.7364 22.9505 37.8409C22.9581 37.873 22.9581 37.9063 22.9505 37.9384V39.0103Z" fill="#2E74FF"/>
<path d="M21.2131 12.1144C21.2131 11.7571 21.2131 11.3998 21.2131 11.0425C21.2109 10.9337 21.2302 10.8256 21.2698 10.7243C21.3095 10.6229 21.3687 10.5304 21.4441 10.452C21.5195 10.3736 21.6097 10.3108 21.7094 10.2672C21.809 10.2236 21.9163 10.2001 22.0251 10.198C22.1351 10.1934 22.2449 10.2116 22.3474 10.2516C22.45 10.2916 22.5432 10.3525 22.621 10.4303C22.6989 10.5082 22.7597 10.6013 22.7997 10.7039C22.8397 10.8065 22.858 10.9162 22.8534 11.0262C22.8534 11.7625 22.8534 12.4934 22.8534 13.2188C22.8578 13.3239 22.8409 13.4288 22.8037 13.5271C22.7664 13.6255 22.7097 13.7153 22.6369 13.7912C22.5641 13.867 22.4766 13.9274 22.3799 13.9686C22.2831 14.0098 22.179 14.0309 22.0738 14.0309C21.9645 14.0374 21.855 14.0219 21.7519 13.985C21.6487 13.9482 21.5541 13.8909 21.4737 13.8165C21.3933 13.7422 21.3287 13.6524 21.284 13.5524C21.2392 13.4525 21.215 13.3445 21.2131 13.2351V12.1144Z" fill="#2E74FF"/>
<path d="M34.5949 17.4915C34.8133 17.4956 35.0216 17.5842 35.176 17.7387C35.3304 17.8931 35.4191 18.1014 35.4232 18.3198C35.3913 18.5853 35.2627 18.8298 35.062 19.0065C34.8613 19.1833 34.6025 19.2799 34.3351 19.278C34.2299 19.2802 34.1255 19.2611 34.0279 19.2219C33.9304 19.1827 33.8417 19.1242 33.7674 19.0498C33.6931 18.9755 33.6345 18.8869 33.5953 18.7893C33.5561 18.6918 33.537 18.5873 33.5392 18.4822C33.5631 18.2163 33.6838 17.9685 33.8784 17.7858C34.0731 17.6031 34.3281 17.4984 34.5949 17.4915Z" fill="#2E74FF"/>
<path d="M10.5408 32.6429C10.5206 32.9101 10.4009 33.16 10.2055 33.3434C10.0101 33.5268 9.75312 33.6303 9.48516 33.6336C9.26521 33.6296 9.05513 33.5415 8.89807 33.3875C8.74101 33.2335 8.64889 33.0251 8.64062 32.8053C8.68261 32.5412 8.81635 32.3003 9.01834 32.1251C9.22033 31.9498 9.47764 31.8514 9.74503 31.847C9.95609 31.847 10.1585 31.9309 10.3078 32.0801C10.457 32.2294 10.5408 32.4318 10.5408 32.6429Z" fill="#2E74FF"/>
<path d="M10.5408 18.4822C10.5412 18.5924 10.5187 18.7015 10.4747 18.8025C10.4307 18.9035 10.3662 18.9944 10.2853 19.0692C10.2044 19.144 10.1088 19.2012 10.0046 19.2371C9.90041 19.2731 9.7899 19.287 9.68006 19.278C9.42309 19.262 9.17948 19.158 8.99018 18.9835C8.80088 18.8089 8.67744 18.5746 8.64062 18.3198C8.64889 18.0999 8.74101 17.8916 8.89807 17.7376C9.05513 17.5835 9.26521 17.4955 9.48516 17.4915C9.75201 17.4984 10.007 17.6031 10.2017 17.7858C10.3963 17.9685 10.517 18.2163 10.5408 18.4822Z" fill="#2E74FF"/>
<path d="M35.4395 32.8217C35.4311 33.04 35.3384 33.2466 35.1809 33.398C35.0234 33.5494 34.8134 33.6339 34.5949 33.6338C34.3281 33.6269 34.0731 33.5221 33.8784 33.3394C33.6838 33.1568 33.5631 32.9089 33.5392 32.643C33.537 32.5379 33.5561 32.4335 33.5953 32.3359C33.6345 32.2383 33.6931 32.1497 33.7674 32.0754C33.8417 32.001 33.9304 31.9425 34.0279 31.9033C34.1255 31.8641 34.2299 31.845 34.3351 31.8472C34.6048 31.8522 34.8641 31.9529 35.0664 32.1314C35.2687 32.31 35.401 32.5546 35.4395 32.8217Z" fill="#2E74FF"/>
<path d="M19.0359 23.0781C19.0359 22.6883 19.0359 22.2823 19.0359 21.8763C19.0292 21.7656 19.0453 21.6548 19.0831 21.5505C19.121 21.4463 19.1797 21.3509 19.2558 21.2703C19.3319 21.1897 19.4237 21.1255 19.5255 21.0816C19.6273 21.0378 19.7371 21.0153 19.8479 21.0155C20.7799 20.9774 21.7133 21.0045 22.6414 21.0967C23.7666 21.2615 24.7886 21.8434 25.5047 22.7268C26.2207 23.6101 26.5785 24.7304 26.5069 25.8653C26.4353 27.0002 25.9397 28.0667 25.1183 28.8531C24.2969 29.6395 23.2099 30.0884 22.073 30.1106C21.3584 30.1106 20.66 30.1106 19.9454 30.1106C19.8235 30.1204 19.7009 30.1036 19.5861 30.0613C19.4713 30.0191 19.367 29.9524 19.2805 29.8659C19.194 29.7794 19.1274 29.6752 19.0851 29.5604C19.0429 29.4456 19.0261 29.323 19.0359 29.2011C19.0359 28.454 19.0359 27.7069 19.0359 26.9598C19.0485 26.8844 19.0437 26.8071 19.0219 26.7338C19.0002 26.6605 18.9621 26.5932 18.9104 26.5368C18.8588 26.4805 18.795 26.4366 18.7238 26.4086C18.6527 26.3806 18.5761 26.3691 18.4999 26.3751C17.899 26.3751 17.5742 25.9853 17.5904 25.5305C17.6067 25.0758 17.9153 24.7672 18.4999 24.7185C19.0846 24.6698 19.0521 24.5073 19.0359 24.1338C19.0196 23.7602 19.0359 23.4842 19.0359 23.0781ZM20.66 27.382C20.66 28.4864 20.66 28.4865 21.7644 28.4702H22.008C22.4662 28.4475 22.9125 28.3173 23.3111 28.0902C23.7096 27.863 24.0491 27.5453 24.302 27.1627C24.555 26.78 24.7144 26.3432 24.7673 25.8876C24.8202 25.432 24.7652 24.9702 24.6066 24.5398C24.3315 23.8581 23.822 23.2971 23.1699 22.9576C22.5179 22.6182 21.766 22.5227 21.0498 22.6883C20.955 22.732 20.8717 22.7975 20.8069 22.8793C20.742 22.9611 20.6972 23.057 20.6763 23.1593C20.6437 23.4779 20.6437 23.799 20.6763 24.1176C20.6763 24.5073 20.8062 24.7185 21.2285 24.751C21.4654 24.7518 21.6926 24.845 21.8619 25.0108C22.0267 25.2354 22.102 25.5133 22.073 25.7904C22.0344 25.9693 21.9329 26.1285 21.7868 26.2388C21.6407 26.3491 21.4598 26.4032 21.2772 26.3913C20.9036 26.3913 20.6438 26.5213 20.6763 26.9435L20.66 27.382Z" fill="white"/>
</g>
<defs>
<linearGradient id="paint0_linear_471_2765" x1="22.0411" y1="15.8823" x2="22.0411" y2="37.4344" gradientUnits="userSpaceOnUse">
<stop stop-color="#2E74FF"/>
<stop offset="1" stop-color="#2E74FF" stop-opacity="0"/>
</linearGradient>
<clipPath id="clip0_471_2765">
<rect width="44.0948" height="49.7143" fill="white" transform="translate(0 0.713135)"/>
</clipPath>
</defs>
</svg>
