<?xml version="1.0" encoding="utf-8"?>
<!-- Generator: Adobe Illustrator 26.0.1, SVG Export Plug-In . SVG Version: 6.00 Build 0)  -->
<svg version="1.1" xmlns="http://www.w3.org/2000/svg" xmlns:xlink="http://www.w3.org/1999/xlink" x="0px" y="0px"
	 viewBox="0 0 160.7 46.2" style="enable-background:new 0 0 160.7 46.2;" xml:space="preserve">
<style type="text/css">
	.st0{display:none;}
	.st1{display:inline;}
	.st2{display:none;fill:url(#SVGID_1_);}
	.st3{fill:#FFFFFF;}
</style>
<g id="wordmark">
	<g id="Black" class="st0">
		<path class="st1" d="M57.4,16.2c-0.9-0.4-1.8-0.6-2.9-0.6h-6.2v15.2h2.1v-4.2h4.2c1.1,0,2-0.2,2.8-0.6c0.9-0.4,1.6-1.1,2.2-2
			c0.5-0.8,0.8-1.8,0.8-2.9c0-1.1-0.3-2.1-0.8-2.9C59,17.3,58.3,16.6,57.4,16.2z M58.3,21c0,0.7-0.2,1.3-0.5,1.8
			c-0.4,0.6-0.8,1-1.4,1.3c-0.4,0.2-1,0.4-1.8,0.4h-4.2v-6.9h4.2c0.7,0,1.3,0.1,1.8,0.3c0.6,0.2,1,0.6,1.4,1.2
			C58.1,19.7,58.3,20.3,58.3,21z"/>
		<path class="st1" d="M71,15.9L71,15.9c-1.7-0.9-3.7-0.9-5.3,0c-0.8,0.5-1.5,1.1-2,2c-0.5,0.8-0.7,1.7-0.7,2.7v5.1
			c0,0.9,0.2,1.8,0.7,2.7c0.5,0.8,1.1,1.5,2,2c0.8,0.5,1.7,0.7,2.7,0.7s1.8-0.2,2.7-0.7c0.8-0.5,1.5-1.1,2-2
			c0.5-0.8,0.7-1.7,0.7-2.7v-5.1c0-0.9-0.2-1.8-0.7-2.7C72.5,17.1,71.8,16.4,71,15.9z M70.9,18.4L65,25.6v-5c0-0.6,0.2-1.2,0.4-1.6
			c0.3-0.5,0.7-0.9,1.2-1.2c0.5-0.3,1.1-0.4,1.7-0.4c0.6,0,1.1,0.1,1.6,0.4C70.3,17.9,70.6,18.1,70.9,18.4z M71.7,20.7v5
			c0,0.6-0.1,1.2-0.4,1.6c-0.3,0.5-0.7,0.9-1.2,1.2c-0.5,0.3-1,0.4-1.7,0.4c-0.6,0-1.1-0.1-1.6-0.4c-0.3-0.2-0.7-0.4-0.9-0.7
			L71.7,20.7z"/>
		<polygon class="st1" points="103.6,15.5 101.5,15.5 101.5,30.7 113.2,30.7 113.2,28.6 103.6,28.6 		"/>
		<polygon class="st1" points="90.3,15.5 87.6,15.5 83.1,21.4 78.5,15.5 76,15.5 81.8,23.1 76,30.7 78.5,30.7 83.1,24.8 87.6,30.7 
			90.3,30.7 84.4,23.1 		"/>
		<path class="st1" d="M140.4,22.8c0.3-0.2,0.5-0.5,0.7-0.9c0.4-0.7,0.6-1.4,0.6-2.1c0-0.8-0.2-1.6-0.6-2.2c-0.4-0.7-1-1.2-1.7-1.6
			c-0.6-0.3-1.4-0.5-2.4-0.5h-6.2v15.2h6.5c0.7,0,1.2-0.1,1.6-0.2c0.3-0.1,0.7-0.2,1.2-0.4c0.6-0.3,1.2-0.9,1.6-1.6
			c0.4-0.7,0.6-1.4,0.6-2.2c0-0.9-0.3-1.7-0.8-2.5C141.1,23.4,140.8,23,140.4,22.8z M140.1,25.1c0.2,0.4,0.3,0.7,0.3,1.3
			c0,0.4-0.1,0.9-0.4,1.3c-0.2,0.4-0.5,0.6-0.9,0.9c-0.2,0.1-0.3,0.1-0.6,0.2c-0.3,0-0.6,0-1.1,0H133V24h4.8c0.7,0,1.1,0.1,1.3,0.2
			C139.5,24.4,139.8,24.7,140.1,25.1z M139.6,20.9c-0.3,0.4-0.6,0.6-0.9,0.8l0,0c-0.3,0.2-0.8,0.3-1.4,0.3H133v-4.4h3.9
			c1,0,1.4,0.1,1.6,0.2c0.4,0.2,0.7,0.4,1,0.8c0.2,0.3,0.3,0.7,0.3,1.2C139.9,20.2,139.8,20.6,139.6,20.9z"/>
		<path class="st1" d="M156.8,21.1v-0.7c0-1.1-0.3-2-0.8-2.7c-0.5-0.8-1.2-1.5-2.1-1.8c-0.8-0.4-1.8-0.6-2.8-0.6
			c-1,0-1.9,0.2-2.8,0.5c-0.8,0.3-1.5,0.9-2,1.6c-0.5,0.7-0.7,1.5-0.7,2.4c0,0.9,0.3,1.6,0.8,2.2c0.5,0.6,1.1,1,1.9,1.3
			c0.6,0.3,1.5,0.5,2.8,0.8c1.1,0.2,1.8,0.4,2.3,0.6c0.4,0.1,0.7,0.3,1,0.6c0.2,0.2,0.3,0.6,0.3,1.1c0,0.8-0.3,1.4-0.9,1.9
			c-0.7,0.5-1.6,0.8-2.6,0.8c-0.9,0-1.7-0.2-2.2-0.5c-0.6-0.3-1.1-0.7-1.4-1.2c-0.3-0.6-0.5-1.2-0.5-1.9v-0.7h-2v0.7
			c0,1.1,0.2,2,0.7,2.9c0.5,0.8,1.2,1.5,2.2,2c1,0.5,2,0.7,3.1,0.7c1,0,1.9-0.2,2.7-0.5c0.8-0.3,1.5-0.8,2.1-1.5
			c0.5-0.7,0.8-1.5,0.8-2.6c0-1-0.3-1.8-0.8-2.4c-0.5-0.6-1.1-1-1.8-1.2c-0.8-0.2-1.7-0.5-2.6-0.7c-1-0.2-1.8-0.4-2.4-0.6
			c-0.5-0.2-0.9-0.4-1.2-0.7c-0.2-0.2-0.4-0.6-0.4-1.1c0-0.6,0.1-1,0.4-1.3c0.3-0.4,0.8-0.7,1.2-0.8c0.7-0.2,1.2-0.3,1.8-0.3
			c0.7,0,1.4,0.1,1.9,0.4c0.5,0.3,1,0.7,1.3,1.2c0.3,0.5,0.5,1.1,0.5,1.7v0.7H156.8z"/>
		<path class="st1" d="M120.7,15.5l-6.3,15.2h2.1l1.9-4.6h6.2l1.9,4.6h2.1l-6.2-15.2H120.7z M123.9,24h-4.5l2.2-5.5L123.9,24z"/>
	</g>
	<g class="st0">
		<g transform="translate(0.000000,1000.000000) scale(0.100000,-0.100000)" class="st1">
			<path d="M74.5,9811.3v-75.4H131h56.5l-0.1-28.1l-0.1-28.2l-16.1-0.1l-16.2-0.1v-13.9v-13.9h48.9h48.9v13.9v13.9h-16.4H220v28.2
				v28.2h56.5h56.5v75.4v75.4h-16.2h-16.2v-61.2v-61.2h-40.2H220v6.2v6.2h-16.2h-16.2v-6.2v-6.2h-40.2H107v61.2v61.2H90.8H74.5
				V9811.3z"/>
			<path d="M187.5,9845.7v-41h16.2H220v41v40.9h-16.2h-16.2V9845.7z"/>
		</g>
	</g>
	<linearGradient id="SVGID_1_" gradientUnits="userSpaceOnUse" x1="10.0481" y1="8.7371" x2="30.7171" y2="29.4061">
		<stop  offset="0" style="stop-color:#FEBC09"/>
		<stop  offset="0.9987" style="stop-color:#59043D"/>
	</linearGradient>
	<path class="st2" d="M7.5,11.3h1.6h1.6v6.1v6.1h4h4V23v-0.6h1.6H22V23v0.6h4h4v-6.1v-6.1h1.6h1.6v7.5v7.5h-5.6H22v2.8v2.8h1.6h1.6
		v1.4v1.4h-4.9h-4.9v-1.4v-1.4l1.6,0l1.6,0l0-2.8l0-2.8h-5.6H7.5v-7.5V11.3z M18.7,15.4v4.1h1.6H22v-4.1v-4.1h-1.6h-1.6V15.4z"/>
	<g id="White">
		<path class="st3" d="M57.4,16.2c-0.9-0.4-1.8-0.6-2.9-0.6h-6.2v15.2h2.1v-4.2h4.2c1.1,0,2-0.2,2.8-0.6c0.9-0.4,1.6-1.1,2.2-2
			c0.5-0.8,0.8-1.8,0.8-2.9c0-1.1-0.3-2.1-0.8-2.9C59,17.3,58.3,16.6,57.4,16.2z M58.3,21c0,0.7-0.2,1.3-0.5,1.8
			c-0.4,0.6-0.8,1-1.4,1.3c-0.4,0.2-1,0.4-1.8,0.4h-4.2v-6.9h4.2c0.7,0,1.3,0.1,1.8,0.3c0.6,0.2,1,0.6,1.4,1.2
			C58.1,19.7,58.3,20.3,58.3,21z"/>
		<path class="st3" d="M71,15.9L71,15.9c-1.7-0.9-3.7-0.9-5.3,0c-0.8,0.5-1.5,1.1-2,2c-0.5,0.8-0.7,1.7-0.7,2.7v5.1
			c0,0.9,0.2,1.8,0.7,2.7c0.5,0.8,1.1,1.5,2,2c0.8,0.5,1.7,0.7,2.7,0.7s1.8-0.2,2.7-0.7c0.8-0.5,1.5-1.1,2-2
			c0.5-0.8,0.7-1.7,0.7-2.7v-5.1c0-0.9-0.2-1.8-0.7-2.7C72.5,17.1,71.8,16.4,71,15.9z M70.9,18.4L65,25.6v-5c0-0.6,0.2-1.2,0.4-1.6
			c0.3-0.5,0.7-0.9,1.2-1.2c0.5-0.3,1.1-0.4,1.7-0.4c0.6,0,1.1,0.1,1.6,0.4C70.3,17.9,70.6,18.1,70.9,18.4z M71.7,20.7v5
			c0,0.6-0.1,1.2-0.4,1.6c-0.3,0.5-0.7,0.9-1.2,1.2c-0.5,0.3-1,0.4-1.7,0.4c-0.6,0-1.1-0.1-1.6-0.4c-0.3-0.2-0.7-0.4-0.9-0.7
			L71.7,20.7z"/>
		<polygon class="st3" points="103.6,15.5 101.5,15.5 101.5,30.7 113.2,30.7 113.2,28.6 103.6,28.6 		"/>
		<polygon class="st3" points="90.3,15.5 87.6,15.5 83.1,21.4 78.5,15.5 76,15.5 81.8,23.1 76,30.7 78.5,30.7 83.1,24.8 87.6,30.7 
			90.3,30.7 84.4,23.1 		"/>
		<path class="st3" d="M140.4,22.8c0.3-0.2,0.5-0.5,0.7-0.9c0.4-0.7,0.6-1.4,0.6-2.1c0-0.8-0.2-1.6-0.6-2.2c-0.4-0.7-1-1.2-1.7-1.6
			c-0.6-0.3-1.4-0.5-2.4-0.5h-6.2v15.2h6.5c0.7,0,1.2-0.1,1.6-0.2c0.3-0.1,0.7-0.2,1.2-0.4c0.6-0.3,1.2-0.9,1.6-1.6
			c0.4-0.7,0.6-1.4,0.6-2.2c0-0.9-0.3-1.7-0.8-2.5C141.1,23.4,140.8,23,140.4,22.8z M140.1,25.1c0.2,0.4,0.3,0.7,0.3,1.3
			c0,0.4-0.1,0.9-0.4,1.3c-0.2,0.4-0.5,0.6-0.9,0.9c-0.2,0.1-0.3,0.1-0.6,0.2c-0.3,0-0.6,0-1.1,0H133V24h4.8c0.7,0,1.1,0.1,1.3,0.2
			C139.5,24.4,139.8,24.7,140.1,25.1z M139.6,20.9c-0.3,0.4-0.6,0.6-0.9,0.8l0,0c-0.3,0.2-0.8,0.3-1.4,0.3H133v-4.4h3.9
			c1,0,1.4,0.1,1.6,0.2c0.4,0.2,0.7,0.4,1,0.8c0.2,0.3,0.3,0.7,0.3,1.2C139.9,20.2,139.8,20.6,139.6,20.9z"/>
		<path class="st3" d="M156.8,21.1v-0.7c0-1.1-0.3-2-0.8-2.7c-0.5-0.8-1.2-1.5-2.1-1.8c-0.8-0.4-1.8-0.6-2.8-0.6
			c-1,0-1.9,0.2-2.8,0.5c-0.8,0.3-1.5,0.9-2,1.6c-0.5,0.7-0.7,1.5-0.7,2.4c0,0.9,0.3,1.6,0.8,2.2c0.5,0.6,1.1,1,1.9,1.3
			c0.6,0.3,1.5,0.5,2.8,0.8c1.1,0.2,1.8,0.4,2.3,0.6c0.4,0.1,0.7,0.3,1,0.6c0.2,0.2,0.3,0.6,0.3,1.1c0,0.8-0.3,1.4-0.9,1.9
			c-0.7,0.5-1.6,0.8-2.6,0.8c-0.9,0-1.7-0.2-2.2-0.5c-0.6-0.3-1.1-0.7-1.4-1.2c-0.3-0.6-0.5-1.2-0.5-1.9v-0.7h-2v0.7
			c0,1.1,0.2,2,0.7,2.9c0.5,0.8,1.2,1.5,2.2,2c1,0.5,2,0.7,3.1,0.7c1,0,1.9-0.2,2.7-0.5c0.8-0.3,1.5-0.8,2.1-1.5
			c0.5-0.7,0.8-1.5,0.8-2.6c0-1-0.3-1.8-0.8-2.4c-0.5-0.6-1.1-1-1.8-1.2c-0.8-0.2-1.7-0.5-2.6-0.7c-1-0.2-1.8-0.4-2.4-0.6
			c-0.5-0.2-0.9-0.4-1.2-0.7c-0.2-0.2-0.4-0.6-0.4-1.1c0-0.6,0.1-1,0.4-1.3c0.3-0.4,0.8-0.7,1.2-0.8c0.7-0.2,1.2-0.3,1.8-0.3
			c0.7,0,1.4,0.1,1.9,0.4c0.5,0.3,1,0.7,1.3,1.2c0.3,0.5,0.5,1.1,0.5,1.7v0.7H156.8z"/>
		<path class="st3" d="M120.7,15.5l-6.3,15.2h2.1l1.9-4.6h6.2l1.9,4.6h2.1l-6.2-15.2H120.7z M123.9,24h-4.5l2.2-5.5L123.9,24z"/>
		<g>
			<g transform="translate(0.000000,1000.000000) scale(0.100000,-0.100000)">
				<path class="st3" d="M74.5,9811.3v-75.4H131h56.5l-0.1-28.1l-0.1-28.2l-16.1-0.1l-16.2-0.1v-13.9v-13.9h48.9h48.9v13.9v13.9
					h-16.4H220v28.2v28.2h56.5h56.5v75.4v75.4h-16.2h-16.2v-61.2v-61.2h-40.2H220v6.2v6.2h-16.2h-16.2v-6.2v-6.2h-40.2H107v61.2
					v61.2H90.8H74.5V9811.3z"/>
				<path class="st3" d="M187.5,9845.7v-41h16.2H220v41v40.9h-16.2h-16.2V9845.7z"/>
			</g>
		</g>
	</g>
</g>
<g id="Camada_1" class="st0">
	
		<image style="display:inline;overflow:visible;" width="1000" height="1000" xlink:href="../../../../../../../2022-12-15 14.18.21.jpg"  transform="matrix(2.261894e-02 0 0 2.261894e-02 33.2941 17.656)">
	</image>
</g>
</svg>
