<svg width="53" height="38" viewBox="0 0 53 38" fill="none" xmlns="http://www.w3.org/2000/svg">
<g opacity="0.3">
<path d="M-30.5547 21.5669C-27.0997 18.2853 -24.2764 14.5973 -19.737 12.3859C-17.7317 11.4106 -15.502 10.9331 -13.2304 10.8078C-11.7665 10.7276 -10.3805 10.9374 -8.99179 11.1674C-8.95366 11.1737 -8.91545 11.1803 -8.8774 11.1871C-8.04029 11.3225 -7.20319 11.4648 -6.34705 11.5494C-6.09592 11.5731 -5.75347 11.2582 -6.13778 11.2209C-7.15536 11.1198 -7.55103 9.94949 -6.60772 9.55468C-3.70864 8.34131 0.738255 9.8789 3.61832 10.1643C3.88848 10.1914 4.2043 9.84599 3.81999 9.80873C0.923908 9.52205 -3.23206 8.18057 -6.27396 9.06606C-8.15589 9.61388 -10.0761 10.5213 -12.0356 10.4725C-13.9495 10.4251 -15.8482 10.7163 -17.6594 11.2446C-21.609 12.3995 -24.7634 15.0376 -27.4422 17.7638C-34.8391 25.3023 -43.1075 32.2278 -54.6938 33.8466C-54.9868 33.8872 -55.1466 34.2259 -54.7585 34.1717C-45.147 32.8306 -37.0879 27.7711 -30.5547 21.5669Z" fill="white"/>
<path d="M1.08864 8.90458C0.940242 9.16195 1.51861 9.16195 1.63276 8.96215C3.01018 6.60509 6.34339 5.5688 9.04116 4.89826C12.7092 3.98389 16.7311 3.88568 20.0111 5.81602C20.1709 5.91085 20.4867 5.83634 20.5209 5.65008C21.0537 2.58524 26.1904 1.61329 29.0024 1.10869C30.5967 0.820834 32.2328 0.654892 33.8614 0.783582C35.4215 0.905499 36.8483 1.60991 37.8947 2.62588C38.1192 2.84262 39.5537 4.92197 38.0431 4.52235C36.6239 4.14645 35.0486 0.38058 33.3287 2.84262C32.8835 3.47929 32.9254 3.93309 33.6179 4.38012C34.0859 4.68152 34.6757 4.84408 35.1665 5.11162C35.6688 5.38593 35.9504 6.64573 34.9839 6.42899C34.6338 6.3511 34.2876 6.06663 34.0098 5.87021C33.3515 5.39948 33.1346 4.82376 32.2366 4.88472C31.4338 4.9389 31.1256 5.40964 31.2093 6.07002C31.2421 6.33726 31.3965 6.60965 31.5751 6.85862C31.7167 7.05603 31.6123 7.33645 31.3723 7.37399C31.2441 7.39402 31.1144 7.33511 31.0591 7.21777C30.9928 7.07717 30.9427 6.93238 30.9087 6.7812C30.8326 6.51704 30.7907 6.24273 30.7299 5.97519C30.5548 5.19289 29.9727 4.5867 29.0062 4.58331C28.2033 4.57993 27.4043 4.7628 27.0199 5.43673C26.8373 5.75845 27.1836 6.06663 27.4043 6.25966C27.2711 6.14113 25.5398 6.00567 25.1174 5.99213C24.3754 5.96842 23.8085 6.51366 23.6449 7.10292C23.5536 7.42464 23.9569 7.90554 24.2156 8.06132C24.6114 8.30177 24.5657 8.27806 25.0109 8.44739C23.0893 7.7125 22.8915 8.93505 22.218 7.35353C22.1191 7.12324 21.5521 7.26548 21.6472 7.48899C22.3892 9.23646 24.1966 9.75799 25.7909 8.47109C25.9431 8.34918 25.9013 8.20694 25.6996 8.16969C24.8213 8.01261 24.3897 7.76052 24.4042 7.41228C24.4426 6.48895 25.8077 6.45953 26.7155 6.63219C27.2216 6.72701 27.6554 6.69315 28.1386 6.54752C28.2566 6.51027 28.5115 6.33417 28.306 6.2258C27.0618 5.57558 29.2992 3.67571 30.0868 5.86005C30.1781 6.11404 30.2162 6.39174 30.2733 6.65251C30.3608 7.06905 30.4635 7.45512 30.7755 7.78023C31.2549 8.28483 32.1567 7.78362 32.6019 7.5364C32.678 7.49576 32.7427 7.37723 32.6742 7.3095C32.2595 6.89634 31.9551 6.46963 31.7762 5.93455C31.1827 4.19047 33.0433 5.73813 33.0623 5.75507C33.5912 6.21564 34.1696 6.66605 34.9002 6.82861C35.977 7.06905 36.5059 5.86682 36.0303 5.16242C35.9697 5.0762 36.0203 4.94223 36.1256 4.94514C37.5646 4.98497 38.9543 5.19317 39.9799 6.22919C40.4365 6.68976 40.5697 7.31289 40.4974 7.90215C40.4327 8.4203 39.8848 9.3516 39.3559 8.58285C39.2113 8.37288 38.671 8.57608 38.8384 8.81314C39.1466 9.26017 39.6869 9.49722 40.231 9.18905C40.9121 8.80298 41.1328 8.02745 41.0986 7.35014C41.0482 6.26539 40.3644 5.59359 39.4355 5.18113C39.2476 5.0977 39.2148 4.73189 39.3216 4.55622C40.1435 3.22868 37.1642 1.37623 36.2814 0.969843C34.3218 0.0588562 31.8942 0.319622 29.7976 0.614254C29.5187 0.653414 29.2178 0.697685 28.9003 0.74823C23.5709 1.59677 15.163 3.32222 9.86521 4.34952C9.70317 4.38094 9.54135 4.41375 9.37981 4.44785C6.37003 5.08114 2.60304 6.31046 1.08864 8.90458ZM35.3187 4.5359C35.2237 4.5359 35.1252 4.54421 35.0375 4.50751C34.7688 4.39507 34.499 4.29954 34.2876 4.20402C33.2031 3.70958 33.8195 1.90115 35.1247 2.5954C35.7068 2.90357 36.133 3.59782 36.5325 4.06855C36.6701 4.2318 36.5451 4.57386 36.3319 4.56299C35.9738 4.54473 35.6302 4.53776 35.3187 4.5359Z" fill="white"/>
<path d="M13.4343 8.55238C14.1991 6.91667 12.1596 6.18517 10.6414 6.11405C10.4321 6.10389 10.0326 6.37481 10.4169 6.39175C10.8984 6.41403 11.4228 6.5114 11.8736 6.69072C12.7586 7.04277 12.0468 7.60227 11.098 7.51947C11.0295 7.5127 10.4739 7.62784 10.6566 7.74976C11.0219 7.99359 11.1931 8.17308 11.3795 8.56592C11.5241 8.88088 11.4214 10.6622 10.1924 9.53448C9.80045 9.17551 9.89177 8.54222 9.54931 8.15615C9.05466 7.59737 8.3279 7.88861 7.73051 8.16292C7.59412 8.22829 7.7123 8.35589 7.83297 8.44708C8.11038 8.65672 8.21972 8.95936 8.15667 9.355C8.09579 9.82911 7.25107 10.5911 7.0494 9.79186C6.9733 9.49384 6.64607 9.04682 6.33406 8.92151C5.61872 8.63366 5.10884 8.80637 4.53047 9.24662C4.28315 9.43289 4.8501 9.42273 4.98327 9.32113C6.14 8.44401 6.56236 10.0831 6.56617 10.6351C6.56617 10.7401 6.83252 10.6995 6.88579 10.6893C7.66582 10.5234 8.96334 9.85282 8.75787 8.95877C8.70111 8.71277 8.70197 8.68045 8.64522 8.59573C8.566 8.47744 8.60955 8.31926 8.74195 8.26693C8.8273 8.23319 8.9264 8.25336 8.98175 8.32656C9.06748 8.43994 9.13134 8.56171 9.17642 8.69461C9.35906 9.12132 9.43516 9.5311 9.80045 9.86975C10.5842 10.5893 11.5117 10.101 11.8155 9.33271C11.9721 8.9367 12.5358 8.41848 12.8711 8.68107C13.0271 8.79282 13.3696 8.69461 13.4343 8.55238Z" fill="white"/>
<path d="M0.54849 12.6159C0.778272 12.4114 1.11874 12.3939 1.4005 12.5174C1.4599 12.5434 1.5219 12.5691 1.58726 12.5956C1.71663 12.6498 1.97157 12.5786 2.02484 12.4567C2.43959 11.4983 1.85362 10.9057 1.09642 10.225C0.925189 10.0692 0.384876 10.2724 0.575128 10.4417C0.980758 10.8082 1.45091 11.1857 1.5647 11.6849C1.60488 11.8612 1.40608 11.9628 1.25219 11.8679C1.23698 11.8585 1.22342 11.8472 1.2092 11.8364C1.07565 11.7349 0.846763 11.7949 0.731129 11.8946C0.495905 12.1039 0.148293 12.1266 -0.137547 11.9945C-0.345404 11.8984 -0.561835 11.8113 -0.779463 11.7049C-0.908834 11.6406 -1.38827 11.7049 -1.28553 11.9149C-0.700308 13.1101 -2.36864 12.438 -3.58836 11.9058C-3.9544 11.7461 -4.39173 11.6634 -4.90412 11.671C-5.21994 11.6744 -5.34931 12.03 -4.9612 12.0232C-3.4506 12.0029 -2.89507 12.9884 -2.72764 14.1297C-2.70862 14.2584 -2.48412 14.2415 -2.3928 14.2279C-1.48389 14.0778 -0.793971 13.622 -0.585922 12.9796C-0.494885 12.6984 -0.170285 12.4555 0.0462279 12.6565C0.183209 12.7818 0.426728 12.7277 0.54849 12.6159Z" fill="white"/>
<path d="M10.3072 11.7432C10.4708 11.8143 10.7447 11.7365 10.817 11.5874C10.9845 11.2386 10.8855 11.1269 10.6648 10.8153C10.5611 10.6702 10.0354 10.8237 10.1271 11.0038C10.1322 11.0139 10.141 11.0239 10.1485 11.0323C10.2595 11.1579 10.117 11.2995 9.95045 11.2818C9.41142 11.2244 8.87396 11.3272 8.32094 11.5062C8.19917 11.5468 8.04697 11.7263 8.26386 11.7602C8.76234 11.8335 8.0504 12.1563 7.59436 11.9421C7.12279 11.7206 6.54381 11.7373 5.90093 12.1225C5.58131 12.3156 6.06836 12.3968 6.25861 12.2851C7.35446 11.6315 7.94804 12.8439 8.15351 13.555C8.21059 13.7447 8.62534 13.5923 8.70524 13.4941C8.80938 13.3614 8.92872 13.1509 9.02202 12.9149C9.22487 12.4017 9.80161 11.5221 10.3072 11.7432Z" fill="white"/>
<path d="M39.7475 32.2574C35.5886 31.5928 31.4985 31.4577 27.7971 29.3944C24.2294 27.4041 22.6541 23.8253 23.4074 20.188C24.0644 17.0091 26.5637 13.9191 30.0079 12.9439C30.7437 12.7356 31.6015 13.5981 32.3408 13.7936C32.4744 13.8264 32.8834 13.7753 32.8915 13.6073C32.9239 12.866 35.2403 12.1904 33.8432 13.4612C33.4301 13.8374 33.2439 14.0675 33.1264 14.6079C33.0456 14.9965 33.8705 14.4854 34.2592 14.5656C34.449 14.6048 34.5458 14.7048 34.5497 14.866C34.5576 15.1935 34.3898 15.5296 34.1371 15.7382C33.6645 16.1287 32.7921 15.9234 32.272 15.897C32.033 15.8861 31.7698 15.9336 31.543 16.0103C30.9518 16.2111 29.9029 17.2774 30.559 17.8581C31.4881 18.6779 32.4247 18.3999 33.2896 17.8093C33.9993 17.3248 35.9825 17.6759 36.7103 17.219C36.8197 17.1496 36.929 16.9963 36.9249 16.8904C36.9193 16.6632 36.9246 16.4584 36.9467 16.2667C37.0527 15.3491 38.5643 15.4458 37.7754 15.9263C37.6093 16.0577 37.4716 16.2075 37.3623 16.3754C37.1396 16.6639 37.4716 17.1095 37.6215 17.3468C38.1803 18.2342 39.6544 17.1095 39.9662 16.6493C40.5413 15.8057 40.8895 14.911 40.2051 14.0419C40.1961 14.0304 40.1869 14.019 40.1776 14.0077C39.4088 13.0735 40.3461 12.4836 40.8328 11.376C41.2135 10.5178 39.9014 9.98832 39.2737 9.73269C38.3545 9.3602 37.8685 9.11187 37.5648 8.19525C37.1517 6.94266 39.2656 6.36201 39.3912 7.72051C39.4033 7.84467 40.0148 7.73877 39.9986 7.57443C39.8528 6.01509 38.1925 6.03334 37.2449 7.06682C36.6293 7.73877 36.9695 8.73208 37.5 9.33098C37.7713 9.63409 38.4071 9.81303 38.7797 9.9591C39.3547 10.1855 39.7961 10.3718 40.1484 10.8538C40.5858 11.4527 39.047 12.1575 38.885 11.2227C38.8566 11.0693 38.3666 11.2446 38.3059 11.3103C37.1274 12.5629 38.2451 13.107 39.3507 13.9652C40.4603 14.827 39.9095 16.1052 39.1482 16.989C38.3747 17.8873 37.7065 16.4886 38.3302 15.9007C38.6096 15.6378 38.7797 15.4479 38.8647 15.0827C39.0712 14.2281 37.824 14.3633 37.3907 14.5751C37.0464 14.7394 36.4552 15.415 36.3297 15.7437C36.2196 16.0332 36.2088 16.0146 36.224 16.1704C36.2385 16.3179 36.3049 16.4803 36.3224 16.6274C36.3792 17.1066 35.6701 16.3082 35.8547 15.8624C35.8835 15.7927 35.9163 15.7239 35.953 15.656C36.0219 15.5063 35.5197 15.6305 35.4752 15.6524C34.9568 15.9043 34.6612 16.1344 34.2725 16.5544C34.074 16.7991 33.8715 17.0401 33.6569 17.2738C31.2798 19.9616 29.7855 15.8459 32.762 16.2257C33.2682 16.2914 33.989 16.3024 34.3939 15.9409C34.7165 15.6519 34.9101 15.3722 34.9988 15.1238C35.2568 14.4015 34.525 13.3329 35.1917 12.9536C35.2322 12.9281 35.2889 12.8806 35.2403 12.8368C35.2312 12.8286 35.2221 12.8205 35.213 12.8125C34.0472 11.7891 33.463 11.1417 32.438 9.97736C31.7657 9.21412 30.9923 8.92562 29.9758 9.20682C29.1214 9.44419 28.8419 10.2293 29.1618 10.9086C29.2266 11.0437 29.4858 11.3286 29.583 11.4418C30.3281 12.3073 28.927 12.2379 28.5301 11.5988C28.1211 10.9415 28.2142 10.0139 28.5625 9.3675C28.5763 9.33032 28.5306 9.30407 28.4989 9.28034C27.6582 8.6518 26.5612 8.37729 26.0922 9.50627C25.8452 10.0979 25.8979 10.8319 25.8938 11.4491C25.8857 12.2488 24.8409 10.7443 24.7113 10.5398C24.4846 10.1855 24.0067 9.87876 23.6827 9.58296C23.0834 9.04248 21.7713 9.33829 21.0788 9.46975C19.4914 9.76921 18.151 8.61156 16.5797 8.97675C15.624 9.19952 14.8789 9.55375 14.2107 10.2293C14.023 10.4185 13.9257 10.6185 13.8746 10.8311C13.7871 11.1954 13.8225 11.5981 14.0366 11.9056C13.1983 10.9999 13.4251 12.5191 12.9432 11.3541C12.8824 11.2117 12.4289 11.3541 12.3641 11.4418C10.8212 13.4649 13.2104 13.5489 14.6805 14.4947C15.7131 15.1594 15.3405 16.2403 14.0892 15.6743C13.4372 15.3785 13.4453 14.7211 13.1052 14.2208C12.9108 13.9323 12.3155 14.0346 12.0442 14.1478C11.2059 14.4947 11.295 14.911 11.6999 15.6597C11.8052 15.813 11.8781 15.9774 11.9186 16.1563C12.4167 17.7485 11.3719 16.0029 10.4972 16.7589C10.8536 16.4521 10.7199 15.9226 10.6066 15.572C10.1449 14.1405 8.22133 14.8855 7.87307 15.8642C7.81232 16.0796 7.75158 16.2951 7.68678 16.5106C7.65615 16.6689 7.59899 16.7946 7.51538 16.8876C6.85908 17.6173 6.10554 16.3103 5.96975 15.3383C5.89281 14.7978 5.09099 14.4071 4.53214 14.4911C3.9409 14.5787 3.66552 14.7869 3.3942 15.2689C3.18362 15.6414 3.58453 16.3974 3.15122 16.2659C2.53973 16.0796 1.96469 15.7218 1.41394 15.4333C0.442038 14.922 -0.890285 14.0711 -2.00393 14.7321C-2.52633 15.0389 -2.36029 15.9847 -2.22666 16.3973C-2.10922 16.7516 -1.66781 17.0766 -1.40459 17.3322C-0.903282 17.7612 -1.07512 17.9625 -1.92009 17.9349C-2.87077 17.9039 -3.94832 17.4601 -3.80182 16.5202C-3.767 16.2969 -3.7068 16.0852 -3.65617 15.919C-3.60352 15.7437 -4.13403 15.9153 -4.19072 15.9445C-4.76171 16.2513 -5.13833 16.5872 -5.13428 17.2409C-5.13023 17.6244 -5.10188 18.0042 -5.08163 18.384C-5.02494 19.3481 -6.18718 19.9068 -6.68933 18.9464C-7.21577 17.9421 -6.88775 17.3103 -8.4509 17.4016C-8.92471 17.4308 -9.38232 17.6463 -9.79943 17.8325C-10.3785 18.0918 -12.213 17.9019 -10.7187 16.9232C-10.5931 16.8429 -10.2773 16.6932 -10.2084 16.5434C-9.98976 16.0614 -10.8321 14.9037 -11.0912 14.5166C-11.4517 13.9798 -12.2818 13.4284 -12.9986 13.3809C-15.7564 13.1874 -19.7817 14.4363 -21.3854 16.5836C-24.2768 20.4546 -26.986 25.8593 -26.4312 30.6214C-26.415 30.7492 -25.8075 30.6396 -25.8237 30.4753C-26.3583 25.8886 -23.7908 21.0279 -21.2679 17.1715C-19.8101 14.9403 -17.5585 14.4071 -14.9222 13.7753C-12.8488 13.2787 -11.9093 14.1989 -11.0872 15.6597C-10.905 15.9847 -10.7713 16.6457 -11.1844 16.8904C-11.2978 16.9597 -11.727 17.2154 -11.7473 17.3687C-11.8445 18.1429 -11.3464 18.5483 -10.5527 18.3949C-10.1558 18.3182 -9.78728 18.1064 -9.43496 17.9348C-7.40206 16.9524 -7.63289 18.4424 -7.17123 19.3225C-6.88776 19.863 -6.17097 19.9616 -5.61618 19.7059C-4.95187 19.4001 -2.5808 18.3474 -1.84958 18.3355C-1.81219 18.3349 -1.77454 18.334 -1.73666 18.3328C-1.38839 18.3219 0.0168266 18.1466 -0.473177 17.5331C-1.00368 16.8757 -1.64351 16.485 -1.7326 15.6195C-1.89054 14.0528 0.195005 15.2908 0.851042 15.6305C1.69336 16.0687 2.71792 16.7991 3.75462 16.569C3.78396 16.5624 3.84736 16.546 3.90606 16.5213C4.02162 16.4726 4.00467 16.3376 3.97271 16.2164C3.8013 15.5659 4.38336 14.729 5.00304 14.9907C5.18068 15.0657 5.30584 15.2327 5.37851 15.4917C5.52024 15.8532 5.4271 16.3462 5.43925 16.726C5.46354 17.4016 5.98595 17.6317 6.67033 17.5988C7.23323 17.5733 7.62604 17.4126 7.9986 17.0437C8.23753 16.81 8.31042 16.3973 8.39952 16.1052C8.49124 15.7362 8.86609 15.5299 9.24101 15.5934C9.32081 15.607 9.40061 15.6205 9.48041 15.634C9.82006 15.6916 10.1668 15.907 10.143 16.2506C10.1224 16.5497 9.93943 16.8366 9.59415 17.1131C9.55816 17.1391 9.57553 17.1922 9.59931 17.2297C10.0765 17.9815 12.2568 18.7881 12.6516 17.4673C12.8703 16.7406 12.5018 15.8532 12.1495 15.1959C11.7971 14.5385 12.6395 14.4765 12.8703 15.1776C13.0242 15.6451 13.4291 15.8277 13.8867 16.0358C14.2188 16.1855 16.11 16.5471 16.0087 15.6852C15.9141 14.8901 15.2573 14.4189 14.5389 14.032C13.421 13.4298 14.2202 13.1842 15.2636 12.4606C15.3 12.4351 15.3648 12.3876 15.3122 12.3438C12.8824 10.4777 16.3165 8.78685 18.5802 9.51358C19.1431 9.69252 19.7911 9.90067 20.4026 9.80573C22.1722 9.52818 23.3993 9.57201 24.2902 10.967C24.517 11.3213 24.687 11.8435 25.177 11.9786C25.5051 12.0662 26.3838 11.9348 26.4972 11.5988C26.5863 11.3286 26.5175 10.9488 26.5215 10.6712C26.5296 10.3352 26.5701 9.99927 26.6349 9.66695C26.7847 8.89276 28.1414 9.15569 27.8295 9.73269C27.0561 11.1788 28.8298 13.7132 30.4577 12.1502C30.6724 11.9457 30.5023 11.6718 30.3484 11.4929C30.3306 11.4721 30.3128 11.4513 30.2951 11.4307C29.8761 10.9414 30.0779 10.2581 30.6462 9.95489C31.0298 9.75013 31.5213 9.74624 31.7906 10.0877C31.8934 10.218 31.9795 10.3615 32.0492 10.5178C32.6013 11.4999 31.0314 12.2635 29.9422 12.5513C23.9074 14.1455 20.8709 21.3914 23.784 26.3852C25.6792 29.6317 29.8219 31.2422 33.6164 31.9068C37.9293 32.6628 43.9024 32.3268 46.9558 35.7157C47.1381 35.9166 47.7131 35.6938 47.5106 35.4711C45.6276 33.353 42.5377 32.7029 39.7475 32.2574Z" fill="white"/>
<path d="M46.1113 33.0734C45.9096 33.0192 45.4378 33.2834 45.7688 33.3714C47.6371 33.8727 50.0152 35.0715 50.1104 37.0222C50.118 37.2084 50.6887 37.1 50.6811 36.8867C50.5822 34.848 48.0556 33.595 46.1113 33.0734Z" fill="white"/>
<path d="M52.0122 37.0313C49.5007 38.6681 47.0266 36.3358 44.6694 35.6987C43.3037 35.3322 41.7604 35.782 40.4321 36.0402C37.6914 36.5691 37.4436 32.8792 34.3942 33.1832C33.7862 33.2457 33.5945 33.2707 33.0098 33.4164C30.8959 33.9412 30.8351 33.6871 29.9044 32.621C28.8941 31.459 27.8886 31.3299 26.3172 31.484C22.3886 31.8713 19.1241 35.607 15.1066 34.5909C14.4328 34.4217 13.8112 34.1694 13.2145 33.8958C13.0368 33.8144 13.1179 33.3833 12.9412 33.2998C9.32126 31.5673 6.71621 28.1606 6.41221 24.4916C6.39351 24.2375 5.68729 24.3833 5.71067 24.6582C5.87114 26.621 6.69079 28.513 7.96665 30.1224C8.2433 30.4713 7.41896 32.4314 6.99215 32.5585C6.35141 32.7501 5.73406 33.0166 5.10267 33.2332C2.14686 34.2452 2.53037 32.5335 3.3956 31.4257C3.75573 30.9635 4.27954 30.1222 3.41899 29.7849C2.60053 29.4642 1.6137 29.2726 0.739117 29.5725C0.205948 29.7557 -0.252392 29.9806 -0.734116 30.2555C-3.39528 31.7714 -2.67503 29.9473 -4.181 29.4975C-4.46132 29.4143 -4.71198 29.2357 -4.80947 28.9601C-5.23683 27.7516 -5.34189 26.493 -5.35023 25.2079C-5.35023 25.0705 -6.05177 25.1746 -6.05177 25.3745C-6.04459 26.4264 -5.97125 27.4611 -5.71112 28.4636C-5.59414 28.9145 -5.898 29.4021 -6.35753 29.4783C-6.76238 29.5453 -7.12876 29.2392 -7.13583 28.8289C-7.1667 27.0371 -7.16302 25.3087 -6.33239 23.5962C-6.17805 23.2755 -6.87958 23.2922 -7.00118 23.5337C-7.83035 25.2423 -7.86702 26.9692 -7.84284 28.7615C-7.83603 29.2665 -8.23538 29.6995 -8.73164 29.6058C-10.724 29.2226 -8.83453 27.5818 -8.89533 26.4948C-8.89533 26.4531 -8.99355 26.4406 -9.02161 26.4406C-9.39576 26.4365 -9.72783 26.5156 -10.0879 26.6072C-10.3017 26.6613 -10.5398 26.7327 -10.7876 26.7988C-11.7851 27.0651 -12.4162 25.7569 -11.3837 25.7564C-11.2737 25.7564 -11.1505 25.7638 -11.0408 25.7567C-10.9245 25.7492 -10.809 25.7398 -10.6913 25.7285C-10.0739 25.6244 -8.53989 24.8248 -9.44721 24.1293C-10.3873 23.4088 -11.8465 23.6462 -12.9035 24.0168C-13.3665 24.1792 -13.8295 24.5207 -14.082 24.8997C-14.1203 24.9576 -14.1579 25.0158 -14.195 25.0741C-14.5688 25.6612 -15.8657 26.8611 -15.4365 26.3132C-15.2844 26.1191 -15.0561 25.8785 -14.8881 25.6981C-14.7413 25.5404 -14.5782 25.3958 -14.4001 25.2662C-14.372 25.2454 -14.3486 25.1954 -14.3907 25.1704C-16.3971 24.071 -17.8937 24.9539 -18.8338 26.6947C-19.1461 27.2762 -19.3946 27.8805 -19.6367 28.487C-19.7182 28.6915 -20.3816 28.7901 -20.5704 28.6769C-20.6185 28.6481 -20.6662 28.5964 -20.6804 28.5421C-21.1275 26.8378 -21.1847 25.129 -20.8074 23.388C-20.7466 23.1131 -21.4575 23.2047 -21.5137 23.4504C-21.8015 24.7683 -21.8418 26.0681 -21.6576 27.362C-21.5807 27.902 -21.9795 28.4138 -22.515 28.5176C-23.1073 28.6324 -23.7146 28.2122 -23.6833 27.6098C-23.6427 26.8294 -23.534 26.0539 -23.2441 25.312C-23.1178 24.983 -23.8147 25.0122 -23.9082 25.2579C-24.3958 26.5108 -24.4131 27.8211 -24.4133 29.1319C-24.4133 29.1493 -24.4218 29.1648 -24.4372 29.1728C-24.463 29.1863 -24.4949 29.172 -24.5022 29.1439C-25.0513 26.9992 -24.601 24.7874 -23.5528 22.8049C-23.4593 22.63 -24.1514 22.6966 -24.2497 22.8882C-25.3277 24.926 -25.7677 27.2062 -25.1776 29.4027C-25.1526 29.4959 -25.192 29.5922 -25.2739 29.6433C-25.9053 30.0556 -26.3449 30.7052 -26.7845 31.2675C-27.5562 32.2628 -28.2624 33.4581 -30.1519 33C-30.802 32.8417 -31.4007 32.4627 -32.0788 32.3836C-32.8645 32.2961 -33.6315 32.3045 -34.3986 32.521C-34.9253 32.6703 -35.4319 32.8302 -35.9305 32.9851C-38.0877 33.655 -39.4185 31.1064 -38.3693 29.106C-38.2804 28.9394 -38.9679 29.0061 -39.0661 29.1935C-40.1699 31.3008 -41.8816 35.1614 -45.0198 35.1531C-45.263 35.1531 -45.7728 35.4779 -45.3004 35.4779C-45.2539 35.4781 -45.2077 35.4776 -45.1618 35.4766C-42.7199 35.421 -40.2618 34.3828 -37.8793 33.8445C-37.1446 33.6786 -36.4033 33.4407 -35.6005 33.1416C-32.5886 32.0213 -31.8403 33.3165 -29.4176 33.4414C-29.2924 33.4492 -29.1509 33.7194 -29.2273 33.819C-29.6038 34.3092 -29.9717 34.8893 -30.7178 34.6242C-31.3632 34.3951 -31.9525 33.9495 -32.6775 33.9287C-34.4266 33.8745 -35.7595 34.7616 -37.0644 35.6945C-37.3778 35.9194 -36.6762 35.9235 -36.5032 35.7986C-35.0861 34.7824 -33.4211 33.9204 -31.5924 34.7866C-31.1294 35.0073 -30.7459 35.1406 -30.2314 35.0615C-29.9415 35.0157 -29.586 34.9074 -29.3709 34.7158C-29.1698 34.5367 -29.0856 34.4493 -28.9079 34.2494C-28.6742 33.9452 -28.3123 33.7601 -27.9289 33.7705C-27.0467 33.7943 -26.8231 33.9726 -27.2568 34.3054C-27.678 34.6286 -28.7559 35.0703 -28.225 35.0656C-27.3504 35.0615 -26.242 34.8241 -26.3449 33.8579C-26.3772 33.5382 -26.7471 31.9792 -26.5403 31.7333C-26.0695 31.1737 -25.6439 30.5733 -25.1095 30.0631C-24.994 29.9529 -24.8286 29.9142 -24.6726 29.8803C-24.4915 29.8409 -24.3226 29.7457 -24.3572 29.6391C-24.383 29.555 -24.3495 29.4643 -24.2742 29.419C-24.2645 29.4132 -24.2548 29.4075 -24.2451 29.4017C-24.2026 29.3768 -24.1532 29.3678 -24.104 29.3655C-24.0656 29.3637 -24.0268 29.3583 -23.9893 29.3496C-23.7732 29.2998 -23.5969 29.0881 -23.3906 29.0068C-22.9496 28.8332 -22.4454 28.6737 -21.9964 28.659C-21.5926 28.6458 -21.3191 28.992 -21.1956 29.3767C-21.1233 29.6021 -20.784 29.7115 -20.9872 29.8328C-21.0339 29.8606 -21.0883 29.8912 -21.1489 29.9306C-21.7194 30.2929 -22.2573 30.6886 -22.7437 31.1384C-24.0813 32.3711 -20.9618 31.9172 -20.2462 31.0467C-19.4231 30.0514 -19.0723 28.7104 -18.5999 27.5693C-18.3053 26.8613 -17.9685 26.1658 -17.4775 25.5452C-16.9537 24.8831 -16.1492 24.8789 -15.429 25.1871C-14.9379 25.3953 -16.3363 26.5989 -16.4953 26.7322C-16.5842 26.8071 -16.4719 26.8446 -16.4018 26.8529C-15.6161 26.9362 -14.7649 26.8613 -14.2925 26.1991C-13.5769 25.1996 -11.3273 22.2593 -10.0038 24.5416C-9.41915 25.5536 -11.8979 25.5078 -12.4638 25.641C-13.2683 25.8326 -13.764 26.4198 -13.1934 27.0862C-12.6088 27.7692 -9.44721 26.374 -9.653 27.3194C-9.80733 28.044 -11.2806 29.2476 -9.8354 29.6932C-9.29329 29.8587 -8.73195 30.0214 -8.15668 30.0228C-7.93231 30.0234 -7.68008 30.1178 -7.45809 30.0852C-7.21275 30.0492 -6.98319 29.8398 -6.74113 29.786C-6.42217 29.7152 -6.1002 29.6538 -5.77723 29.6416C-5.4789 29.6303 -5.23249 29.8332 -5.093 30.0972C-5.02252 30.2301 -4.6213 30.1438 -4.45941 30.0354C-4.4286 30.0148 -4.38488 30.0058 -4.35405 30.0264C-3.99393 30.268 -3.75072 30.7802 -3.25497 30.8593C-2.06236 31.0467 -1.22987 30.8468 -0.200947 30.2846C0.191914 30.0681 3.68557 29.1851 3.09161 30.9135C2.98871 31.2092 2.66601 31.5423 2.49296 31.7672C2.24976 32.0837 1.66047 32.7209 2.02059 33.1332C2.7268 33.9495 3.83523 33.8371 4.84077 33.5372C6.51043 33.0416 7.67498 32.317 9.60655 32.7043C11.1265 33.0083 12.4267 34.0994 13.8672 34.6034C18.7827 36.3234 21.9536 32.1462 26.6586 31.6798C29.1607 31.4341 29.3151 34.1119 31.7471 33.9537C33.0239 33.8704 34.1697 33.2915 35.5026 33.5955C36.4287 33.8079 37.2378 35.2156 37.8224 35.8028C38.5426 36.5274 38.8794 36.5857 39.9036 36.3692C42.2842 35.8611 44.3046 35.7778 46.5495 36.8814C47.4849 37.3437 48.4717 37.8851 49.5614 37.9642C50.7354 38.0517 51.6193 37.6519 52.536 37.0563C52.8493 36.8773 52.1478 36.9439 52.0122 37.0313ZM-20.5689 30.6136C-20.7081 30.8715 -20.8866 31.1105 -21.0898 31.3329C-21.1849 31.437 -21.3221 31.4906 -21.4631 31.4874C-21.5123 31.4863 -21.5615 31.4852 -21.6107 31.484C-21.9458 31.4762 -22.1252 31.1116 -21.8644 30.901C-21.3874 30.4637 -20.8028 30.0972 -20.2415 29.7515C-20.214 29.7331 -20.1603 29.7738 -20.1738 29.8041C-20.2965 30.0798 -20.4246 30.3496 -20.5689 30.6136Z" fill="white"/>
<path d="M31.9242 35.717C31.616 35.9913 31.3001 36.252 30.9729 36.5094C29.2682 37.8471 28.8839 36.7905 28.2713 36.0285C27.9289 35.6018 27.1793 35.2733 26.5857 35.3173C25.8475 35.3715 25.2844 35.6255 24.668 35.9845C24.5728 36.0387 22.735 37.1088 23.0622 36.0895C23.2601 35.4765 23.2449 35.1548 23.0052 34.5283C22.9709 34.4436 22.8377 34.4504 22.7578 34.4538C19.1354 34.6434 15.8897 36.5907 12.2103 35.8795C10.8062 35.6086 9.581 34.6807 8.13889 34.552C6.52936 34.4097 4.94266 35.3817 3.39401 35.1819C2.22206 35.0295 1.20612 34.5317 -0.0152931 34.6637C-0.787714 34.7484 -1.0769 34.6265 -1.58677 34.1896C-1.77702 34.0271 -1.95586 33.8577 -2.24124 33.8476C-2.97181 33.8205 -3.56159 34.0982 -4.18561 34.4131C-5.27766 34.9651 -6.86435 35.1683 -6.71976 33.7189C-6.6703 33.2278 -6.65127 32.7977 -6.74259 32.3101C-6.7502 32.266 -6.81489 32.2491 -6.85294 32.239C-7.69765 32.0662 -8.3407 32.1882 -9.02942 32.6487C-9.39665 32.8939 -9.69242 33.2375 -10.0064 33.547C-10.1753 33.7134 -10.416 33.7773 -10.6498 33.7379C-10.7651 33.7185 -10.8806 33.699 -10.996 33.6796C-11.3368 33.6222 -11.5341 33.2553 -11.4875 32.9129C-11.4532 32.7334 -11.4951 32.5945 -11.5407 32.4252C-11.9174 30.9758 -16.0383 32.835 -16.708 33.0856C-17.0733 33.2244 -16.7384 33.3938 -16.4835 33.2956C-15.8176 33.045 -15.1517 32.7876 -14.4744 32.5641C-13.9227 32.3812 -12.5377 31.8969 -12.1115 32.5607C-11.8528 32.9671 -12.2637 33.6782 -12.4273 34.0406C-12.4463 34.0779 -12.4045 34.1185 -12.3702 34.132C-11.556 34.4368 -10.8787 34.4707 -10.1062 34.0745C-9.73715 33.8848 -9.45177 33.5529 -9.17401 33.2719C-9.02561 33.1228 -7.48457 31.5684 -7.25247 32.7944C-7.17637 33.194 -7.2829 33.6816 -7.32476 34.0914C-7.4275 35.1142 -6.70835 35.3106 -5.70001 35.3207C-4.41772 35.3309 -2.45812 33.028 -1.81127 35.1277C-1.78463 35.209 -1.63624 35.2124 -1.56394 35.2022C-0.270233 34.999 0.878891 34.911 2.1726 35.2293C2.78521 35.3817 3.32933 35.568 3.97619 35.4934C5.19761 35.358 6.28204 34.8195 7.5415 34.806C8.76673 34.7924 10.0795 35.6018 11.1981 35.9777C12.6669 36.4688 14.3715 36.4857 15.8859 36.1708C16.9095 35.9574 17.9026 35.6695 18.9033 35.3851C20.2085 35.0159 24.0401 33.9051 22.1909 36.5704C22.1528 36.6246 22.1719 36.6652 22.2289 36.6991C24.3559 37.8742 26.2166 34.0034 28.1191 36.7329C29.2873 38.4127 31.4295 36.6415 32.3808 35.8016C32.6205 35.5917 32.0573 35.5984 31.9242 35.717Z" fill="white"/>
<path d="M22.1912 13.7137C19.014 16.8395 18.4432 21.9363 22.1912 24.8961C22.3396 25.0147 22.8723 24.8182 22.7201 24.6997C19.033 21.7873 19.5961 16.7955 22.7201 13.7238C22.8837 13.5613 22.3129 13.5951 22.1912 13.7137Z" fill="white"/>
<path d="M20.098 25.3659C21.875 27.574 23.2676 29.7143 26.0871 30.6083C26.6845 30.886 27.3352 31.0926 28.0467 31.2111C28.1989 31.2382 28.7126 31.0181 28.4044 30.9673C28.2445 30.9392 28.0886 30.9076 27.9351 30.8717C27.8115 30.8428 27.7343 30.606 27.6091 30.5846C27.3328 30.5369 27.0699 30.4783 26.818 30.4097C26.4025 30.2967 26.0055 30.1209 25.6473 29.8821C24.7317 29.2715 23.9836 28.4614 23.4008 27.5232C23.3056 27.3708 22.7615 27.5469 22.83 27.6586C22.8701 27.7236 22.7771 27.8001 22.726 27.7434C22.005 26.9433 21.3493 26.05 20.6269 25.1526C20.4899 24.99 19.942 25.1729 20.098 25.3659Z" fill="white"/>
<path d="M16.6394 28.7843C16.4471 28.5942 16.0638 28.6621 15.9446 28.4194C15.6574 27.8341 15.4192 27.2174 15.2125 26.5898C15.1592 26.434 14.5923 26.5729 14.6417 26.7253C15.437 29.1365 16.6698 31.3615 19.4132 32.3707C19.5654 32.4282 20.0867 32.2217 19.8736 32.1438C19.2755 31.9246 19.5394 31.6642 20.1557 31.8249C20.2557 31.851 20.3569 31.8738 20.4596 31.8932C20.5966 31.9203 21.0951 31.7238 20.9276 31.69C20.8793 31.6812 20.8313 31.6713 20.7835 31.6604C20.6762 31.636 20.7795 31.4266 20.6993 31.3513C20.0182 30.7451 19.3714 30.1321 18.8805 29.3905C18.7892 29.2516 18.2527 29.4379 18.3098 29.5259C18.5866 29.9452 18.2818 30.3382 17.9066 30.004C17.455 29.6017 17.0352 29.1771 16.6394 28.7843Z" fill="white"/>
<path d="M10.1965 20.8788C10.1807 20.8915 10.1573 20.8811 10.1568 20.8608C10.1465 20.3872 10.4118 19.9803 10.5774 19.5513C10.6877 19.2634 10.8628 18.9925 10.9959 18.7114C11.1306 18.4238 10.7632 18.3879 10.5875 18.6524C10.5471 18.7133 10.5092 18.7744 10.4747 18.8367C10.3415 19.0704 10.1893 19.2532 9.90771 19.365C9.77834 19.4192 9.66799 19.5817 9.61852 19.7138C9.47774 20.0965 9.3712 20.4893 9.24944 20.8788C9.21926 20.9728 9.07327 20.9517 9.04789 20.8563C8.99713 20.6655 9.01843 20.4926 9.04396 20.3234C9.11246 19.8933 9.04777 19.4869 8.83088 19.1008C8.72434 18.9078 8.72814 18.7249 8.8461 18.5421C8.93214 18.4108 8.99585 18.2795 8.94503 18.125C8.92092 18.0517 8.857 18.0178 8.78174 18.0348C8.64933 18.0648 8.51036 17.9512 8.53929 17.8186C8.54728 17.7819 8.55525 17.7455 8.56326 17.7089C8.60463 17.5199 8.42187 17.366 8.29634 17.5132C8.17763 17.6525 8.12042 17.8262 8.0471 17.9893C7.94965 18.2061 7.70361 18.1774 7.50673 18.0442C7.35453 17.9426 7.1833 18.0205 7.1833 18.1932C7.1833 18.3152 7.21755 18.4438 7.2594 18.5624C7.36214 18.8367 7.4801 18.8672 7.73884 18.6911C8.00012 18.5139 8.44379 18.7051 8.14702 18.8127C8.12687 18.82 8.10496 18.8269 8.08129 18.8333C7.93289 18.8706 7.77308 18.8943 7.61708 18.9078C7.26701 18.9383 7.03871 19.0704 6.94358 19.3955C6.86748 19.663 6.71909 19.917 6.63157 20.1812C6.23966 21.3834 6.03038 22.6093 6.00755 23.859C5.99907 24.1456 5.65796 24.1365 5.5563 23.8683C5.50747 23.7395 5.48598 23.6015 5.47865 23.4627C5.45582 22.9615 5.42538 22.4535 5.47104 21.9523C5.53953 21.187 5.66129 20.425 5.77544 19.663C5.80969 19.4293 5.8972 19.2024 5.9695 18.9755C6.04707 18.7182 5.71659 18.7347 5.54097 18.9382C5.39744 19.1045 5.26648 19.2795 5.16663 19.4835C4.86984 20.0931 4.80515 20.7535 4.57685 21.38C4.55943 21.4265 4.542 21.4711 4.52627 21.5167C4.51771 21.5415 4.4921 21.5574 4.46614 21.5535C4.43613 21.5489 4.41569 21.5216 4.41859 21.4914C4.43863 21.2822 4.45403 21.0709 4.48553 20.8652C4.50456 20.7128 4.56163 20.5638 4.57305 20.4114C4.58066 20.2895 4.59968 20.1202 4.52358 20.0491C4.35604 19.8906 4.29116 19.7066 4.2484 19.5023C4.21696 19.3522 4.05918 19.2806 3.90821 19.2536C3.89515 19.2513 3.88237 19.2482 3.86988 19.2443C3.71697 19.1967 3.51385 19.136 3.41251 19.26C3.34022 19.3481 3.29075 19.47 3.19563 19.5242C2.80371 19.7443 2.63248 20.0728 2.53735 20.4521C2.47326 20.7183 2.15524 20.5373 2.20098 20.2673C2.25772 19.9324 2.45033 19.6254 2.5865 19.3054C2.6944 19.0518 2.47549 18.8556 2.3433 19.0975C2.08456 19.575 1.84104 20.0592 1.58229 20.5334C1.42062 20.8322 1.07286 20.8085 1.11194 20.471C1.11707 20.4268 1.11924 20.3833 1.11427 20.3403C1.09699 20.1843 1.05565 20.031 1.01004 19.8659C0.974617 19.7376 0.813183 19.6897 0.71188 19.776C0.675508 19.807 0.630867 19.8199 0.583281 19.8155C0.546097 19.8122 0.508993 19.8087 0.471794 19.8052C0.195589 19.779 0.0710182 19.5113 0.33997 19.4432C0.371134 19.4353 0.401323 19.4287 0.429369 19.4226C0.912607 19.3142 0.790848 18.8773 1.03056 18.6437C1.03817 18.6369 1.03437 18.6098 1.02676 18.603C0.821289 18.4608 0.627234 18.3016 0.402737 18.1899C0.23151 18.1052 0.0526714 18.1966 -0.0500641 18.3287C-0.369686 18.7419 -0.693117 19.155 -0.974689 19.5885C-1.24104 19.9949 -1.45412 20.4284 -1.69384 20.8483C-1.72613 20.9058 -1.82501 20.8714 -1.86146 20.8165C-1.95242 20.6795 -1.89312 20.5286 -1.82321 20.4013C-1.59491 19.9915 -1.33617 19.5953 -1.08884 19.1957C-1.02796 19.0975 -0.963272 18.9992 -0.91761 18.8976C-0.601793 18.2203 -0.16041 17.6175 0.395124 17.0757C0.559814 16.9123 0.290192 16.7328 0.145969 16.9144C0.0860233 16.9899 0.0321541 17.0707 -0.0424576 17.1299C-0.197138 17.2507 -0.330866 17.3901 -0.47406 17.5328C-0.529108 17.5876 -0.614515 17.622 -0.685503 17.5904C-1.09645 17.3872 -1.18777 17.4042 -1.49598 17.6886C-2.13903 18.2745 -2.63368 18.9552 -3.03702 19.6833C-3.43274 20.3945 -3.82466 21.1057 -4.17472 21.8338C-4.34976 22.1996 -4.41824 22.6059 -4.54381 22.9886C-4.62526 23.2351 -4.71509 23.4791 -4.8085 23.7376C-4.83228 23.8034 -4.94861 23.8483 -4.97341 23.7829C-4.97539 23.7777 -4.97333 23.7783 -4.97245 23.7728C-4.84762 22.9932 -4.76301 22.2072 -4.34214 21.485C-4.31215 21.4337 -4.28724 21.38 -4.26566 21.3238C-4.19737 21.1462 -4.46268 21.0106 -4.59221 21.15C-4.6536 21.2161 -4.76096 21.2278 -4.80413 21.1486C-4.86987 21.028 -4.79121 20.908 -4.73026 20.784C-4.63894 20.5943 -4.54761 20.4013 -4.47912 20.2015C-4.40078 19.9714 -4.78777 20.0358 -4.92622 20.2356C-5.0534 20.4192 -5.15682 20.6217 -5.27921 20.82C-5.43102 21.0658 -5.77227 20.9871 -5.62824 20.7366C-5.4456 20.4148 -5.23633 20.1033 -5.04607 19.7815C-4.94334 19.6088 -4.84821 19.4327 -4.7607 19.2532C-4.71288 19.1557 -4.70053 19.0647 -4.72858 18.9767C-4.78326 18.8053 -5.03992 18.7706 -5.16023 18.9044C-5.63586 19.4226 -6.11148 19.9407 -6.5757 20.4656C-6.75834 20.6756 -6.90293 20.8923 -7.23777 20.9567C-7.52696 21.0109 -7.59925 21.292 -7.7096 21.4985C-7.85419 21.7593 -7.93029 22.0505 -8.05966 22.3181C-8.15076 22.499 -8.27412 22.6683 -8.38518 22.8421C-8.4024 22.869 -8.43423 22.8829 -8.46552 22.8763C-8.4942 22.8703 -8.5172 22.8487 -8.52755 22.8213C-8.54937 22.7635 -8.57776 22.7042 -8.56573 22.6534C-8.38689 22.0336 -8.27655 21.3969 -7.90746 20.828C-7.7134 20.5266 -7.53457 20.2184 -7.35573 19.9102C-7.31535 19.8383 -7.29779 19.7529 -7.27614 19.6705C-7.26778 19.6387 -7.28229 19.605 -7.31205 19.591C-7.33998 19.5778 -7.3735 19.5848 -7.39335 19.6085C-7.6673 19.935 -7.94147 20.2603 -8.22105 20.5923C-8.40615 20.8121 -8.72278 20.7769 -8.55051 20.5469C-8.15479 20.0118 -7.75906 19.4768 -7.35573 18.9484C-7.21893 18.7685 -7.43529 18.6867 -7.59081 18.8507C-8.00263 19.2853 -8.36482 19.7392 -8.76235 20.1912C-8.88797 20.3341 -9.06367 20.2224 -8.99015 20.047C-8.91413 19.8656 -9.08595 19.7864 -9.21456 19.9352C-9.85326 20.6741 -10.2841 21.5294 -10.7634 22.3793C-10.9542 22.7176 -11.3823 22.7124 -11.2901 22.335C-11.2462 22.1561 -11.2093 21.9747 -11.1727 21.7892C-11.1371 21.6097 -11.3007 21.4388 -11.4449 21.5516C-11.5067 21.5999 -11.5534 21.6596 -11.5915 21.7287C-11.6654 21.8628 -11.8594 21.8899 -11.933 21.7556C-11.9411 21.7409 -11.9489 21.7266 -11.9567 21.7125C-11.9789 21.6719 -12.0475 21.6173 -12.0702 21.6577C-12.2033 21.9591 -12.3365 22.2571 -12.4697 22.5585C-12.4811 22.5856 -12.4735 22.6195 -12.4887 22.6398C-12.8426 23.0564 -12.7322 23.5813 -12.9149 24.0385C-13.0176 24.2958 -13.0557 24.5498 -12.7627 24.7632C-12.6714 24.8275 -12.6447 24.9867 -12.6295 25.1052C-12.5915 25.4947 -12.5724 25.8875 -12.5458 26.277C-12.545 26.2894 -12.5441 26.3013 -12.5433 26.3129C-12.5228 26.6038 -12.1696 26.529 -12.1095 26.2436C-12.0961 26.1796 -12.0827 26.1161 -12.0694 26.0525C-12.0652 26.0325 -12.0485 26.0165 -12.0283 26.013C-11.9987 26.0079 -11.9704 26.0277 -11.9642 26.0572C-11.8543 26.5828 -11.5912 27.0417 -11.2911 27.5027C-11.0898 27.8122 -10.6832 27.9344 -10.3541 27.7671C-10.1106 27.6452 -10.0154 27.4521 -10.0231 27.2049C-10.0256 27.1045 -10.0126 27.0041 -9.99925 26.8996C-9.98841 26.815 -9.90078 26.7553 -9.81636 26.7674C-9.73103 26.7797 -9.66338 26.716 -9.65654 26.6301C-9.60582 25.9936 -9.55771 25.3647 -9.50672 24.7361C-9.50393 24.7016 -9.47517 24.6748 -9.44066 24.6733C-9.40967 24.6719 -9.38281 24.6933 -9.37457 24.7232C-9.35597 24.7907 -9.33358 24.8582 -9.33054 24.9257C-9.30391 25.3592 -9.28869 25.7927 -9.25444 26.2262C-9.22473 26.5765 -8.89825 26.5384 -8.92168 26.1876C-8.92955 26.0697 -8.94146 25.953 -8.92721 25.8401C-8.89159 25.5611 -8.88931 25.2792 -8.87356 24.9998C-8.87175 24.9677 -8.84507 24.9427 -8.81288 24.9427C-8.78083 24.9427 -8.75425 24.9675 -8.75192 24.9994C-8.73748 25.1978 -8.72041 25.3984 -8.70652 25.5963C-8.6951 25.8062 -8.6951 26.0162 -8.67608 26.2262C-8.64944 26.5377 -8.55432 26.5818 -8.22328 26.4531C-8.13936 26.4204 -8.05364 26.3942 -7.96362 26.3666C-7.90065 26.3473 -7.77472 26.4229 -7.83136 26.4565C-8.56954 26.9272 -9.30391 27.4081 -10.0573 27.8653C-10.6128 28.2006 -11.1798 28.5223 -11.7582 28.8203C-12.0549 28.9727 -12.386 29.0777 -12.7056 29.186C-12.8942 29.251 -13.0843 29.0783 -13.1358 28.8857C-13.2559 28.4372 -13.3741 28.019 -13.4628 27.5944C-13.6455 26.7376 -13.6645 25.874 -13.4476 25.0172C-13.4324 24.9494 -13.3905 24.8783 -13.3981 24.814C-13.4514 24.2281 -13.2003 23.6863 -13.0443 23.1376C-12.8806 22.5653 -12.5991 22.0167 -12.3555 21.4647C-12.0511 20.7772 -11.6021 20.1575 -11.1532 19.5445C-10.883 19.1753 -10.5672 18.8198 -10.2057 18.5184C-9.93174 18.2881 -9.70724 18.0171 -9.42567 17.7936C-9.1479 17.5701 -8.88916 17.3263 -8.59617 17.1231C-8.21567 16.8589 -7.80473 16.6286 -7.41661 16.3747C-7.24647 16.2621 -7.34352 16.0289 -7.53294 16.1048C-7.64203 16.1484 -7.74004 16.2026 -7.83136 16.2595C-8.4706 16.6591 -9.09463 17.0858 -9.70343 17.5227C-10.1334 17.8275 -10.4987 18.2068 -10.9515 18.4743C-11.975 19.0771 -12.8045 19.8899 -13.79 20.5334C-14.4559 20.9702 -15.0723 21.4681 -15.7268 21.9219C-16.172 22.23 -16.4764 22.633 -16.7237 23.0665C-17.2831 24.052 -17.7739 25.068 -18.3599 26.0399C-18.9383 26.9949 -19.5889 27.9161 -20.2244 28.844C-20.3613 29.0438 -20.5744 29.1996 -20.7685 29.3655C-20.8332 29.4197 -20.9321 29.4773 -21.012 29.4739C-21.0969 29.4702 -21.1787 29.4726 -21.2576 29.4821C-21.5019 29.5113 -21.6734 29.3778 -21.4876 29.2165C-20.8522 28.6679 -20.4527 27.9635 -19.939 27.3336C-19.8831 27.2673 -20.0598 27.2204 -20.1236 27.2792C-20.2378 27.3844 -20.3385 27.4742 -20.3842 27.5842C-20.4742 27.7879 -20.6382 27.8434 -20.8361 27.8904C-20.8397 27.8912 -20.8408 27.8957 -20.8381 27.8981C-20.8357 27.9002 -20.832 27.8993 -20.8309 27.8963C-20.7558 27.6885 -20.694 27.4845 -20.4755 27.3336C-20.3233 27.2286 -20.251 27.0356 -20.1216 26.8967C-20.056 26.8267 -19.9741 26.7695 -19.8922 26.7119C-19.8421 26.6766 -19.7744 26.6835 -19.7649 26.744C-19.7536 26.8153 -19.6531 26.8541 -19.6531 26.7819C-19.6531 26.7381 -19.6759 26.7086 -19.7092 26.6856C-19.7547 26.6543 -19.7884 26.6166 -19.7775 26.5624C-19.7626 26.4886 -19.6787 26.4369 -19.6122 26.4722C-19.5877 26.4851 -19.5635 26.4979 -19.539 26.511C-19.4545 26.5559 -19.3496 26.5255 -19.3024 26.4423C-18.8712 25.6821 -18.4469 24.941 -18.0327 24.1909C-17.9033 23.9572 -17.7244 23.7777 -17.5 23.6185C-17.4644 23.5934 -17.4303 23.5666 -17.3968 23.5384C-17.1971 23.37 -17.3354 23.0835 -17.5038 23.2833C-17.5875 23.3815 -17.6598 23.5135 -17.7739 23.5576C-18.2762 23.7472 -18.63 24.1062 -19.0486 24.3873C-19.1681 24.47 -19.3202 24.3429 -19.2147 24.243C-19.1622 24.1934 -19.0994 24.1555 -19.0486 24.1163C-18.5235 23.7032 -17.9794 23.307 -17.4505 22.8972C-16.602 22.2368 -15.7458 21.5798 -14.9125 20.9059C-14.1363 20.276 -13.3905 19.6122 -12.6143 18.9823C-11.7582 18.2847 -10.8792 17.6108 -10.0078 16.9233C-9.86705 16.8115 -9.71105 16.7099 -9.59689 16.5778C-9.01853 15.8904 -8.15859 15.5619 -7.3367 15.1961C-7.19592 15.1318 -6.97523 15.1927 -6.79639 15.2198C-6.66321 15.2402 -6.53384 15.3384 -6.40447 15.3384C-6.01074 15.3307 -5.65607 15.1994 -5.27326 15.0786C-5.10485 15.0255 -5.06977 14.8265 -5.24575 14.8119C-5.31056 14.8065 -5.37628 14.807 -5.44216 14.8042C-5.56156 14.7993 -5.57131 14.6489 -5.45322 14.6306C-4.47913 14.4985 -3.50504 14.3596 -2.52715 14.2479C-1.80038 14.1666 -1.08503 14.2174 -0.400126 14.4782C-0.312611 14.512 -0.228905 14.5493 -0.148998 14.5933C0.516882 14.9726 0.600594 15.4772 0.0602798 15.9886C-0.198463 16.2324 -0.502865 16.4322 -0.795853 16.6422C-0.817924 16.6575 -0.839235 16.673 -0.859579 16.6888C-1.07702 16.8572 -0.91783 17.2226 -0.696924 17.0587C-0.457207 16.8759 -0.228905 16.6862 -0.000602722 16.4966C0.220089 16.3137 0.440784 16.1376 0.764214 16.1139C1.04959 16.0902 1.2094 16.1647 1.33116 16.3916C1.38443 16.4932 1.44912 16.5948 1.46814 16.7032C1.52522 16.9876 1.50619 17.245 1.20559 17.4516C1.01915 17.5803 0.893583 17.7902 0.756601 17.9731C0.6805 18.0747 0.676695 18.2068 0.821287 18.2576C0.889776 18.2813 1.03056 18.2271 1.08764 18.1695C1.51761 17.7496 1.94378 17.3229 2.35852 16.8894C2.57161 16.6659 2.88742 16.5643 3.15377 16.6524C3.4011 16.7336 3.51906 16.9842 3.56472 17.2484C3.63701 17.6514 3.43915 17.9088 3.11192 18.1357C2.96394 18.241 3.07214 18.486 3.25331 18.4728C3.44921 18.4584 3.61568 18.4001 3.7778 18.3185C4.21157 18.0984 4.59207 17.797 4.78613 17.4042C4.94214 17.0858 4.94594 16.7032 4.97258 16.3442C4.99541 16.0631 4.9878 15.7854 5.14761 15.5314C5.31122 15.274 5.5966 15.1216 5.87437 15.1521C6.33097 15.1995 6.5745 15.5145 6.49079 15.9378C6.43541 16.2265 6.70658 16.4024 6.86904 16.1574C6.91068 16.0946 6.93488 16.0146 6.94739 15.9107C6.96642 15.7583 6.93598 15.6025 6.95119 15.4501C6.97022 15.2435 6.98164 15.0268 7.04632 14.8304C7.16808 14.4612 7.45727 14.2885 7.89104 14.2919C8.64824 14.3021 9.219 14.6644 9.74029 15.1013C9.94956 15.274 9.97239 15.5212 9.96098 15.7651C9.94952 15.969 10.1972 16.075 10.2299 15.8733C10.2457 15.7763 10.234 15.6763 10.2273 15.5788C10.2045 15.2435 10.1626 14.9117 10.1398 14.5764C10.1329 14.4594 10.2942 14.4101 10.4032 14.4531C10.6399 14.5463 10.8626 14.4868 11.0987 14.3596C11.2166 14.2953 11.4107 14.3088 11.5591 14.3359C12.2098 14.4545 12.693 14.7491 12.9898 15.3113C13.2257 15.7583 13.0431 16.0902 12.7767 16.4356C12.6438 16.6077 12.7465 16.8903 12.868 16.7099C13.0545 16.439 13.2409 16.1647 13.3969 15.8768C13.6252 15.4467 13.8688 15.0607 14.4814 14.9929C14.8496 14.9557 15.2508 14.8192 15.3901 15.162C15.4744 15.3694 15.4953 15.6038 15.5392 15.8362C15.5726 16.0035 15.5423 16.1513 15.4843 16.2903C15.3222 16.6793 15.5654 17.0954 15.8169 16.7573C16.2012 16.246 16.4143 15.6906 16.4295 15.0674C16.4333 14.8541 16.5171 14.6272 16.6312 14.4375C16.8976 13.9973 17.2286 13.9736 17.7194 14.214C18.176 14.4375 18.2521 14.7626 18.2141 15.1623C18.1968 15.357 18.4059 15.4983 18.541 15.357C18.689 15.2022 18.7257 15.0139 18.6403 14.827C18.412 14.319 18.138 13.8381 17.6243 13.4927C17.3504 13.3098 17.1106 13.0795 16.8976 12.8391C16.479 12.3751 16.6654 11.8062 17.2857 11.5793C17.3998 11.5386 17.5254 11.5115 17.6433 11.4777C17.9515 11.3896 17.9934 11.3185 17.864 11.0544C17.8052 10.9309 17.9084 10.8044 18.0151 10.89C18.1543 11.0017 18.2711 11.167 18.4005 11.4404C18.4811 11.6064 18.5309 11.7849 18.575 11.9662C18.6398 12.2322 18.9613 12.4415 18.9827 12.1685C18.9941 12.0331 18.9789 11.8875 18.9294 11.7621C18.762 11.3388 18.8343 11.0645 19.2795 10.8478C19.9758 10.5057 20.7102 10.3296 21.4712 10.6988C21.5816 10.753 21.6653 10.8681 21.7414 10.9663C21.8783 11.1458 22.0267 11.2034 22.198 11.0577C22.9133 10.4346 23.7542 10.5836 24.5951 10.7089C24.8881 10.753 25.1811 10.8512 25.4741 10.8478C26.1095 10.8376 26.4558 11.1695 26.7031 11.6131C26.8287 11.8367 26.8858 12.0873 26.9809 12.3209C27.0436 12.4759 27.2739 12.5922 27.3448 12.4408C27.3661 12.3953 27.3678 12.3412 27.3614 12.2871C27.3424 12.1347 27.3005 11.9857 27.2587 11.8367C27.1559 11.4709 27.2967 11.2305 27.6886 11.1424C28.1528 11.0374 28.9976 11.3016 29.2183 11.7588C29.2829 11.8908 29.2563 12.0568 29.2867 12.2058C29.3145 12.3354 29.5071 12.3862 29.6128 12.3063C29.6292 12.2939 29.6407 12.2808 29.6444 12.2667C29.6711 12.1245 29.6672 11.962 29.6216 11.8197C29.5493 11.5827 29.4389 11.3388 29.7243 11.1729C29.9716 11.0306 30.2418 11.1085 30.4815 11.2305C30.999 11.498 31.4023 11.8671 31.6459 12.3514C31.7395 12.5351 31.7944 12.7195 31.8023 12.8995C31.8205 13.3146 31.3414 13.392 30.9648 13.5672C30.2837 13.8788 29.5911 14.1869 28.9633 14.573C28.1034 15.1013 27.3804 15.7752 26.9276 16.6286C26.6651 17.1197 26.4672 17.6378 26.2389 18.1424C26.0829 18.4879 25.9231 18.8367 25.7519 19.1787C25.6953 19.2983 25.516 19.214 25.5022 19.0824C25.4669 18.7469 25.4638 18.1932 25.5312 17.9257C25.6198 17.5666 25.7429 17.2162 25.8707 16.8306C25.9111 16.7086 25.76 16.5386 25.6796 16.6388C25.5274 16.8318 25.3561 17.0249 25.2724 17.245C25.1757 17.4997 24.8658 17.315 24.9546 17.0574C24.9809 16.9813 25.0101 16.9073 25.0441 16.8352C25.2268 16.4525 25.4741 16.0936 25.6948 15.7244C25.7183 15.6847 25.7385 15.6454 25.7509 15.6047C25.8056 15.4245 25.5185 15.3603 25.4056 15.5111C25.0593 15.9954 24.8044 16.5033 24.618 17.0655C24.3821 17.7801 24.3592 18.498 24.3136 19.2194C24.2489 20.2252 24.1423 21.231 24.2603 22.2368C24.2732 22.3232 24.1383 22.3513 24.0858 22.2815C23.912 22.0508 23.8095 21.8207 23.7542 21.5663C23.6972 21.2953 23.6401 21.0312 23.3965 20.8077C23.2748 20.6959 23.2558 20.4724 23.2405 20.2963C23.1873 19.6833 23.1568 19.067 23.115 18.454C23.1036 18.2576 23.0655 18.0713 22.8867 17.9223C22.7002 17.7699 22.7497 17.5566 22.7839 17.3669C22.9361 16.4796 23.1759 15.6161 23.6705 14.8236C23.7162 14.7525 23.7428 14.6678 23.7618 14.5865C23.7885 14.4443 23.8798 14.38 24.0282 14.3258C24.3554 14.2072 24.3897 14.1395 24.2869 13.8584C24.2451 13.7433 24.1766 13.6214 24.0815 13.5367C24.0054 13.469 23.8608 13.3945 23.7771 13.4148C23.6819 13.4385 23.5602 13.5706 23.564 13.6519C23.5706 13.8249 23.6285 13.9954 23.6761 14.1677C23.69 14.2183 23.7009 14.298 23.6515 14.3156C23.2025 14.4375 22.978 14.722 22.8448 15.1115C22.5823 15.8701 22.2588 16.6151 22.0039 17.3771C21.7718 18.0713 21.5892 18.7757 21.3837 19.4767C21.3566 19.567 21.2319 19.5655 21.2056 19.475C21.1351 19.2324 21.1796 19.0098 21.2125 18.7893C21.2733 18.3727 21.3532 17.963 21.4293 17.5498C21.4301 17.5455 21.4309 17.5413 21.4317 17.537C21.4906 17.2154 21.1711 17.0438 21.0565 17.35C20.7863 18.0679 20.8205 18.8164 20.7787 19.5513C20.7026 20.8652 20.7673 22.1792 21.0831 23.4763C21.1364 23.693 21.1402 23.9199 21.1516 24.1434C21.152 24.1512 21.1518 24.1589 21.151 24.1668C21.1393 24.2872 20.9322 24.3379 20.8814 24.2281C20.2802 22.8803 19.8769 21.4951 19.9188 20.0288C19.9302 19.6529 19.9149 19.2736 19.8959 18.8976C19.8854 18.6969 19.8695 18.4961 19.7971 18.2876C19.746 18.1405 19.5098 18.1014 19.466 18.2508C19.4013 18.4811 19.329 18.7148 19.3252 18.9484C19.3099 19.829 19.3214 20.7095 19.3214 21.59C19.3214 21.6032 19.3216 21.6164 19.322 21.6296C19.3342 21.9983 18.9784 22.1097 18.918 21.7458C18.8648 21.4274 18.8039 21.1057 18.8039 20.7874C18.8001 19.8493 18.8115 18.9112 18.8381 17.9765C18.8453 17.706 18.9129 17.4385 18.9558 17.1684C18.9604 17.1393 18.941 17.1118 18.912 17.1061C18.8833 17.1004 18.8551 17.118 18.8474 17.1462C18.7187 17.6167 18.5392 18.0815 18.4804 18.559C18.2978 20.022 18.3739 21.4918 18.5223 22.9548C18.541 23.1574 18.3464 23.2549 18.2701 23.0663C18.2059 22.9077 18.1733 22.7398 18.1646 22.5585C18.1494 22.2131 18.0543 21.8677 18.02 21.5222C17.9706 21.0481 17.9325 20.5774 17.9059 20.1033C17.893 19.881 17.8886 19.7769 17.841 19.6751C17.7684 19.5194 17.8004 19.3256 17.9592 19.26C18.157 19.1787 18.2445 19.0467 18.1837 18.8536C18.1266 18.6809 17.8755 18.4608 17.7271 18.4676C17.67 18.4709 17.5863 18.4913 17.5634 18.5285C17.3504 18.8739 16.9965 19.1516 17.0117 19.6088C17.0269 20.1812 16.9698 20.7535 16.9394 21.3258C16.9385 21.3499 16.9359 21.3739 16.9312 21.3979C16.9094 21.509 16.7492 21.483 16.7492 21.3698C16.7454 20.4893 16.7187 19.6088 16.7568 18.7283C16.7796 18.244 16.9432 17.7665 16.9965 17.2823C17.0383 16.8793 17.0269 16.4763 17.2096 16.0936C17.2774 15.955 17.0773 15.9111 17.0149 16.0522C16.7553 16.6389 16.6201 17.2563 16.46 17.8647C16.2621 18.6301 16.1289 19.4022 16.148 20.1913C16.1586 20.6349 16.1739 21.0774 16.1907 21.5295C16.199 21.7543 15.8808 21.8236 15.855 21.6001C15.7637 20.8212 15.6533 20.0457 15.7827 19.26C15.8321 18.9586 15.7941 18.6437 15.7865 18.3389C15.7804 18.1985 15.603 18.2404 15.5703 18.377C15.4393 18.9234 15.3075 19.4733 15.1696 20.0464C15.1439 20.1531 15.0265 20.2054 14.9351 20.1446C14.8556 20.0917 14.7416 20.119 14.7137 20.2104C14.6801 20.3203 14.6614 20.4317 14.6504 20.5436C14.6089 20.9684 14.3262 20.9641 14.3032 20.5379C14.2574 19.6876 14.3636 18.8388 14.5595 17.9915C14.5688 17.9513 14.5442 17.9105 14.504 17.9015C14.4743 17.8948 14.4444 17.9088 14.4286 17.9348C14.2931 18.1575 14.1606 18.3803 14.0247 18.603C13.9753 18.6877 13.9449 18.7994 13.8687 18.8502C13.4236 19.1347 13.2904 19.5513 13.1953 19.9983C13.0088 20.8686 12.9746 21.7491 12.9251 22.6263C12.9023 23.0462 12.9061 23.4661 13.0963 23.8657C13.1458 23.9673 13.1648 24.0825 13.1686 24.1942C13.1953 24.6413 13.4198 25.0239 13.6595 25.3999C13.8206 25.6541 13.4852 25.8034 13.3079 25.5601C13.2436 25.4718 13.1913 25.3747 13.1344 25.2847C12.3277 24.0012 12.0804 22.6127 12.1945 21.1565C12.2668 20.2726 12.4799 19.4158 12.7805 18.5725C12.88 18.2942 12.5553 18.1411 12.3747 18.3751C12.3271 18.4368 12.2808 18.4991 12.2364 18.5624C11.7379 19.2668 11.3955 20.0321 11.2166 20.8483C11.1291 21.2445 11.0873 21.6509 11.0797 22.0539C11.0682 22.694 11.0606 23.3307 11.2889 23.964C11.4259 24.3433 11.4678 24.753 11.6542 25.1255C11.6744 25.167 11.6838 25.213 11.6897 25.2678C11.7021 25.3834 11.5124 25.4986 11.4716 25.3897C11.2661 24.8749 10.9998 24.3703 10.8932 23.842C10.7638 23.1986 10.76 22.5382 10.7372 21.8812C10.7258 21.5629 10.8095 21.2412 10.8323 20.9194C10.8374 20.852 10.8395 20.7847 10.8401 20.7177C10.8421 20.4871 10.6161 20.2779 10.5241 20.4893C10.4562 20.6439 10.4182 20.815 10.2059 20.874C10.2025 20.8749 10.1993 20.8765 10.1965 20.8788ZM17.8456 16.9598C17.9137 16.6611 17.6666 16.4945 17.5901 16.7912C17.5254 17.0316 17.4341 17.2687 17.3618 17.5092C17.2452 17.8912 17.6018 17.8998 17.709 17.515C17.7218 17.4691 17.7341 17.4231 17.7461 17.3771C17.781 17.2394 17.8134 17.1012 17.8456 16.9598ZM-3.46932 19.3636C-3.44971 19.0626 -4.002 19.1715 -4.1455 19.4368C-4.31942 19.7583 -3.86517 19.944 -3.62104 19.6719C-3.56284 19.6071 -3.51687 19.5314 -3.48601 19.4429C-3.47641 19.4158 -3.471 19.3894 -3.46932 19.3636ZM21.0488 13.5435C21.0412 13.3301 20.8358 13.1608 20.5808 13.1676C20.421 13.171 20.3031 13.2353 20.3145 13.3911C20.3259 13.557 20.6113 13.8042 20.7787 13.811C20.9461 13.8212 21.0527 13.7128 21.0488 13.5435ZM-3.61158 18.5692C-3.6827 18.6465 -3.49575 18.7276 -3.41751 18.6575C-3.29614 18.5486 -3.17921 18.4304 -3.07333 18.3109C-2.85101 18.06 -3.02901 17.9373 -3.25796 18.1822C-3.3775 18.31 -3.49526 18.4391 -3.61158 18.5692ZM23.4612 17.438C23.652 17.4263 23.7784 17.1781 23.6808 17.0139C23.6286 16.9262 23.5465 16.8697 23.4536 16.8589C23.2938 16.842 23.2253 16.9233 23.2063 17.0486C23.1797 17.2281 23.309 17.4482 23.4612 17.438ZM20.6381 11.2695C20.4767 11.4522 20.6268 11.5368 20.7891 11.3549C20.8504 11.2863 20.9129 11.2163 20.9772 11.1444C21.0472 11.0661 20.9443 10.8477 20.8928 10.9392C20.826 11.0582 20.7316 11.1636 20.6381 11.2695ZM-11.6593 21.132C-11.6571 21.0985 -11.6834 21.0685 -11.7167 21.0635C-11.7405 21.0598 -11.7625 21.0714 -11.7751 21.092C-11.8169 21.1603 -11.8402 21.2032 -11.841 21.2434C-11.8433 21.3522 -11.6701 21.2989 -11.6631 21.1903C-11.6618 21.1705 -11.6605 21.1512 -11.6593 21.132ZM-11.4074 20.7626C-11.3805 20.6821 -11.4584 20.5789 -11.5154 20.6418C-11.5499 20.6798 -11.5573 20.7188 -11.5394 20.7622C-11.5123 20.8276 -11.4298 20.8297 -11.4074 20.7626ZM9.8195 18.7657C9.83578 18.6915 9.74636 18.6358 9.69635 18.693C9.67138 18.7215 9.66356 18.7498 9.67062 18.7883C9.68515 18.8675 9.80223 18.8444 9.8195 18.7657ZM6.28631 18.1389C6.28969 18.1046 6.26285 18.0747 6.22841 18.0747C6.20523 18.0747 6.18416 18.0886 6.17522 18.11C6.15744 18.1525 6.14618 18.1831 6.14305 18.2111C6.13284 18.3021 6.27339 18.2741 6.28206 18.1829C6.28349 18.1679 6.2849 18.1533 6.28631 18.1389ZM17.8591 17.999C17.8556 18.0341 17.8832 18.0649 17.9185 18.0664C17.9515 18.0677 17.9782 18.0412 17.9782 18.0082C17.9782 17.9286 17.9782 17.8489 17.9782 17.7692C17.9782 17.7434 17.9573 17.7222 17.9316 17.7206C17.9082 17.7193 17.8884 17.7365 17.8855 17.7597C17.8755 17.8395 17.8671 17.9192 17.8591 17.999ZM-11.2331 20.2488C-11.2389 20.2814 -11.2156 20.3122 -11.1826 20.315C-11.1504 20.3177 -11.1227 20.2923 -11.1227 20.2599C-11.1227 20.215 -11.1227 20.1701 -11.1227 20.1252C-11.1227 20.103 -11.1393 20.0844 -11.1615 20.083C-11.1847 20.0815 -11.2061 20.0973 -11.2103 20.1202C-11.2182 20.1633 -11.2254 20.2058 -11.2331 20.2488ZM-8.58427 19.2012C-8.59093 19.2241 -8.5771 19.2479 -8.55395 19.2538C-8.53262 19.2592 -8.51065 19.2475 -8.50342 19.2267C-8.4944 19.2007 -8.48557 19.1748 -8.47736 19.1488C-8.46909 19.1226 -8.49484 19.0924 -8.52141 19.0856C-8.54043 19.0807 -8.54798 19.0922 -8.55486 19.1106C-8.56615 19.1408 -8.57551 19.171 -8.58427 19.2012Z" fill="white"/>
<path d="M21.9613 21.3768C21.921 21.0025 22.1666 20.9598 22.2359 21.3298C22.3729 22.0783 22.6773 22.7725 23.0273 23.4566C23.3469 24.0831 23.7351 24.6724 24.2868 25.1567C24.7173 25.5314 25.166 25.8901 25.6157 26.2573C25.7731 26.3858 25.7571 26.5977 25.5848 26.4899C25.4049 26.3773 25.3586 26.5892 25.5325 26.711C25.8987 26.9674 26.3046 27.1701 26.6992 27.385C26.8251 27.4533 26.888 27.4872 26.9393 27.5551C27.0328 27.6787 26.8778 27.8633 26.7372 27.7982C26.4366 27.656 26.1398 27.5002 25.843 27.3512C25.7898 27.3241 25.7251 27.2868 25.668 27.2902C25.1938 27.3411 24.9039 27.0692 24.5698 26.8581C24.4937 26.81 24.466 26.6926 24.4973 26.6083C24.5229 26.5394 24.4948 26.4859 24.4398 26.4372C24.2132 26.2365 23.9946 26.0546 23.7997 25.8543C23.7053 25.7584 23.6 25.6683 23.5065 25.5706C23.3727 25.4307 23.5117 25.3165 23.6629 25.4373C23.85 25.5868 23.9752 25.418 23.8153 25.2396C23.3153 24.6815 22.9111 24.0697 22.5821 23.4092C22.253 22.7534 22.0367 22.0766 21.9613 21.3768ZM24.9768 26.2919C25.0301 26.3166 25.0632 26.1786 25.0059 26.1659C24.9513 26.1551 24.9186 26.2489 24.9627 26.2829C24.9668 26.286 24.971 26.2888 24.9755 26.2912C24.9759 26.2914 24.9764 26.2917 24.9768 26.2919Z" fill="white"/>
</g>
</svg>
