<svg width="276" height="114" viewBox="0 0 276 114" fill="none" xmlns="http://www.w3.org/2000/svg">
<g clip-path="url(#clip0_471_2789)">
<path d="M64.0347 65.1815C73.0496 55.171 80.4164 43.9208 92.2609 37.1747C97.4931 34.1995 103.311 32.7428 109.238 32.3606C113.11 32.1127 116.774 32.7738 120.447 33.4867C120.497 33.5073 120.547 33.5073 120.596 33.5176C122.78 33.9309 124.965 34.3648 127.199 34.623C127.854 34.6954 128.747 33.7346 127.745 33.621C125.789 33.3937 123.882 33.0424 121.976 32.6705C128.43 22.4327 143.928 29.3233 153.201 30.3977C153.906 30.4804 154.73 29.4267 153.727 29.313C143.64 28.1456 127.695 21.2447 120.626 32.4226C117.916 31.906 115.195 31.4205 112.356 31.3378C107.362 31.1932 102.408 32.0817 97.6817 33.6933C87.3761 37.2161 79.1456 45.2638 72.1561 53.58C52.8555 76.5764 31.2813 97.7029 1.04961 102.641C0.285135 102.765 -0.131853 103.798 0.880833 103.633C25.9597 99.5417 46.9878 84.1075 64.0347 65.1815Z" fill="#2E74FF"/>
<path d="M146.598 26.5556C146.211 27.3407 147.72 27.3407 148.018 26.7312C151.612 19.5409 160.309 16.3797 167.348 14.3342C176.919 11.5449 187.413 11.2453 195.972 17.1339C196.389 17.4231 197.213 17.1959 197.302 16.6277C198.692 7.2783 212.095 4.31336 219.432 2.77407C223.592 1.89595 227.861 1.38974 232.111 1.78231C236.181 2.15422 239.904 4.30303 242.635 7.40226C243.22 8.06344 246.963 14.4065 243.022 13.1875C239.319 12.0408 235.208 0.552948 230.721 8.06344C229.559 10.0056 229.668 11.39 231.475 12.7536C232.696 13.6731 234.235 14.1689 235.516 14.9851C236.827 15.8219 237.561 19.6649 235.04 19.0037C234.126 18.7661 233.223 17.8984 232.498 17.2992C230.78 15.8632 230.214 14.1069 227.871 14.2929C225.776 14.4582 224.972 15.8942 225.191 17.9087C225.33 19.231 226.303 20.5947 227.027 21.6278C226.372 21.7517 225.717 21.8654 225.062 21.9893C224.754 21.3798 224.535 20.7497 224.406 20.0781C224.208 19.2723 224.099 18.4356 223.94 17.6194C223.483 15.233 221.964 13.3838 219.442 13.3735C217.347 13.3631 215.262 13.921 214.26 15.9768C213.783 16.9582 214.687 17.8983 215.262 18.4872C214.915 18.1256 210.397 17.7124 209.295 17.6711C207.359 17.5988 205.88 19.262 205.453 21.0596C205.215 22.041 206.267 23.508 206.942 23.9832C207.975 24.7167 207.856 24.6444 209.017 25.1609C204.004 22.9191 203.487 26.6485 201.73 21.8241C201.472 21.1216 199.993 21.5555 200.241 22.2373C202.177 27.568 206.893 29.1589 211.053 25.2332C211.45 24.8613 211.341 24.4274 210.814 24.3138C206.664 23.446 206.337 21.6278 209.822 18.8385C211.013 18.8798 212.304 19.3653 213.465 19.6236C214.786 19.9129 215.918 19.8095 217.179 19.3653C217.486 19.2517 218.151 18.7145 217.615 18.3839C214.369 16.4004 220.207 10.6048 222.262 17.2682C222.5 18.043 222.599 18.8901 222.748 19.6856C222.977 20.9563 223.245 22.134 224.059 23.1257C225.31 24.665 227.663 23.1361 228.824 22.3819C229.023 22.2579 229.192 21.8964 229.013 21.6898C227.931 20.4294 227.137 19.1277 226.67 17.4955C225.121 12.1751 229.976 16.8963 230.026 16.9479C231.406 18.3529 232.915 19.7269 234.821 20.2228C237.631 20.9563 239.011 17.2888 237.77 15.14C237.621 14.8921 237.422 14.6751 237.204 14.4582C241.245 14.5202 245.206 15.0057 248.075 18.3942C249.267 19.7992 249.614 21.7001 249.426 23.4976C249.257 25.0783 247.827 27.9192 246.447 25.5741C246.07 24.9336 244.66 25.5535 245.097 26.2766C245.901 27.6403 247.311 28.3634 248.731 27.4233C250.508 26.2456 251.084 23.8799 250.994 21.8137C250.835 17.8157 248.264 15.6566 245.067 14.5099C245.573 14.3032 246.03 13.921 246.358 13.2908C248.502 9.24115 240.728 3.5902 238.425 2.35051C233.312 -0.428477 226.978 0.366994 221.507 1.26577C213.515 2.57778 198.573 5.77 196.031 15.5533C187.523 10.2639 177.694 10.6255 168.232 12.9602C160.379 14.8921 150.55 18.6422 146.598 26.5556ZM235.913 13.2288C235.764 13.2288 235.645 13.2702 235.536 13.3218C234.722 12.8982 233.868 12.5573 233.223 12.2164C230.393 10.7081 232.001 5.19147 235.407 7.30929C236.926 8.24939 238.038 10.3672 239.08 11.8032C239.497 12.3817 240.163 13.0016 240.907 13.5284C239.15 13.3011 237.393 13.2392 235.913 13.2288Z" fill="#2E74FF"/>
<path d="M178.815 25.4806C180.811 20.4909 175.489 18.2594 171.528 18.0425C170.982 18.0115 169.939 18.8379 170.942 18.8896C174.189 19.0652 178.18 20.7698 177.683 24.3649C176.214 23.2079 174.745 22.5364 172.719 22.3298C172.54 22.3091 171.091 22.6603 171.567 23.0322C172.521 23.7761 172.967 24.3236 173.454 25.522C173.831 26.4827 173.563 31.9167 170.356 28.4766C169.334 27.3815 169.572 25.4497 168.678 24.2719C167.388 22.5674 165.491 23.4558 163.933 24.2926C163.804 24.3649 163.496 24.6335 163.694 24.7988C164.786 25.429 165.243 26.4724 165.045 27.929C164.886 29.3754 162.682 31.6998 162.155 29.2617C161.957 28.3526 161.103 26.9889 160.289 26.6067C158.422 25.7286 157.092 26.2555 155.583 27.5985C154.938 28.1667 156.417 28.1357 156.764 27.8257C159.783 25.1501 160.885 30.1502 160.895 31.8341C160.895 32.1543 161.59 32.0304 161.729 31.9994C163.764 31.4932 167.149 29.4477 166.613 26.7203C166.385 25.5633 166.514 25.9559 165.898 24.9228C166.246 24.7575 166.593 24.6025 166.941 24.4372C167.298 24.8815 167.547 25.367 167.705 25.9145C168.182 27.2162 168.381 28.4662 169.334 29.4993C172.491 32.8878 176.542 27.4952 174.119 23.7347C175.291 24.2203 176.353 24.9641 177.346 25.8732C177.753 26.2141 178.646 25.9145 178.815 25.4806Z" fill="#2E74FF"/>
<path d="M145.188 37.8778C145.525 37.5265 145.873 37.165 146.21 36.8137C146.717 37.2269 147.243 37.5059 147.898 37.8158C148.236 37.9811 148.901 37.7641 149.04 37.3922C150.122 34.4686 148.593 32.6607 146.618 30.5842C146.171 30.109 144.761 30.7289 145.257 31.2454C146.568 32.6297 148.137 34.0657 147.878 36.1939C147.571 35.9769 147.263 35.7703 146.965 35.5534C146.627 35.1711 145.982 35.3571 145.664 35.6773C145.317 36.0389 144.969 36.4005 144.622 36.7621C143.738 36.0699 142.736 35.6773 141.723 35.0988C141.385 34.9025 140.134 35.0988 140.402 35.7393C141.514 38.3943 140.591 40.7084 138.049 41.5659C137.384 37.5162 135.121 34.9232 130.961 34.9955C130.137 35.0058 129.799 36.0906 130.812 36.0699C134.753 36.0079 136.203 39.0142 136.64 42.4957C136.689 42.8882 137.275 42.8366 137.513 42.7952C140.67 42.1857 142.815 39.9233 142.329 36.8654C142.885 37.165 143.421 37.5059 143.877 38.0018C144.235 38.384 144.87 38.2187 145.188 37.8778Z" fill="#2E74FF"/>
<path d="M170.654 35.2112C171.081 35.4281 171.796 35.1905 171.985 34.736C172.422 33.6719 172.164 33.331 171.588 32.3805C171.31 31.926 169.87 32.4322 170.208 33.0004C170.446 33.3 170.575 33.6202 170.615 33.9818C168.907 33.5066 167.219 33.8268 165.472 34.488C165.154 34.612 164.757 35.1595 165.323 35.2628C166.584 35.4798 166.375 37.1637 165.919 38.5997C164.638 35.769 162.166 34.2607 159.157 36.3682C158.323 36.9571 159.594 37.205 160.091 36.8641C162.95 34.8703 164.499 38.5687 165.035 40.7381C165.184 41.3167 166.266 40.8518 166.475 40.5522C167.279 39.3538 168.43 36.079 167.14 34.8496C168.321 34.5603 169.483 34.612 170.654 35.2112Z" fill="#2E74FF"/>
<path d="M60.1432 84.0767C67.3908 75.6881 71.4118 65.3677 77.9248 56.5245C86.5127 44.861 100.353 35.367 114.898 36.4414C115.593 36.4931 116.437 35.4393 115.424 35.367C104.87 34.5922 95.2695 38.9621 86.9694 45.4912C77.4383 52.9914 72.8018 63.0949 66.5271 73.2501C53.2529 94.7588 31.8376 107.404 8.00971 111.898C7.06652 112.073 7.35444 113.075 8.26785 112.9C28.2734 109.119 46.4521 99.9138 60.1432 84.0767Z" fill="#2E74FF"/>
<path d="M246.239 93.7891C236.043 91.9089 226.015 91.5266 216.941 85.6898C208.194 80.0595 204.332 69.9353 206.178 59.6458C208.025 49.3357 215.809 39.3561 226.214 38.3437C225.836 39.7487 226.015 40.9264 228.08 41.5566C228.408 41.6496 229.411 41.5049 229.43 41.0297C229.51 38.9326 235.189 37.0214 231.764 40.6165C230.751 41.6806 230.294 42.3314 230.006 43.8604C229.917 44.3562 231.158 43.9017 231.317 43.7881C233.362 43.4058 233.968 44.1083 233.134 45.9059C232.429 48.4782 229.5 47.6001 227.911 47.5071C227.326 47.4761 226.68 47.6104 226.124 47.8274C224.675 48.3956 222.103 51.4122 223.712 53.0548C227.852 57.2697 232.052 51.2262 235.149 48.2613C234.742 50.7717 235.983 53.2821 238.793 51.2469C239.061 51.0506 239.329 50.6167 239.319 50.3171C239.269 47.9927 239.567 46.4947 240.917 44.5835C242.774 45.5133 242.933 46.5154 241.404 47.5898C240.997 47.9617 240.659 48.3853 240.391 48.8605C239.845 49.6766 240.659 50.937 241.027 51.6085C242.397 54.1188 246.011 50.937 246.775 49.6353C248.185 47.2489 249.039 44.7178 247.361 42.2591C245.753 39.8933 242.149 38.8396 243.082 36.1019C244.402 38.5813 247.838 37.5069 248.9 34.7176C249.833 32.2899 246.616 30.7919 245.077 30.0688C242.824 29.015 241.632 28.3125 240.888 25.7195C239.875 22.176 245.058 20.5334 245.365 24.3765C245.395 24.7277 246.894 24.4281 246.855 23.9633C246.497 19.552 242.427 19.6037 240.103 22.5273C238.594 24.4281 239.428 27.2381 240.729 28.9324C241.394 29.7898 242.953 30.296 243.866 30.7093C245.276 31.3498 246.358 31.8766 247.222 33.2403C248.294 34.9346 244.521 36.9284 244.124 34.2837C244.055 33.8498 242.854 34.3457 242.705 34.5317C239.815 38.0751 242.556 39.6144 245.266 42.0421C247.986 44.4802 246.636 48.096 244.77 50.596C242.873 53.1374 241.235 49.1807 242.764 47.5175C243.449 46.7737 243.866 46.2365 244.075 45.2034C244.581 42.786 241.523 43.1682 240.461 43.7674C239.617 44.2323 238.167 46.1435 237.86 47.0732C237.502 48.158 237.572 47.7138 237.651 48.9121C238.147 50.1312 237.701 50.3584 236.301 49.594C236.321 48.6125 236.529 47.6931 236.936 46.8253C237.105 46.4017 235.874 46.753 235.765 46.815C234.494 47.5278 233.769 48.1786 232.816 49.3667C232.33 50.0588 231.833 50.7407 231.307 51.4018C225.479 59.0053 221.815 47.3625 229.113 48.4369C230.354 48.6229 232.121 48.6539 233.114 47.6311C236.122 44.5215 234.553 41.7942 231.674 42.8583C232.26 41.2054 233.59 40.1516 235.07 39.1805C235.169 39.1082 235.308 38.9739 235.189 38.8499C232.538 36.0916 228.934 36.7528 228.11 40.2239C226.422 38.1991 230.384 33.4676 228.318 30.7609C226.67 28.6018 224.774 27.7857 222.282 28.5811C220.187 29.2526 219.502 31.4737 220.286 33.3953C220.445 33.7775 221.081 34.5833 221.319 34.9036C223.146 37.352 219.711 37.1557 218.738 35.3478C217.735 33.4883 217.963 30.8642 218.817 29.0357C218.837 28.9737 218.827 28.922 218.777 28.891C216.702 27.0418 213.932 26.174 212.761 29.4282C212.155 31.1018 212.284 33.1783 212.274 34.9242C212.255 37.1867 209.693 32.9304 209.375 32.3519C208.819 31.3498 207.648 30.482 206.854 29.6452C205.384 28.1162 202.167 28.953 200.47 29.3249C196.578 30.1721 193.291 26.8972 189.439 27.9303C187.096 28.5605 185.269 29.5625 183.631 31.4737C182.787 32.4552 182.688 33.5399 182.668 34.7589C182.758 35.2858 182.936 35.7714 183.204 36.2156C181.149 33.6535 181.705 37.9512 180.524 34.6556C180.375 34.2527 179.263 34.6556 179.104 34.9036C175.321 40.6268 181.179 40.8644 184.783 43.5401C187.315 45.4203 186.401 48.4782 183.333 46.877C181.735 46.0402 181.755 44.1806 180.921 42.7653C180.444 41.9492 178.985 42.2384 178.32 42.5587C176.264 43.5401 176.483 44.7178 177.476 46.8356C177.734 47.2695 177.913 47.7344 178.012 48.2406C179.233 52.7449 176.671 47.8067 174.527 49.9452C175.401 49.0774 175.073 47.5795 174.795 46.5877C173.663 42.538 168.947 44.6455 168.093 47.4142C167.945 48.0237 167.796 48.6332 167.637 49.2427C167.339 51.0196 166.018 51.3399 163.685 50.2138C163.219 48.9844 163.586 47.2385 163.427 45.9265C163.239 44.3976 161.273 43.2922 159.903 43.5298C158.453 43.7777 157.778 44.3666 157.113 45.7302C156.596 46.784 157.579 48.9225 156.517 48.5506C155.018 48.0237 153.608 47.0113 152.258 46.1951C149.875 44.7488 146.609 42.3417 143.878 44.2116C142.598 45.0794 143.005 47.7551 143.332 48.9225C143.62 49.9245 144.702 50.844 145.348 51.5671C147.095 53.2924 145.507 53.7159 140.582 52.8275C138.825 51.7531 139.44 49.0361 139.828 47.5691C139.957 47.0732 138.656 47.5588 138.517 47.6414C137.117 48.5092 136.194 49.4597 136.204 51.3089C136.214 52.3936 136.283 53.468 136.333 54.5424C136.472 57.2697 133.622 58.8503 132.391 56.1334C131.101 53.2924 131.905 51.5052 128.072 51.7634C126.911 51.8461 125.789 52.4556 124.766 52.9825C123.347 53.7159 118.849 53.1787 122.513 50.4101C122.82 50.1828 123.595 49.7593 123.764 49.3357C124.3 47.972 122.235 44.6972 121.599 43.6021C120.716 42.0835 118.68 40.5235 116.923 40.3892C110.162 39.8417 100.293 43.3748 96.3615 49.4493C89.2727 60.4 82.6307 75.6895 83.9908 89.1609C84.0306 89.5225 85.5198 89.2125 85.4801 88.7477C84.1695 75.7722 90.4641 62.0219 96.6494 51.1126C100.224 44.8005 105.744 43.2922 112.207 41.5049C117.29 40.1 119.594 42.7033 121.609 46.8356C122.056 47.7551 122.384 49.625 121.371 50.3171C121.093 50.5134 120.04 51.2366 119.991 51.6704C119.753 53.8606 120.974 55.0073 122.92 54.5734C123.893 54.3565 124.796 53.7573 125.66 53.2717C130.644 50.4927 130.078 54.7077 131.21 57.1974C131.905 58.7264 133.662 59.0053 135.022 58.2822C138.815 56.2677 136.889 52.4143 138.06 49.625C137.802 53.3854 140.652 54.5321 144.534 54.3978C145.387 54.3668 148.833 53.8709 147.631 52.1353C146.331 50.2758 144.762 49.1704 144.544 46.722C144.156 42.2901 149.269 45.7922 150.878 46.753C152.943 47.9927 155.455 50.0588 157.996 49.408C158.155 49.3667 158.721 49.1911 158.671 48.9225C158.314 47.8067 158.284 46.66 158.612 45.4926C160.439 44.3562 161.561 44.6455 161.978 46.3604C162.325 47.3832 162.097 48.7778 162.127 49.8522C162.186 51.7634 163.467 52.4143 165.145 52.3213C166.525 52.249 167.488 51.7944 168.401 50.751C168.987 50.0898 169.166 48.9225 169.384 48.096C169.513 47.4968 169.672 46.9183 169.871 46.3398C171.032 46.567 172.194 46.7943 173.355 47.0216C173.991 48.4162 173.643 49.7179 172.313 50.9473C172.263 50.9886 172.243 51.0506 172.243 51.1126C173.216 53.2821 178.816 55.7821 179.809 51.9494C180.345 49.8936 179.441 47.3832 178.578 45.5236C177.714 43.6641 179.779 43.4885 180.345 45.472C180.722 46.7943 181.715 47.3109 182.837 47.8997C183.651 48.3233 188.288 49.346 188.039 46.908C187.454 41.226 178.071 41.3913 179.68 36.4739C181.159 39.2632 183.462 39.9863 186.213 37.7859C186.302 37.7135 186.461 37.5792 186.332 37.4553C180.375 32.1762 188.794 27.3931 194.344 29.4489C195.724 29.9551 197.312 30.544 198.812 30.2754C203.15 29.4902 206.159 29.6142 208.343 33.5606C208.899 34.5627 209.316 36.04 210.517 36.4222C211.321 36.6701 213.476 36.2982 213.754 35.3478C213.972 34.5833 213.803 33.5089 213.813 32.7238C213.833 31.7733 213.932 30.8229 214.091 29.8828C214.459 27.6927 217.785 28.4365 217.02 30.0688C215.124 34.1598 219.472 41.3293 223.464 36.9077C223.99 36.3292 223.573 35.5544 223.195 35.0482C222.52 34.1391 221.875 33.2816 221.448 32.2279C222.778 31.4014 224.109 30.5853 225.449 29.7588C226.323 30.389 226.958 31.2361 227.365 32.2899C228.09 33.7775 227.256 35.5647 226.631 37.2073C208.958 38.5813 199.278 61.7017 207.102 77.1772C211.748 86.3613 221.905 90.9171 231.208 92.7973C241.781 94.9358 256.425 93.9854 263.911 103.572C264.358 104.141 265.768 103.51 265.272 102.88C260.655 96.8883 253.08 95.0495 246.239 93.7891Z" fill="#2E74FF"/>
<path d="M263.505 92.0624C262.979 91.8971 261.748 92.7029 262.611 92.9715C267.486 94.5005 273.691 98.1576 273.94 104.108C273.959 104.676 275.449 104.346 275.429 103.695C275.171 97.4758 268.578 93.6534 263.505 92.0624Z" fill="#2E74FF"/>
<path d="M256.138 108.426C250.806 112.486 245.554 106.701 240.55 105.12C237.651 104.211 234.375 105.327 231.555 105.967C225.737 107.279 225.211 98.1262 218.738 98.8803C217.447 99.0353 217.04 99.0973 215.799 99.4588C211.311 100.761 211.182 100.13 209.207 97.4857C207.062 94.6034 204.928 94.2831 201.592 94.6654C193.252 95.6261 186.322 104.893 177.793 102.372C175.927 101.825 174.249 100.926 172.631 100.017C173.157 99.8824 173.683 99.4382 173.197 99.1696C165.512 94.872 159.982 86.4214 159.337 77.3199C159.297 76.6898 157.798 77.0514 157.848 77.7332C158.413 85.8222 162.841 93.4257 169.156 98.1365C166.575 96.8865 163.894 96.1737 160.568 97.3307C159.208 97.8059 157.897 98.4671 156.557 99.0043C150.282 101.515 151.096 97.2687 152.933 94.5207C153.698 93.374 154.809 91.2872 152.983 90.4504C151.245 89.6549 149.15 89.1797 147.294 89.9235C146.162 90.3781 145.189 90.9359 144.166 91.6178C138.517 95.3782 140.046 90.8533 136.849 89.7376C136.522 89.6239 136.194 89.5516 135.876 89.4896C134.665 86.1631 134.387 82.6713 134.367 79.0968C134.367 78.7559 132.878 79.0142 132.878 79.5101C132.898 82.9089 133.156 86.2354 134.218 89.407C133.007 89.4793 131.816 89.7995 130.604 89.9958C130.545 84.8614 130.267 79.9543 132.282 75.0988C132.61 74.3034 131.121 74.3447 130.862 74.9439C128.807 79.8923 129.046 84.9028 129.105 90.1611C128.48 90.1921 127.844 90.1508 127.189 90.0062C122.96 89.0557 126.971 84.9854 126.841 82.2891C126.841 82.1858 126.633 82.1548 126.573 82.1548C125.779 82.1444 125.074 82.3407 124.31 82.568C122.771 83.0226 120.636 83.973 119.127 83.2292C119.475 81.2043 120.408 80.2952 121.937 80.4812C122.304 80.4605 122.662 80.4295 123.029 80.3882C124.34 80.1299 127.596 78.1464 125.67 76.4212C123.674 74.6339 120.577 75.2228 118.333 76.1422C117.35 76.5451 116.367 77.3923 115.831 78.3324C115.335 79.2105 114.888 80.1093 114.431 81.008C112.644 82.4337 112.376 82.444 113.617 81.0184C114.044 80.3469 114.56 79.7477 115.156 79.2415C115.215 79.1898 115.265 79.0659 115.176 79.0039C110.916 76.2765 107.739 78.4667 105.744 82.7849C104.761 84.9234 104.076 87.1859 103.292 89.407C103.272 88.7458 102.606 88.0433 101.872 87.5784C100.879 83.2808 100.74 78.9729 101.554 74.5823C101.683 73.9005 100.174 74.1277 100.055 74.7373C99.2805 78.8799 99.35 82.9502 100.164 87.0102C98.516 87.0722 96.9077 87.4855 95.3986 88.1466C95.3986 85.192 95.4383 82.1754 96.3815 79.3551C96.6495 78.539 95.1702 78.6113 94.9716 79.2208C93.9292 82.351 93.8994 85.6259 93.8994 88.9008C93.8497 88.9318 93.8001 88.9628 93.7405 88.9938C92.5293 83.6321 93.4824 78.0948 95.7262 73.136C95.9248 72.7021 94.4554 72.8674 94.2469 73.3426C91.9038 78.5183 90.9805 84.3242 92.3704 89.8925C92.2711 89.9648 92.1719 90.0268 92.0726 90.0991C90.7323 91.1219 89.799 92.7335 88.8657 94.1281C87.2276 96.5972 85.7284 99.5622 81.7174 98.4258C80.3373 98.0332 79.0665 97.0931 77.6269 96.8968C75.959 96.6799 74.3307 96.7005 72.7025 97.2377C67.6788 98.901 63.5188 101.101 57.8696 100.275C60.7091 96.9691 62.655 92.3719 64.2733 88.7665C64.462 88.3532 63.0025 88.5185 62.794 88.9834C60.451 94.2108 56.8172 103.787 50.1553 103.767C49.639 103.767 48.5569 104.573 49.5596 104.573C52.6771 104.583 55.1592 103.126 57.2143 100.988C62.0494 101.639 65.6435 100.74 70.1509 98.777C76.5447 95.998 78.1332 99.2109 83.2761 99.5208C83.703 99.5518 84.1597 99.4588 84.6065 99.3245C83.3456 100.337 82.6804 103.354 80.516 102.455C79.1459 101.887 77.895 100.781 76.3561 100.73C72.6429 100.595 69.8133 102.796 67.0433 105.11C66.3781 105.668 67.8674 105.678 68.2347 105.368C71.243 102.847 74.7775 100.709 78.6595 102.858C79.6424 103.405 80.4565 103.736 81.5486 103.54C82.1641 103.426 82.9187 103.157 83.3754 102.682C83.8023 102.238 83.981 102.021 84.3583 101.525C84.6164 101.132 84.8845 100.74 85.1526 100.347C88.9154 100.203 89.3224 100.977 86.3837 102.672C85.8277 102.672 84.8051 103.56 85.8078 103.55C87.6644 103.54 90.0174 102.951 89.799 100.554C89.6401 98.715 87.2276 98.4981 85.6788 98.87C88.9551 97.0724 90.2756 93.3017 92.8172 90.719C93.2838 90.812 94.1277 90.4814 94.0185 90.0888C93.9887 89.9752 93.959 89.8615 93.9292 89.7376C94.0781 89.6239 94.2369 89.5103 94.3958 89.407C94.8128 89.4483 95.3291 89.221 95.3688 88.8594C96.8679 88.1053 98.9926 87.1962 100.353 87.9193C100.472 88.4256 100.591 88.9318 100.73 89.438C100.809 89.7272 101.177 89.7892 101.524 89.7169C101.653 90.3781 101.346 90.4194 100.829 90.812C99.6181 91.7107 98.4763 92.6922 97.4438 93.8079C94.6043 96.8658 101.226 95.7398 102.745 93.5806C104.493 91.1116 105.237 87.785 106.24 84.9544C106.866 83.1982 107.581 81.4729 108.623 79.9336C109.735 78.291 111.443 78.2807 112.972 79.0452C114.014 79.5617 111.046 82.5473 110.708 82.8779C110.519 83.0639 110.758 83.1568 110.907 83.1775C112.575 83.3841 114.381 83.1982 115.384 81.5556C116.903 79.0762 121.679 71.7826 124.488 77.4439C125.729 79.9543 120.467 79.8407 119.266 80.1713C117.559 80.6465 116.506 82.1031 117.717 83.756C118.958 85.4503 125.67 81.9895 125.233 84.3346C124.905 86.1321 121.778 89.1177 124.846 90.2231C126.236 90.719 127.685 91.2045 129.175 90.9876C129.463 91.4112 130.475 91.1942 130.575 90.6777C131.855 90.3368 133.166 89.9338 134.476 90.1508C134.615 90.5124 134.754 90.874 134.913 91.2252C135.082 91.5971 136.144 91.2769 136.363 90.9669C136.402 90.9979 136.442 91.0186 136.482 91.0496C137.246 91.6488 137.763 92.9195 138.815 93.1157C141.347 93.5806 143.114 93.0847 145.298 91.6901C146.132 91.1529 153.549 88.9628 152.288 93.25C152.069 93.9835 151.384 94.81 151.017 95.3678C150.501 96.153 149.25 97.7336 150.014 98.7563C151.513 100.781 153.866 100.502 156.001 99.7584C159.545 98.5291 162.017 96.7315 166.118 97.6923C169.345 98.4464 172.105 101.153 175.162 102.403C185.597 106.67 192.329 96.308 202.316 95.1509C207.628 94.5414 207.956 101.184 213.118 100.792C215.829 100.585 218.261 99.1489 221.091 99.9031C223.057 100.43 224.774 103.922 226.015 105.378C227.544 107.176 228.259 107.321 230.433 106.783C235.487 105.523 239.776 105.316 244.541 108.054C246.527 109.201 248.622 110.544 250.935 110.74C253.427 110.957 255.304 109.965 257.25 108.488C257.915 108.044 256.426 108.209 256.138 108.426ZM102.06 92.5062C101.693 93.3017 101.197 94.0248 100.631 94.686C99.8365 94.6654 99.0323 94.6447 98.238 94.6137C98.526 94.0868 98.8834 93.6219 99.3103 93.219C100.323 92.1343 101.564 91.2252 102.755 90.3677C102.875 90.2748 102.974 90.1921 103.053 90.0888C102.745 90.9153 102.428 91.7211 102.06 92.5062Z" fill="#2E74FF"/>
<path d="M64.2921 104.015C63.1901 105.11 61.9292 105.74 60.3903 105.472C59.7251 105.358 58.8514 106.308 59.8443 106.484C61.9888 106.856 63.9844 105.906 65.5133 104.377C66.1686 103.736 64.7091 103.602 64.2921 104.015Z" fill="#2E74FF"/>
<path d="M227.058 108.344C226.254 109.181 225.43 109.976 224.576 110.761C220.128 114.842 219.125 111.619 217.527 109.294C216.633 107.992 214.678 106.99 213.129 107.125C211.203 107.29 209.733 108.065 208.125 109.16C207.877 109.325 203.081 112.59 203.935 109.48C204.451 107.61 204.412 106.629 203.786 104.718C203.697 104.459 203.349 104.48 203.141 104.49C193.689 105.069 185.22 111.009 175.62 108.84C171.956 108.013 168.759 105.183 164.996 104.79C160.797 104.356 156.657 107.321 152.616 106.711C149.558 106.247 146.907 104.728 143.72 105.131C141.705 105.389 140.95 105.017 139.62 103.685C139.123 103.189 138.657 102.672 137.912 102.641C136.006 102.558 134.467 103.406 132.839 104.366C129.989 106.05 125.849 106.67 126.226 102.249C126.356 100.751 126.405 99.4386 126.167 97.951C126.147 97.8167 125.978 97.765 125.879 97.734C123.675 97.2071 121.997 97.579 120.2 98.984C118.969 99.9448 118.046 101.401 116.934 102.497C115.732 102.259 114.521 102.021 113.32 101.784C113.558 101.143 113.707 100.472 113.786 99.7898C113.876 99.2423 113.766 98.8187 113.647 98.3022C112.664 93.8806 101.912 99.5522 100.165 100.317C99.2115 100.74 100.085 101.257 100.75 100.957C102.488 100.193 104.225 99.4076 105.993 98.7258C107.432 98.1679 111.046 96.6906 112.158 98.7154C112.833 99.9551 111.761 102.125 111.334 103.23C111.284 103.344 111.394 103.468 111.483 103.509C113.608 104.439 115.375 104.542 117.39 103.333C118.353 102.755 119.098 101.742 119.823 100.885C120.21 100.43 124.231 95.6885 124.836 99.4283C125.035 100.647 124.757 102.135 124.648 103.385C124.38 106.505 126.256 107.104 128.887 107.135C132.233 107.166 137.346 100.141 139.034 106.546C139.103 106.794 139.491 106.804 139.679 106.773C143.055 106.154 146.053 105.885 149.429 106.856C151.027 107.321 152.447 107.889 154.135 107.662C157.322 107.249 160.151 105.606 163.438 105.565C166.635 105.523 170.06 107.992 172.979 109.139C176.811 110.637 181.259 110.689 185.21 109.728C187.881 109.077 190.472 108.199 193.084 107.331C196.489 106.205 206.487 102.817 201.662 110.947C201.562 111.112 201.612 111.236 201.761 111.34C207.311 114.924 212.166 103.116 217.13 111.443C220.178 116.567 225.768 111.164 228.25 108.602C228.875 107.961 227.406 107.982 227.058 108.344Z" fill="#2E74FF"/>
<path d="M119.325 87.2695C119.147 86.846 118.611 86.7736 118.243 86.9906C114.401 89.253 112.068 91.7324 107.352 91.8564C106.478 91.8771 106.23 93.0858 107.233 93.0548C111.998 92.9308 114.341 90.782 118.094 88.4576C118.541 90.1312 118.204 91.7634 117.519 93.4163C117.33 93.8606 117.797 94.1602 118.174 94.1188C120.14 93.9329 121.778 93.1477 123.535 92.3833C123.456 93.2717 123.386 94.0155 122.731 95.0486C122.413 95.5445 122.81 95.9061 123.307 95.9061C124.885 95.8957 126.404 95.8131 127.953 95.5135C128.906 95.3275 128.589 94.2015 127.665 94.3874C126.573 94.5941 125.531 94.6664 124.458 94.6974C124.935 93.6333 124.965 92.7242 125.153 91.3502C125.243 90.72 124.399 90.7717 124.061 90.906C122.433 91.5671 120.993 92.3936 119.296 92.7655C119.981 90.8853 120.159 89.3047 119.325 87.2695Z" fill="#2E74FF"/>
<path d="M138.815 101.856C138.815 101.37 138.706 101.008 138.19 100.936C137.832 100.884 137.415 100.977 137.137 101.225C136.909 101.432 136.959 101.711 137.276 101.763C137.346 101.773 137.336 102.217 137.336 102.269C137.336 102.744 138.825 102.455 138.815 101.856Z" fill="#2E74FF"/>
<path d="M85.7377 65.3575C82.4713 70.6262 73.8436 94.6866 84.4669 95.8333C85.142 95.9057 86.0058 94.8932 85.003 94.7899C75.8889 93.8085 84.4073 69.9134 87.1476 65.4918C87.5745 64.7996 86.0654 64.8409 85.7377 65.3575Z" fill="#2E74FF"/>
<path d="M75.8199 82.0525C74.2611 87.7344 76.3461 93.1168 79.96 97.435C80.4167 97.9826 81.8265 97.3524 81.3202 96.7429C77.9445 92.7035 75.7802 87.6105 77.2496 82.2384C77.4878 81.3707 76.0085 81.3707 75.8199 82.0525Z" fill="#2E74FF"/>
<path d="M74.54 94.7485C73.9344 92.0522 73.8251 89.3042 73.5174 86.5666C73.4876 86.2876 71.9884 86.5975 72.0281 86.9798C72.3359 89.7174 72.4451 92.4654 73.0507 95.1618C73.1302 95.4717 74.6194 95.0791 74.54 94.7485Z" fill="#2E74FF"/>
<path d="M71.4513 74.5417C71.5208 74.2008 70.0713 74.4384 69.9819 74.8207C68.86 79.9137 66.7254 84.8002 62.8633 88.261C62.5456 88.54 63.9356 88.385 64.2036 88.1371C68.1154 84.6246 70.3195 79.6968 71.4513 74.5417Z" fill="#2E74FF"/>
<path d="M66.5561 90.2034C69.3261 87.2178 71.0834 83.602 72.4535 79.7486C72.7514 78.9015 71.2621 78.9015 71.0338 79.5627C69.6935 83.3128 68.0056 86.8356 65.3051 89.7385C64.6598 90.441 66.0895 90.7096 66.5561 90.2034Z" fill="#2E74FF"/>
<path d="M13.8966 105.719C13.013 105.926 13.1619 106.463 14.0356 106.256C32.5718 101.814 46.5012 90.0368 58.7527 75.3464C59.0803 74.9538 57.6407 75.1398 57.4024 75.4394C45.4785 89.7165 31.9959 101.38 13.8966 105.719Z" fill="#2E74FF"/>
<path d="M201.661 41.2254C193.37 50.7608 191.881 66.3086 201.661 75.3377C202.048 75.6993 203.438 75.1001 203.041 74.7385C193.42 65.8541 194.889 50.6265 203.041 41.2564C203.468 40.7606 201.978 40.8639 201.661 41.2254Z" fill="#2E74FF"/>
<path d="M196.199 76.7726C200.836 83.5083 204.469 90.0373 211.826 92.7647C213.385 93.6118 215.083 94.242 216.939 94.6036C217.337 94.6862 218.677 94.0147 217.873 93.8597C217.168 93.7151 216.493 93.5395 215.827 93.3225C216.135 93.0849 216.264 92.7853 215.798 92.6924C214.467 92.4238 213.256 92.0415 212.124 91.5663C209.066 89.6344 206.634 86.7728 204.817 83.3533C204.569 82.8884 203.149 83.4256 203.328 83.7665C203.715 84.5 204.142 85.2129 204.589 85.8947C202.067 83.0227 199.962 79.5826 197.579 76.1218C197.222 75.6259 195.792 76.1837 196.199 76.7726Z" fill="#2E74FF"/>
<path d="M95.7957 47.7232C96.6793 47.4339 96.4609 46.5351 95.5674 46.8347C91.1791 48.2811 88.3495 51.7832 85.788 55.5953C82.3528 60.7193 78.9971 69.3042 72.1763 69.9241C71.4019 69.9964 70.975 70.9881 72.0075 70.8952C84.2392 69.7898 84.8945 51.3286 95.7957 47.7232Z" fill="#2E74FF"/>
<path d="M104.97 84.0765C104.97 81.9587 104.999 79.8616 105.307 77.7644C105.387 77.2582 103.897 77.5372 103.828 77.9917C103.51 80.1508 103.48 82.31 103.48 84.4898C103.48 84.872 104.97 84.6034 104.97 84.0765Z" fill="#2E74FF"/>
<path d="M179.113 89.708C178.934 89.5014 178.249 89.6874 177.892 89.925C176.869 87.7555 176.065 85.4104 175.39 83.0137C175.251 82.5385 173.771 82.962 173.901 83.4269C175.976 90.7824 179.192 97.5698 186.351 100.648C186.748 100.824 188.108 100.194 187.552 99.9562C183.332 98.1483 180.533 94.9871 178.527 91.206C181.416 94.5635 184.772 98.2413 189.081 99.1917C189.438 99.2743 190.739 98.6752 190.302 98.5718C189.816 98.4685 189.339 98.3136 188.872 98.138C189.349 98.0347 189.885 97.7351 189.706 97.5388C187.929 95.6896 186.241 93.8197 184.961 91.5572C184.722 91.1337 183.322 91.7019 183.471 91.9705C184.703 94.1503 186.311 95.9892 188.009 97.7764C184.484 96.0821 181.615 92.611 179.113 89.708Z" fill="#2E74FF"/>
<path d="M170.268 63.178C170.189 61.6697 170.913 60.3887 171.36 59.0353C171.648 58.1572 172.105 57.3307 172.452 56.4733C172.651 55.9774 172.879 55.4505 172.313 54.7687C171.866 55.5229 171.42 56.1634 171.092 56.8555C170.745 57.5684 170.347 58.1262 169.613 58.4671C169.275 58.6324 168.987 59.1283 168.858 59.5312C168.491 60.6986 168.213 61.897 167.895 63.085C167.855 63.2296 167.746 63.3433 167.577 63.6325C167.2 62.7957 167.27 62.0829 167.359 61.3907C167.538 60.0787 167.369 58.839 166.803 57.6613C166.525 57.0725 166.535 56.5146 166.843 55.9568C167.121 55.4609 167.309 54.965 166.952 54.3348C166.654 54.4175 166.356 54.4898 165.88 54.6241C166.039 53.7666 166.178 53.0228 166.346 52.1344C164.797 52.6612 165.075 54.4071 164.142 55.3059C163.795 54.9133 163.596 54.6344 163.348 54.4381C162.951 54.1282 162.504 54.3658 162.504 54.8927C162.504 55.2646 162.593 55.6572 162.703 56.0187C162.971 56.8555 163.278 56.9485 163.954 56.4113C164.371 56.0807 164.758 55.7191 165.175 55.3576C165.661 56.2253 165.562 56.6179 164.847 56.8452C164.46 56.9588 164.043 57.0312 163.636 57.0725C162.722 57.1655 162.127 57.5684 161.879 58.5601C161.68 59.3762 161.293 60.1511 161.064 60.9569C160.042 64.6243 159.496 68.364 159.436 72.1761C159.426 72.5687 159.555 73.0542 158.96 73.3435C158.294 72.7133 158.096 71.8455 158.056 70.9674C157.997 69.4384 157.917 67.8888 158.036 66.3599C158.215 64.0251 158.533 61.7007 158.831 59.3762C158.92 58.6634 159.148 57.9713 159.337 57.2791C159.446 56.8555 159.585 56.4526 159.009 56.153C158.344 56.9898 157.679 57.7853 157.242 58.8287C156.468 60.6883 156.299 62.7028 155.703 64.614C155.644 64.7999 155.584 64.9755 155.534 65.1615C155.445 65.1512 155.356 65.1305 155.276 65.1202C155.336 64.428 155.376 63.7255 155.465 63.0437C155.515 62.5788 155.663 62.1242 155.693 61.6593C155.713 61.2874 155.763 60.7709 155.564 60.554C154.929 59.8515 154.859 58.9837 154.71 58.0022C154.065 58.2812 153.559 58.1882 153.261 57.3721C152.993 57.713 152.824 57.9196 152.665 58.1469C152.476 58.4155 152.347 58.7874 152.099 58.9527C151.077 59.6242 150.63 60.6263 150.382 61.7833C150.292 62.2172 150.183 62.6098 149.558 62.6304C149.051 60.461 150.699 58.8184 150.868 56.7935C150.203 56.7729 150.054 57.2688 149.875 57.651C149.2 59.1076 148.565 60.5849 147.89 62.0313C147.631 62.5891 147.314 63.116 146.956 63.7772C146.271 62.899 146.738 62.1449 146.668 61.4424C146.599 60.7089 146.38 59.9961 146.202 59.1386C145.944 59.3969 145.705 59.6345 145.477 59.8618C144.871 59.7998 144.286 59.7275 143.61 59.6552C143.779 58.932 144.435 58.7564 144.881 58.6428C146.142 58.3122 145.825 56.9795 146.45 56.2667C146.47 56.246 146.46 56.1634 146.44 56.1427C145.904 55.7088 145.398 55.2233 144.812 54.8823C144.365 54.6241 143.898 54.903 143.63 55.3059C142.796 56.5663 141.952 57.8266 141.218 59.149C140.523 60.3887 139.967 61.711 139.341 62.992C139.312 63.054 139.212 63.0747 139.093 63.1367C138.607 62.6614 138.785 62.0932 139.004 61.6284C139.599 60.3783 140.275 59.1696 140.92 57.9506C141.079 57.651 141.248 57.3514 141.367 57.0415C142.191 54.9753 143.342 53.1364 144.792 51.4835C145.139 51.0806 145.13 51.0703 145.03 50.3471C144.266 50.4401 144.107 51.2252 143.65 51.6488C143.164 52.093 142.757 52.6199 142.29 53.1468C142.201 53.1158 142.072 53.1054 141.972 53.0538C140.9 52.4339 140.662 52.4856 139.858 53.3534C138.18 55.1406 136.889 57.2171 135.837 59.4382C134.804 61.6077 133.781 63.7772 132.868 65.9983C132.411 67.114 132.233 68.3537 131.905 69.5211C131.657 70.3992 131.379 71.267 131.091 72.2071C130.882 72.0315 130.783 71.9695 130.783 71.9385C131.111 69.5521 131.329 67.145 132.431 64.9342C132.809 64.1801 132.878 63.2503 133.146 62.1862C132.531 62.961 132.044 63.5809 131.508 64.2524C130.922 63.7668 131.21 63.2916 131.419 62.7957C131.657 62.2172 131.895 61.6284 132.074 61.0188C132.173 60.6779 132.084 60.3267 131.558 60.2337C130.525 61.3391 130.187 62.992 129.095 64.2627C128.728 63.5912 128.857 63.0953 129.075 62.6511C129.552 61.6697 130.098 60.7192 130.594 59.7378C130.863 59.211 131.111 58.6737 131.339 58.1262C131.577 57.558 131.478 57.0621 130.952 56.5663C130.724 56.7316 130.455 56.8555 130.297 57.0621C129.056 58.6428 127.815 60.2234 126.603 61.8246C126.127 62.4652 125.749 63.1263 124.876 63.3226C124.121 63.4879 123.933 64.3454 123.645 64.9755C123.267 65.771 123.069 66.6595 122.731 67.4756C122.473 68.0748 122.116 68.6326 121.808 69.2112C121.719 69.1905 121.639 69.1698 121.55 69.1492C121.5 68.9322 121.371 68.6946 121.411 68.4983C121.877 66.6078 122.165 64.6656 123.128 62.93C123.635 62.0106 124.101 61.0705 124.568 60.1304C124.697 59.8618 124.737 59.5312 124.816 59.2316C124.727 59.18 124.647 59.1386 124.558 59.087C123.535 60.5126 122.513 61.9279 121.451 63.4053C120.904 62.93 121.192 62.4755 121.451 62.0726C122.483 60.4403 123.516 58.8081 124.568 57.1964C124.796 56.8452 125.045 56.5249 124.826 55.8741C123.019 57.8886 121.669 60.0891 119.932 62.2275C119.981 60.9052 120.656 59.9754 120.815 58.87C118.015 61.9279 116.665 65.9053 114.679 69.6451C114.034 68.9219 114.153 68.2401 114.302 67.5272C114.491 66.6285 114.63 65.709 114.799 64.7483C113.637 64.9135 113.419 65.7503 113.15 66.8661C112.833 66.2049 112.644 65.802 112.465 65.4198C112.336 65.4508 112.277 65.4404 112.267 65.4611C111.919 66.3805 111.572 67.2896 111.224 68.2091C111.195 68.2917 111.214 68.395 111.175 68.457C110.251 69.7277 110.539 71.329 110.063 72.7236C109.795 73.5088 109.695 74.2836 110.46 74.9344C110.698 75.1307 110.768 75.6162 110.807 75.9778C110.907 77.1659 110.956 78.3642 111.026 79.5523C111.085 80.5854 111.115 80.668 111.78 81.5565C111.969 80.5337 112.128 79.6556 112.287 78.7671C112.366 78.7465 112.446 78.7362 112.515 78.7155C112.882 81.0089 114.074 82.8788 115.225 84.9243C115.762 84.635 116.258 84.3871 116.745 84.0978C117.38 83.7259 117.628 83.1371 117.608 82.3829C117.598 81.9284 117.678 81.4738 117.717 80.9779C118.045 81.0296 118.273 81.0709 118.532 81.1122C118.681 78.9428 118.82 76.8043 118.968 74.6658C119.068 74.6658 119.167 74.6555 119.266 74.6555C119.316 74.9138 119.405 75.172 119.415 75.4303C119.485 76.7526 119.524 78.075 119.614 79.3973C119.654 79.9449 119.485 80.5957 120.13 81.0709C120.756 80.1411 120.368 79.1391 120.468 78.2196C120.567 77.3105 120.567 76.3911 120.617 75.482C120.716 75.482 120.815 75.482 120.914 75.482C120.954 76.1431 121.004 76.8146 121.043 77.4758C121.073 78.1163 121.073 78.7568 121.123 79.3973C121.192 80.3478 121.441 80.4821 122.304 80.0895C122.622 79.9449 122.95 79.8415 123.307 79.7072C123.317 79.9449 123.357 80.0792 123.327 80.0998C121.401 81.5358 119.485 83.0028 117.519 84.3974C116.069 85.4202 114.59 86.4016 113.081 87.3107C112.307 87.7756 111.443 88.0959 110.609 88.4264C110.301 88.5504 109.924 88.5091 109.715 88.5297C109.328 86.7632 108.921 85.1826 108.633 83.571C108.157 80.9573 108.107 78.3229 108.673 75.7092C108.713 75.5026 108.822 75.2857 108.802 75.0894C108.663 73.3022 109.318 71.6492 109.725 69.9756C110.152 68.2297 110.887 66.5561 111.522 64.8722C112.317 62.7751 113.488 60.8845 114.66 59.0147C115.364 57.8886 116.189 56.8039 117.132 55.8844C117.847 55.1819 118.432 54.3555 119.167 53.6736C119.892 52.9918 120.567 52.248 121.331 51.6281C122.324 50.8223 123.396 50.1199 124.409 49.345C124.796 49.0454 125.134 48.6735 125.62 48.219C124.628 48.1777 123.923 48.5599 123.327 48.9938C121.659 50.2128 120.031 51.5145 118.442 52.8472C117.32 53.777 116.367 54.934 115.186 55.7501C112.515 57.589 110.351 60.0684 107.779 62.0313C106.042 63.3639 104.433 64.8826 102.726 66.2669C101.564 67.207 100.77 68.4364 100.125 69.7587C98.6651 72.765 97.3843 75.8642 95.8554 78.8291C94.3463 81.7424 92.6485 84.5524 90.9905 87.383C90.6331 87.9925 90.0771 88.4678 89.5708 88.974C89.402 89.1393 89.1439 89.3149 88.9354 89.3046C88.1312 89.2632 87.4362 89.4698 86.8008 90.0484C86.8306 89.3355 87.2873 88.9326 87.6943 88.5194C89.3524 86.8458 90.3948 84.697 91.7351 82.7755C91.7947 82.6928 91.6954 82.4966 91.6359 82.1763C91.199 82.7135 90.7423 83.0648 90.5735 83.54C90.3353 84.1701 89.8984 84.3354 89.3722 84.4801L89.402 84.5111C89.6006 83.8706 89.7594 83.2404 90.3353 82.7755C90.7324 82.4552 90.921 81.8664 91.2586 81.4428C91.5068 81.1329 91.8444 80.9056 92.1422 80.637C92.1819 80.9056 92.2117 81.1639 92.2812 81.6288C92.6783 80.9779 92.4103 80.8126 92.1124 80.668C92.1521 80.4614 92.1819 80.2651 92.2415 79.9345C92.5791 80.1411 92.8273 80.2961 93.1747 80.513C94.3761 78.0337 95.5575 75.6266 96.7092 73.1885C97.0468 72.4757 97.5134 71.9282 98.0992 71.4426C98.5857 71.0397 98.9729 70.5025 99.5289 69.893C98.7147 69.6864 98.3871 70.0066 98.0893 70.4199C97.8708 70.7195 97.6822 71.1224 97.3843 71.2567C96.0738 71.8352 95.1505 72.9302 94.0584 73.7877C93.8797 73.9323 93.6513 74.0047 93.3535 74.1596C93.3038 73.4778 93.7605 73.2298 94.0584 72.9612C95.4285 71.7009 96.8482 70.4922 98.2283 69.2422C100.442 67.2276 102.676 65.2235 104.85 63.1676C106.876 61.2461 108.822 59.2213 110.847 57.2998C113.081 55.1716 115.374 53.1158 117.648 51.0186C118.015 50.6777 118.422 50.3678 118.72 49.9649C120.229 47.8677 122.473 46.8657 124.618 45.7499C124.985 45.5536 125.561 45.7396 126.027 45.8222C126.375 45.8842 126.713 46.1838 127.05 46.1838C128.41 46.1528 129.592 45.4607 131.002 45.0578C130.326 44.2416 129.532 44.7995 128.788 44.3553C129.095 44.2106 129.304 44.066 129.532 44.0247C132.074 43.6218 134.615 43.1982 137.167 42.8573C139.063 42.6094 140.93 42.7643 142.717 43.5598C142.945 43.6631 143.164 43.7767 143.372 43.911C145.11 45.0681 145.328 46.6074 143.918 48.1673C143.243 48.9111 142.449 49.5207 141.684 50.1612C141.277 50.4918 140.97 50.843 140.95 51.3802C141.307 51.8348 141.645 51.6901 141.943 51.4319C142.568 50.874 143.164 50.2955 143.759 49.7169C144.335 49.1591 144.911 48.6219 145.755 48.5496C146.5 48.4773 146.917 48.7045 147.234 49.3967C147.373 49.7066 147.542 50.0165 147.592 50.3471C147.741 51.2149 147.691 52.0001 146.907 52.6302C146.42 53.0228 146.093 53.6633 145.735 54.2212C145.537 54.5311 145.527 54.934 145.904 55.089C146.083 55.1613 146.45 54.996 146.599 54.8204C147.721 53.5393 148.833 52.2377 149.915 50.9153C150.471 50.2335 151.295 49.9236 151.99 50.1922C152.635 50.4401 152.943 51.2046 153.062 52.0104C153.251 53.2398 152.735 54.0249 151.881 54.7171C151.633 54.9237 151.484 55.2646 151.196 55.6572C152.218 55.8948 152.933 55.6778 153.618 55.2749C154.75 54.6034 155.743 53.684 156.249 52.4856C156.656 51.5145 156.666 50.3471 156.736 49.2521C156.795 48.3946 156.775 47.5475 157.192 46.7727C157.619 45.9875 158.364 45.5227 159.089 45.6156C160.28 45.7603 160.916 46.721 160.697 48.0124C160.628 48.4359 160.201 48.8595 160.628 49.3141C161.481 49.1178 161.799 48.7975 161.888 47.9297C161.938 47.4648 161.859 46.9896 161.898 46.5247C161.948 45.8946 161.978 45.2334 162.147 44.6342C162.464 43.5081 163.219 42.9813 164.351 42.9916C166.326 43.0226 167.816 44.128 169.176 45.4607C169.722 45.9875 169.781 46.7417 169.752 47.4855C169.732 47.8987 169.752 48.312 169.752 48.8802C170.596 48.3223 170.486 47.5991 170.447 46.9173C170.387 45.8946 170.278 44.8821 170.218 43.8594C170.208 43.6631 170.268 43.4668 170.328 43.0846C171.171 43.8594 171.916 43.7044 172.72 43.1982C173.028 43.0019 173.534 43.0433 173.922 43.1259C175.619 43.4875 176.88 44.3863 177.655 46.1012C178.27 47.4648 177.794 48.4773 177.099 49.531C176.88 49.8616 176.622 50.1508 176.364 50.4814C176.86 50.8327 177.158 50.6777 177.337 50.3678C177.823 49.5413 178.31 48.7045 178.717 47.8264C179.313 46.5144 179.948 45.3367 181.547 45.1301C181.983 45.0784 182.371 44.6445 182.917 44.3036C184.088 45.0991 184.098 46.4111 184.307 47.7024C184.545 49.0971 183.542 50.0475 183.214 51.2252C184.128 51.4422 184.565 51.2459 185.031 50.5124C186.034 48.9525 186.59 47.2582 186.63 45.3574C186.64 44.7065 186.858 44.0144 187.156 43.4358C187.851 42.0928 188.715 42.0205 189.995 42.754C191.187 43.4358 191.385 44.4276 191.286 45.6466C191.256 46.0392 191.246 46.4318 191.227 46.9173C192.319 46.4111 192.746 45.5123 192.398 44.6239C191.802 43.0742 191.088 41.6073 189.747 40.5535C189.032 39.9957 188.407 39.2932 187.851 38.5597C186.759 37.1444 187.245 35.4088 188.864 34.7166C189.162 34.5927 189.489 34.51 189.797 34.4067C190.601 34.1381 190.71 33.9212 190.373 33.1154C190.234 32.7744 190.045 32.4542 189.837 32.0616C190.7 32.3922 191.187 32.8468 191.773 34.2931C192.15 35.2022 192.269 36.2353 192.507 37.2167C193.073 37.351 193.262 36.9584 193.292 36.5142C193.321 36.101 193.282 35.6567 193.153 35.2745C192.716 33.9832 192.904 33.1464 194.066 32.4852C195.883 31.4418 197.799 30.9046 199.785 32.0306C200.073 32.1959 200.291 32.5472 200.49 32.8468C200.847 33.3943 201.234 33.5699 201.681 33.1257C203.548 31.2248 205.742 31.6794 207.936 32.0616C208.7 32.1959 209.465 32.4955 210.229 32.4852C211.887 32.4542 212.791 33.4666 213.436 34.8199C213.764 35.5018 213.913 36.2663 214.161 36.9791C214.25 37.2374 214.399 37.4853 214.508 37.7022C215.114 37.6609 215.194 37.2683 215.154 36.8758C215.104 36.4109 214.995 35.9563 214.886 35.5018C214.618 34.3861 214.985 33.6526 216.008 33.384C217.219 33.0637 219.423 33.8695 219.999 35.2642C220.168 35.6671 220.098 36.1733 220.178 36.6278C220.217 36.8448 220.366 37.0514 220.475 37.258C220.694 37.1134 221.071 36.9894 221.111 36.8138C221.18 36.3799 221.17 35.884 221.051 35.4501C220.863 34.727 220.575 33.9832 221.319 33.4769C221.965 33.043 222.67 33.2807 223.295 33.6526C224.645 34.4687 225.698 35.5948 226.333 37.0721C226.869 38.3014 226.919 39.5411 226.254 40.6259C225.608 40.6672 224.993 40.5432 224.556 40.7808C222.779 41.7312 220.972 42.6713 219.334 43.8491C217.09 45.4607 215.203 47.5165 214.022 50.1199C213.337 51.6178 212.821 53.1984 212.225 54.7377C211.818 55.7915 211.401 56.8555 210.954 57.8989C210.875 58.0952 210.617 58.2089 210.428 58.3742C210.239 57.8886 210.14 55.1819 210.378 54.0765C210.666 52.7129 211.093 51.3905 211.51 49.8513C211.143 49.9856 210.865 50.0062 210.765 50.1508C210.368 50.7397 209.922 51.3286 209.703 52.0001C209.465 52.7335 209.048 53.2294 208.293 53.8596C208.591 52.6612 208.74 51.6591 209.107 50.75C209.584 49.5826 210.229 48.4876 210.805 47.3615C211.004 46.969 211.113 46.5867 210.726 46.0392C210.468 46.2871 210.21 46.4628 210.051 46.7107C209.147 48.188 208.482 49.7376 207.995 51.4525C207.38 53.6323 207.32 55.8225 207.201 58.0229C207.032 61.0912 206.754 64.1594 207.062 67.2277C207.082 67.3826 207.013 67.5479 206.963 67.8682C206.288 66.99 205.92 66.1429 205.742 65.1822C205.593 64.3557 205.444 63.5499 204.809 62.868C204.491 62.5271 204.441 61.8453 204.401 61.3081C204.262 59.4382 204.183 57.558 204.074 55.6882C204.044 55.089 203.945 54.5208 203.478 54.0662C202.992 53.6013 203.121 52.9505 203.21 52.372C203.607 49.6653 204.233 47.0309 205.523 44.6135C205.642 44.3966 205.712 44.1383 205.762 43.8904C205.831 43.4565 206.069 43.2602 206.457 43.0949C207.31 42.7333 207.4 42.5267 207.132 41.6693C207.023 41.318 206.844 40.9461 206.596 40.6878C206.397 40.4812 206.02 40.2539 205.801 40.3159C205.553 40.3882 205.235 40.7911 205.245 41.0391C205.265 41.6486 205.464 42.2478 205.593 42.8573C205.553 42.9193 205.523 43.0433 205.474 43.0639C204.302 43.4358 203.716 44.3036 203.369 45.4917C202.684 47.8058 201.84 50.0785 201.175 52.403C200.569 54.5208 200.093 56.6696 199.556 58.808C199.517 58.963 199.447 59.118 199.318 59.4279C198.842 58.4361 199 57.5684 199.11 56.7109C199.269 55.4402 199.477 54.1902 199.676 52.9298C199.805 52.1034 199.944 51.2872 200.112 50.2232C199.298 50.8843 198.951 51.5455 198.703 52.3203C197.998 54.5104 198.087 56.7935 197.978 59.0353C197.779 63.0437 197.948 67.052 198.772 71.0087C198.911 71.6699 198.921 72.3621 198.951 73.0439C198.961 73.2608 198.832 73.4881 198.722 73.86C198.494 73.6017 198.315 73.4778 198.246 73.3022C196.677 69.1905 195.625 64.9652 195.734 60.492C195.764 59.3453 195.724 58.1882 195.674 57.0415C195.635 56.153 195.565 55.2646 195.059 54.3038C194.831 54.6344 194.612 54.8307 194.553 55.0683C194.384 55.7708 194.195 56.4836 194.185 57.1964C194.146 59.8825 194.175 62.5685 194.175 65.2545C194.175 65.9466 194.364 66.6698 194.046 67.4446C193.381 66.9694 193.212 66.3599 193.123 65.7297C192.984 64.7586 192.825 63.7772 192.825 62.8061C192.815 59.9444 192.845 57.0828 192.914 54.2315C192.934 53.3534 193.133 52.4856 193.242 51.6075C193.153 51.5868 193.063 51.5662 192.974 51.5455C192.636 53.0331 192.14 54.5001 191.981 56.0084C191.505 60.4713 191.703 64.9549 192.09 69.4178C192.14 70.048 192.289 70.6678 192.408 71.3806C191.554 70.4302 191.207 69.4178 191.157 68.2091C191.117 67.1553 190.869 66.1016 190.78 65.0479C190.651 63.6015 190.551 62.1656 190.482 60.7192C190.422 59.5209 190.432 59.4486 189.767 58.5498C190.065 58.4155 190.343 58.2812 190.621 58.1469C191.137 57.8989 191.366 57.496 191.207 56.9072C191.058 56.3803 190.403 55.7088 190.015 55.7295C189.866 55.7398 189.648 55.8018 189.588 55.9154C189.032 56.9692 188.109 57.8163 188.149 59.211C188.189 60.9569 188.04 62.7028 187.96 64.4487C187.95 64.7586 187.861 65.0685 187.613 65.3784C187.563 65.1098 187.464 64.8412 187.464 64.583C187.454 61.897 187.384 59.2109 187.484 56.5249C187.543 55.0476 187.97 53.591 188.109 52.1137C188.218 50.8843 188.189 49.655 188.665 48.4876C188.834 48.0847 188.764 47.5888 188.695 47.1136C187.642 49.2624 187.226 51.5972 186.709 53.8906C186.193 56.2254 185.845 58.5808 185.895 60.9878C185.945 63.4156 186.034 65.833 186.114 68.426C185.706 67.3 185.24 66.3909 185.131 65.2855C184.892 62.9094 184.604 60.5436 184.942 58.1469C185.071 57.2274 184.972 56.2667 184.952 55.3369C184.942 55.0683 184.843 54.81 184.575 54.5414C184.128 56.7212 183.681 58.901 183.205 61.2151C182.897 60.9775 182.668 60.7916 182.321 60.5333C181.626 62.2689 182.261 64.1594 181.556 65.833C180.732 61.897 181 57.9713 181.795 54.0559C181.686 54.0249 181.586 53.9939 181.477 53.9732C181.1 54.6964 180.732 55.4195 180.355 56.1427C180.226 56.401 180.147 56.7419 179.948 56.8969C178.786 57.7646 178.439 59.0353 178.191 60.399C177.704 63.054 177.615 65.74 177.486 68.4157C177.426 69.6967 177.436 70.9777 177.933 72.1968C178.062 72.5067 178.111 72.8579 178.121 73.1988C178.191 74.5625 178.777 75.7299 179.402 76.8766C179.62 77.2795 179.918 77.6721 179.501 78.2093C178.677 77.9717 178.389 77.1865 178.032 76.5254C175.927 72.61 175.282 68.3744 175.58 63.9321C175.768 61.2358 176.324 58.6221 177.109 56.0497C177.387 55.1406 177.595 54.2005 177.674 53.1571C177.009 54.1075 176.285 55.027 175.689 56.0187C174.388 58.1675 173.495 60.5023 173.028 62.992C172.8 64.2007 172.69 65.4404 172.671 66.6698C172.641 68.6223 172.621 70.5645 173.217 72.4964C173.574 73.6534 173.683 74.9034 174.17 76.0398C174.299 76.3497 174.259 76.7423 174.329 77.4138C173.951 77.0832 173.743 77.0006 173.693 76.8456C173.157 75.2753 172.462 73.736 172.184 72.1244C171.847 70.1616 171.837 68.1471 171.777 66.1429C171.747 65.1718 171.966 64.1904 172.025 63.209C172.065 62.5891 172.035 61.9693 172.035 61.3804C171.469 61.2564 171.34 61.5767 171.221 61.897C171.042 62.3722 170.943 62.899 170.377 63.0747L170.268 63.178ZM190.72 49.0868C189.916 49.3657 189.797 49.9856 189.658 50.6157C189.489 51.3492 189.251 52.0724 189.062 52.8059C188.844 53.6427 188.625 54.4794 189.211 55.3162C189.578 54.3658 189.847 53.3844 190.065 52.403C190.293 51.3492 190.482 50.2851 190.72 49.0868ZM133.96 57.2791C132.838 58.5188 132.55 59.2523 132.828 60.3267C133.692 60.0684 134.397 59.6035 134.665 58.7047C134.844 58.1159 134.467 57.62 133.96 57.2791ZM198.683 40.7085C198.663 40.0577 198.127 39.5411 197.462 39.5618C197.045 39.5721 196.737 39.7684 196.767 40.2436C196.796 40.7498 197.541 41.504 197.978 41.5246C198.415 41.5556 198.693 41.225 198.683 40.7085ZM134.328 56.8142C135.658 55.6055 136.949 53.6943 137.008 52.7852C136.075 53.8286 135.191 54.9237 134.337 56.0394C134.248 56.153 134.328 56.401 134.328 56.8142ZM205.692 52.1963C205.772 51.4422 205.414 50.8843 204.957 50.8223C204.54 50.7707 204.362 51.0186 204.312 51.4009C204.243 51.9484 204.58 52.6199 204.977 52.5889C205.265 52.5683 205.533 52.2893 205.692 52.1963ZM196.747 35.6877C197.442 34.7683 198.137 33.8592 198.951 32.7951C198.593 32.7744 198.305 32.7021 198.276 32.7641C197.799 33.7559 196.786 34.4377 196.747 35.6877ZM113.349 63.6739C113.26 63.6635 113.17 63.6429 113.091 63.6325C112.763 64.2524 112.763 64.2524 113.28 64.9239C113.309 64.3867 113.329 64.0354 113.349 63.6739ZM114.203 62.0106C113.538 62.3515 113.468 62.6304 113.895 63.085C113.975 62.8061 114.054 62.5271 114.203 62.0106ZM169.494 56.0497C168.868 56.5146 168.868 56.5146 169.245 57.3824C169.345 56.8349 169.404 56.5249 169.494 56.0497ZM160.181 54.5311C160.091 54.5311 160.002 54.5311 159.913 54.5311C159.724 55.0476 159.724 55.0476 160.082 55.6882C160.131 55.1613 160.151 54.8514 160.181 54.5311ZM190.343 54.5001C190.452 54.5001 190.561 54.5104 190.671 54.5104C190.671 54.1592 190.671 53.8079 190.671 53.4567C190.591 53.4567 190.522 53.4464 190.442 53.4464C190.403 53.7976 190.373 54.1489 190.343 54.5001ZM114.421 61.3494C114.531 61.3598 114.63 61.3701 114.739 61.3804C114.739 61.1428 114.739 60.9052 114.739 60.6676C114.67 60.6573 114.6 60.6573 114.531 60.6469C114.491 60.8845 114.461 61.1118 114.421 61.3494ZM121.331 58.0952C121.401 58.1159 121.47 58.1365 121.54 58.1572C121.59 57.9919 121.639 57.8266 121.679 57.6613C121.609 57.6407 121.48 57.5993 121.47 57.5993C121.411 57.7646 121.371 57.9299 121.331 58.0952Z" fill="#2E74FF"/>
<path d="M200.35 83.7465C200.599 83.8704 200.877 83.9531 201.085 84.1184C201.462 84.4076 201.81 84.7485 202.167 85.0585C202.247 84.9862 202.326 84.9035 202.406 84.8312C201.879 84.139 201.363 83.4572 200.837 82.765C200.311 82.0625 199.765 81.3807 199.268 80.6576C198.742 79.9034 198.256 79.1183 197.769 78.3435C197.322 77.6306 196.697 77.0005 196.657 75.7917C197.521 76.9178 198.275 77.7856 198.901 78.7567C200.777 81.6596 203.17 84.0047 205.89 86.0089C206.724 86.6287 207.558 87.3003 208.7 86.8767C209.147 86.7114 209.345 87.0626 209.584 87.3829C210.487 88.6019 211.48 89.728 212.81 90.4615C213.813 91.009 214.786 91.6185 215.948 91.8045C216.613 91.9181 217.258 92.1557 217.983 92.3623C218.092 91.9594 218.172 91.6495 218.261 91.3293C218.4 91.3086 218.539 91.2466 218.638 91.2879C219.651 91.6082 220.654 91.9594 221.666 92.259C222.411 92.476 223.156 92.1867 223.593 91.6805C224.486 90.6474 225.489 90.947 226.412 91.2879C228.626 92.1041 230.771 92.1351 233.005 91.3293C233.858 91.0193 234.851 91.1226 235.785 91.071C235.904 91.0607 236.043 91.2156 236.172 91.2983C236.082 91.4222 236.053 91.5255 235.993 91.5462C234.484 91.9078 232.955 92.2074 231.456 92.6206C230.066 93.0132 228.676 93.1785 227.256 93.3748C224.248 93.788 221.289 93.3438 218.301 93.2715C218.182 93.2715 218.053 93.2818 217.933 93.2508C214.29 92.321 210.745 91.226 208.531 87.6825C208.492 87.6102 208.402 87.5792 208.214 87.4242C205.305 88.6226 202.425 90.1102 199.298 90.9884C196.121 91.8768 192.884 92.2487 189.638 92.4863C186.461 92.7239 183.244 93.1062 180.087 92.3623C180.067 92.228 180.047 92.0937 180.027 91.9594C180.365 91.7941 180.702 91.6289 181.169 91.4119C180.861 91.2776 180.613 91.1846 180.385 91.0503C179.58 90.5545 178.3 90.4511 178.737 88.9222C178.329 88.3437 177.912 87.7651 177.515 87.1763C176.205 85.2341 174.884 83.3022 173.604 81.3394C173.465 81.1328 173.524 80.7919 173.713 80.4096C174.358 81.3084 175.013 82.2072 175.649 83.106C177.009 85.0275 178.449 86.8767 180.226 88.4057C180.702 88.8189 181.119 89.511 181.874 88.7982C181.953 88.7259 182.331 88.9119 182.509 89.0462C183.403 89.7177 184.286 90.3995 185.15 91.1123C185.726 91.5979 186.371 91.7735 187.096 91.7528C188.039 91.7218 188.983 91.7322 189.926 91.7012C190.154 91.6908 190.382 91.5979 190.789 91.4946C189.687 89.728 188.139 88.4573 187.354 86.6288C189.38 87.9098 190.521 90.3478 192.855 91.1536C192.934 91.0917 193.013 91.0193 193.093 90.9574C192.984 90.7404 192.934 90.4408 192.765 90.3168C190.78 88.8705 189.37 86.8767 188.019 84.8519C187.047 83.3952 186.183 81.8559 185.289 80.3476C185.15 80.11 185.12 79.7898 185.041 79.5108C185.13 79.4695 185.21 79.4282 185.299 79.3869C185.925 80.2443 186.59 81.0811 187.156 81.9799C188.556 84.1907 190.075 86.2878 191.961 88.0647C192.984 89.0255 194.125 89.8726 195.277 90.6681C196.042 91.195 196.935 91.009 197.779 90.7611C198.404 90.5751 199.04 90.4408 199.646 90.2239C200.529 89.9139 201.413 89.573 202.267 89.2011C202.823 88.9635 203.339 88.6433 204.034 88.2713C203.776 87.9098 203.587 87.5585 203.319 87.2796C202.425 86.3498 201.492 85.4614 200.609 84.5213C200.44 84.3353 200.43 83.9944 200.35 83.7258V83.7465Z" fill="#2E74FF"/>
<path d="M164.281 84.5941C164.142 85.245 164.053 85.6376 163.953 86.0611C162.762 85.0487 163.536 83.6954 165.81 82.7036C165.105 82.0218 164.003 81.9805 162.971 82.6106C162.047 83.1685 161.144 83.0755 160.24 82.4143C160.498 82.373 160.757 82.3214 161.015 82.2801C161.422 82.2077 161.849 82.2181 162.216 82.0528C162.693 81.8462 163.159 81.5466 163.566 81.2056C164.073 80.7718 163.626 80.2552 163.576 79.78C163.358 77.4866 163.01 75.2035 163.368 72.8894C163.447 72.3728 163.646 71.8873 163.795 71.3811C163.904 71.3811 164.013 71.3707 164.112 71.3707C164.271 71.7736 164.499 72.1662 164.579 72.5898C164.827 73.9018 165.274 75.1105 165.83 76.3192C166.306 77.3523 166.545 78.4886 166.942 79.563C167.567 81.2676 168.203 82.9619 168.908 84.6355C169.106 85.1107 169.503 85.6582 169.94 85.8442C170.913 86.2677 171.261 87.1872 171.807 87.9413C172.273 88.5922 172.68 89.2533 173.455 89.5736C173.763 89.6976 173.981 90.0488 174.13 90.493C173.961 90.4414 173.763 90.4104 173.614 90.3174C171.529 88.9951 169.315 88.1066 166.862 87.9103C166.654 87.8897 166.455 87.869 166.257 87.8277C165.671 87.7244 165.324 87.4351 165.284 86.7326C165.254 86.1954 165.036 85.6582 164.857 85.1417C164.807 84.9867 164.599 84.8834 164.281 84.5941Z" fill="#2E74FF"/>
<path d="M201.055 61.3296C201.651 62.2904 201.611 63.4061 201.78 64.4598C202.138 66.7429 202.932 68.8607 203.845 70.9476C204.679 72.8588 205.692 74.6563 207.132 76.1336C208.492 77.5179 209.921 78.83 211.341 80.2039C210.775 80.9994 210.229 79.3672 209.574 80.142C210.716 81.299 212.096 82.0842 213.426 82.9313C214.061 83.3342 214.081 83.3445 214.459 84.4706C214.071 84.3569 213.774 84.3259 213.525 84.1916C212.741 83.7577 211.967 83.2825 211.192 82.828C211.053 82.7453 210.884 82.6317 210.735 82.642C209.336 82.8176 208.551 81.7329 207.519 81.0821C207.628 80.7205 207.717 80.4519 207.767 80.2866C207.092 79.5738 206.437 78.9539 205.861 78.2618C205.295 77.5903 204.58 77.0117 204.431 76.0303C205.603 76.9807 206.566 78.2204 208.015 78.7783C205.682 76.4849 203.964 73.8092 202.684 70.8029C201.393 67.7967 200.767 64.6458 201.055 61.3296ZM209.256 79.4808C209.147 79.3568 209.087 79.2329 209.008 79.2122C208.919 79.1915 208.809 79.2535 208.71 79.2845C208.78 79.3878 208.829 79.5324 208.929 79.5944C208.968 79.6254 209.107 79.5324 209.256 79.4808Z" fill="#2E74FF"/>
</g>
<defs>
<clipPath id="clip0_471_2789">
<rect width="275.143" height="113.143" fill="white" transform="translate(0.285156 0.428741)"/>
</clipPath>
</defs>
</svg>
