<svg width="63" height="19" viewBox="0 0 63 19" fill="none" xmlns="http://www.w3.org/2000/svg">
<g clip-path="url(#clip0_471_2641)">
<path d="M0.285156 11.4182C0.842482 11.1804 1.38224 10.9055 1.90058 10.5955C6.13261 7.36392 6.20021 7.3043 10.3033 10.7326C12.5452 12.5988 14.1483 11.6269 15.8313 10.041C18.8533 7.25064 18.9024 7.27449 21.8691 9.99923C24.5103 12.3841 25.4501 12.4259 28.0913 10.1781C31.5801 7.19699 31.7766 7.19698 35.1856 10.1185C37.8698 12.4139 38.8096 12.408 41.4077 10.0589C44.4789 7.29238 44.5157 7.24469 47.6606 10.196C49.5033 11.9012 51.1064 12.3961 53.2255 10.6014C57.0583 7.36989 57.1013 7.43546 61.3824 10.5537C61.8407 10.7935 62.3275 10.9777 62.832 11.1022C60.7621 6.36823 56.6345 5.25925 53.4282 8.52656C51.4319 10.5597 50.0192 10.7207 47.9616 8.58618C44.9764 5.47986 44.0305 5.50967 40.9901 8.58618C39.1474 10.4762 37.7961 10.7445 35.7568 8.69947C32.397 5.31888 31.0334 5.32485 27.6183 8.66966C25.6221 10.6253 24.3015 10.5716 22.379 8.61004C19.3078 5.46197 18.4725 5.48582 15.1863 8.77101C13.3437 10.6432 12.0354 10.6074 10.1743 8.77101C6.753 5.25925 2.8342 6.17148 0.285156 11.4182Z" fill="#2E74FF"/>
<path d="M0.328125 5.32505C0.866167 5.05625 1.38904 4.75971 1.89444 4.43668C6.08962 1.08591 6.13261 1.03224 10.2602 4.50823C12.3056 6.23131 13.8841 5.63508 15.604 4.09086C18.8901 1.13955 18.9945 1.10975 22.035 3.98952C24.1418 5.99283 25.9169 6.02859 28.0912 4.05509C31.5801 0.895104 31.7766 0.88914 35.3637 4.12664C37.6118 6.17168 39.3808 5.84974 41.42 3.91797C44.4482 1.03821 44.571 1.03224 47.6237 3.94778C49.5585 5.79607 51.2661 6.17765 53.4282 4.25781C57.1749 0.942801 57.2241 1.01435 61.106 4.10875C61.6189 4.45953 62.1544 4.77817 62.7091 5.06271C61.6772 0.805673 56.8064 -0.899523 53.9687 1.80733C50.959 4.68113 50.744 5.22966 47.4824 1.80733C45.4309 -0.33311 43.5452 -0.136364 41.4569 1.85502C38.4533 4.7169 38.3857 4.65131 35.2286 1.8908C32.5075 -0.4941 30.8737 -0.458325 28.0667 2.00408C24.9956 4.68112 24.9955 4.68113 22.0288 1.96831C19.4183 -0.416588 18.3926 -0.41658 15.8067 1.92062C12.6987 4.72287 12.6987 4.72286 9.78111 2.06371C6.59326 -0.822018 2.45335 0.37043 0.328125 5.32505Z" fill="#2E74FF"/>
<path d="M62.3525 17.4037C60.7617 12.5385 56.6648 11.4414 53.4462 14.7326C51.4377 16.7836 50.0249 16.8849 47.9796 14.7743C45.0128 11.6978 44.0301 11.7216 40.9835 14.7743C39.0917 16.6941 37.7588 16.8492 35.7564 14.8458C32.4457 11.5368 31.0023 11.5368 27.6056 14.8816C25.5541 16.8969 24.2335 16.6286 22.3662 14.7385C19.3688 11.6978 18.3737 11.6739 15.3763 14.7922C13.2695 16.9803 11.8752 16.6226 9.92196 14.6431C6.7034 11.3818 2.40384 12.5683 0.929688 17.4335C1.88174 16.6941 2.83994 15.9668 3.77357 15.2096C5.51183 13.7905 7.00441 13.6415 8.8041 15.3765C12.5939 19.0254 12.7966 19.0194 16.6539 15.3765C18.3983 13.7309 19.5654 13.868 21.2176 15.4659C24.8416 18.9658 25.0996 18.9836 28.6805 15.7819C30.8365 13.8561 32.5563 13.8561 34.7061 15.7819C38.1703 18.8882 38.7108 18.8823 41.954 15.6746C43.7475 13.8859 45.0251 13.6236 46.9722 15.5673C50.3566 18.9657 51.0691 18.9836 54.3429 15.609C56.3146 13.5997 57.9178 13.7667 59.8219 15.4123C60.6511 16.1218 61.5172 16.7478 62.3525 17.4037Z" fill="#2E74FF"/>
</g>
<defs>
<clipPath id="clip0_471_2641">
<rect width="62.5714" height="18" fill="white" transform="matrix(1 0 0 -1 0.285156 18.142)"/>
</clipPath>
</defs>
</svg>
