<svg width="75" height="23" viewBox="0 0 75 23" fill="none" xmlns="http://www.w3.org/2000/svg">
<g clip-path="url(#clip0_471_1769)">
<path d="M0 8.25157C0.66449 8.54339 1.30803 8.88066 1.92604 9.26097C6.97182 13.2254 7.05241 13.2986 11.9444 9.09273C14.6174 6.80329 16.5288 7.99556 18.5354 9.94121C22.1385 13.3644 22.197 13.3351 25.7342 9.99242C28.8832 7.06662 30.0037 7.01541 33.1527 9.77297C37.3124 13.4302 37.5467 13.4302 41.6112 9.84612C44.8115 7.03004 45.932 7.03736 49.0297 9.91927C52.6914 13.3132 52.7353 13.3717 56.4849 9.75103C58.6819 7.65908 60.5933 7.05199 63.1198 9.25365C67.6896 13.2181 67.7409 13.1377 72.8452 9.31217C73.3916 9.01803 73.972 8.79202 74.5735 8.63923C72.1056 14.4469 67.1843 15.8074 63.3615 11.7991C60.9814 9.30486 59.2971 9.10736 56.8438 11.7259C53.2846 15.5368 52.1568 15.5002 48.5317 11.7259C46.3347 9.40725 44.7236 9.0781 42.2923 11.587C38.2864 15.7343 36.6606 15.727 32.5888 11.6235C30.2088 9.22438 28.6343 9.29022 26.3421 11.6967C22.6804 15.5587 21.6844 15.5295 17.7664 11.4992C15.5694 9.20245 14.0096 9.24634 11.7906 11.4992C7.7115 15.8074 3.03918 14.6883 0 8.25157Z" fill="#2E74FF"/>
<path d="M0.0507812 15.7263C0.69228 16.0561 1.31569 16.4199 1.91827 16.8162C6.9201 20.9269 6.97136 20.9928 11.8926 16.7284C14.3313 14.6145 16.2134 15.346 18.2639 17.2404C22.1819 20.8611 22.3064 20.8977 25.9315 17.3648C28.4434 14.9071 30.5598 14.8632 33.1523 17.2843C37.3119 21.161 37.5463 21.1683 41.8231 17.1966C44.5035 14.6877 46.6126 15.0826 49.0439 17.4525C52.6543 20.9854 52.8008 20.9928 56.4405 17.416C58.7473 15.1485 60.7832 14.6804 63.361 17.0356C67.8283 21.1025 67.8868 21.0147 72.5152 17.2185C73.1267 16.7882 73.7652 16.3973 74.4266 16.0482C73.1963 21.2707 67.3889 23.3627 64.0055 20.0419C60.417 16.5163 60.1607 15.8434 56.272 20.0419C53.826 22.6678 51.5778 22.4264 49.0878 19.9834C45.5067 16.4724 45.4262 16.5529 41.662 19.9395C38.4177 22.8653 36.4697 22.8214 33.123 19.8005C29.4613 16.5163 29.4613 16.5163 25.9241 19.8444C22.8117 22.7702 21.5887 22.7702 18.5056 19.9029C14.8 16.4651 14.8 16.4651 11.3214 19.7274C7.52059 23.2676 2.58466 21.8047 0.0507812 15.7263Z" fill="#2E74FF"/>
<path d="M74.0029 0.907368C72.1061 6.87599 67.2215 8.22186 63.384 4.18427C60.9893 1.66808 59.3049 1.54373 56.8662 4.13306C53.3291 7.90733 52.1573 7.87807 48.525 4.13306C46.2694 1.77779 44.6802 1.58762 42.2928 4.04529C38.3455 8.10483 36.6246 8.10483 32.5748 4.0014C30.1288 1.52911 28.5542 1.85825 26.3279 4.17694C22.7542 7.90733 21.5678 7.93659 17.994 4.11112C15.4821 1.4267 13.8197 1.86557 11.4909 4.29398C7.65343 8.295 2.52713 6.83942 0.769531 0.870805C1.90465 1.7778 3.04709 2.67015 4.16024 3.59909C6.23274 5.33994 8.01231 5.5228 10.1581 3.39429C14.6765 -1.08218 14.9182 -1.07486 19.5172 3.39429C21.5971 5.41309 22.9885 5.24486 24.9585 3.28458C29.2792 -1.00903 29.5868 -1.03097 33.8563 2.89691C36.4268 5.25949 38.4774 5.25949 41.0405 2.89691C45.1709 -0.913937 45.8153 -0.906628 49.6821 3.02856C51.8205 5.22291 53.3437 5.54476 55.6652 3.16024C59.7004 -1.00901 60.5499 -1.03096 64.4532 3.10904C66.804 5.57402 68.7154 5.3692 70.9857 3.3504C71.9743 2.47998 73.0069 1.71196 74.0029 0.907368Z" fill="#2E74FF"/>
</g>
<defs>
<clipPath id="clip0_471_1769">
<rect width="74.6028" height="22.0824" fill="white" transform="translate(0 -0.000530243)"/>
</clipPath>
</defs>
</svg>
