<svg width="21" height="22" viewBox="0 0 21 22" fill="none" xmlns="http://www.w3.org/2000/svg">
<path fill-rule="evenodd" clip-rule="evenodd" d="M16.8134 11.9004C17.0645 12.1515 17.0645 12.5585 16.8134 12.8096L12.3806 17.2424C12.1296 17.4934 11.7225 17.4934 11.4715 17.2424C11.2204 16.9913 11.2204 16.5843 11.4715 16.3332L15.9043 11.9004C16.1553 11.6494 16.5624 11.6494 16.8134 11.9004Z" fill="#565E65"/>
<path fill-rule="evenodd" clip-rule="evenodd" d="M9.95601 11.9004C10.2071 12.1515 10.2071 12.5585 9.95601 12.8096L5.52321 17.2424C5.27216 17.4934 4.86512 17.4934 4.61407 17.2424C4.36302 16.9913 4.36302 16.5843 4.61407 16.3332L9.04687 11.9004C9.29792 11.6494 9.70496 11.6494 9.95601 11.9004Z" fill="#565E65"/>
<path fill-rule="evenodd" clip-rule="evenodd" d="M16.8134 5.04327C17.0645 5.29432 17.0645 5.70135 16.8134 5.95241L12.3806 10.3852C12.1296 10.6363 11.7225 10.6363 11.4715 10.3852C11.2204 10.1342 11.2204 9.72712 11.4715 9.47607L15.9043 5.04327C16.1553 4.79222 16.5624 4.79222 16.8134 5.04327Z" fill="#565E65"/>
<path fill-rule="evenodd" clip-rule="evenodd" d="M9.95601 5.04327C10.2071 5.29432 10.2071 5.70135 9.95601 5.95241L5.52321 10.3852C5.27216 10.6363 4.86512 10.6363 4.61407 10.3852C4.36302 10.1342 4.36302 9.72712 4.61407 9.47607L9.04687 5.04327C9.29792 4.79222 9.70496 4.79222 9.95601 5.04327Z" fill="#565E65"/>
<path fill-rule="evenodd" clip-rule="evenodd" d="M3.85714 3.21436C3.26541 3.21436 2.78571 3.69406 2.78571 4.28579C2.78571 4.87751 3.26541 5.35722 3.85714 5.35722C4.44886 5.35722 4.92857 4.87751 4.92857 4.28579C4.92857 3.69406 4.44886 3.21436 3.85714 3.21436ZM1.5 4.28579C1.5 2.98398 2.55533 1.92865 3.85714 1.92865C5.15894 1.92865 6.21428 2.98397 6.21428 4.28579C6.21428 5.58759 5.15894 6.64293 3.85714 6.64293C2.55532 6.64293 1.5 5.58759 1.5 4.28579Z" fill="#565E65"/>
<path fill-rule="evenodd" clip-rule="evenodd" d="M10.7126 3.21436C10.1209 3.21436 9.64118 3.69406 9.64118 4.28579C9.64118 4.87751 10.1209 5.35722 10.7126 5.35722C11.3043 5.35722 11.784 4.87751 11.784 4.28579C11.784 3.69406 11.3043 3.21436 10.7126 3.21436ZM8.35547 4.28579C8.35547 2.98397 9.41082 1.92865 10.7126 1.92865C12.0144 1.92865 13.0698 2.98397 13.0698 4.28579C13.0698 5.58759 12.0144 6.64293 10.7126 6.64293C9.41081 6.64293 8.35547 5.58759 8.35547 4.28579Z" fill="#565E65"/>
<path fill-rule="evenodd" clip-rule="evenodd" d="M17.57 3.21436C16.9783 3.21436 16.4986 3.69406 16.4986 4.28579C16.4986 4.87751 16.9783 5.35722 17.57 5.35722C18.1617 5.35722 18.6415 4.87751 18.6415 4.28579C18.6415 3.69406 18.1618 3.21436 17.57 3.21436ZM15.2129 4.28579C15.2129 2.98397 16.2682 1.92865 17.57 1.92865C18.8718 1.92865 19.9272 2.98397 19.9272 4.28579C19.9272 5.58759 18.8718 6.64293 17.57 6.64293C16.2682 6.64293 15.2129 5.58759 15.2129 4.28579Z" fill="#565E65"/>
<path fill-rule="evenodd" clip-rule="evenodd" d="M17.57 10.0715C16.9783 10.0715 16.4986 10.5512 16.4986 11.1429C16.4986 11.7346 16.9783 12.2143 17.57 12.2143C18.1617 12.2143 18.6415 11.7346 18.6415 11.1429C18.6415 10.5512 18.1617 10.0715 17.57 10.0715ZM15.2129 11.1429C15.2129 9.84111 16.2682 8.78577 17.57 8.78577C18.8718 8.78577 19.9272 9.84111 19.9272 11.1429C19.9272 12.4447 18.8718 13.5001 17.57 13.5001C16.2682 13.5001 15.2129 12.4447 15.2129 11.1429Z" fill="#565E65"/>
<path fill-rule="evenodd" clip-rule="evenodd" d="M17.57 16.9286C16.9783 16.9286 16.4986 17.4083 16.4986 18.0001C16.4986 18.5918 16.9783 19.0715 17.57 19.0715C18.1617 19.0715 18.6415 18.5918 18.6415 18.0001C18.6415 17.4083 18.1617 16.9286 17.57 16.9286ZM15.2129 18.0001C15.2129 16.6983 16.2682 15.6429 17.57 15.6429C18.8718 15.6429 19.9272 16.6983 19.9272 18.0001C19.9272 19.3019 18.8718 20.3572 17.57 20.3572C16.2682 20.3572 15.2129 19.3019 15.2129 18.0001Z" fill="#565E65"/>
<path fill-rule="evenodd" clip-rule="evenodd" d="M10.7126 16.9286C10.1209 16.9286 9.64118 17.4083 9.64118 18.0001C9.64118 18.5918 10.1209 19.0715 10.7126 19.0715C11.3043 19.0715 11.784 18.5918 11.784 18.0001C11.784 17.4083 11.3043 16.9286 10.7126 16.9286ZM8.35547 18.0001C8.35547 16.6983 9.41081 15.6429 10.7126 15.6429C12.0144 15.6429 13.0698 16.6983 13.0698 18.0001C13.0698 19.3019 12.0144 20.3572 10.7126 20.3572C9.41081 20.3572 8.35547 19.3019 8.35547 18.0001Z" fill="#565E65"/>
<path fill-rule="evenodd" clip-rule="evenodd" d="M3.85714 16.9286C3.26541 16.9286 2.78571 17.4083 2.78571 18.0001C2.78571 18.5918 3.26541 19.0715 3.85714 19.0715C4.44886 19.0715 4.92857 18.5918 4.92857 18.0001C4.92857 17.4083 4.44886 16.9286 3.85714 16.9286ZM1.5 18.0001C1.5 16.6983 2.55532 15.6429 3.85714 15.6429C5.15894 15.6429 6.21428 16.6983 6.21428 18.0001C6.21428 19.3019 5.15894 20.3572 3.85714 20.3572C2.55532 20.3572 1.5 19.3018 1.5 18.0001Z" fill="#565E65"/>
<path fill-rule="evenodd" clip-rule="evenodd" d="M3.85714 10.0715C3.26541 10.0715 2.78571 10.5512 2.78571 11.1429C2.78571 11.7346 3.26541 12.2143 3.85714 12.2143C4.44886 12.2143 4.92857 11.7346 4.92857 11.1429C4.92857 10.5512 4.44886 10.0715 3.85714 10.0715ZM1.5 11.1429C1.5 9.84112 2.55532 8.78577 3.85714 8.78577C5.15894 8.78577 6.21428 9.84111 6.21428 11.1429C6.21428 12.4447 5.15894 13.5001 3.85714 13.5001C2.55532 13.5001 1.5 12.4447 1.5 11.1429Z" fill="#565E65"/>
<path fill-rule="evenodd" clip-rule="evenodd" d="M10.7126 10.0715C10.1209 10.0715 9.64118 10.5512 9.64118 11.1429C9.64118 11.7346 10.1209 12.2143 10.7126 12.2143C11.3043 12.2143 11.784 11.7346 11.784 11.1429C11.784 10.5512 11.3043 10.0715 10.7126 10.0715ZM8.35547 11.1429C8.35547 9.84111 9.41081 8.78577 10.7126 8.78577C12.0144 8.78577 13.0698 9.84111 13.0698 11.1429C13.0698 12.4447 12.0144 13.5001 10.7126 13.5001C9.41081 13.5001 8.35547 12.4447 8.35547 11.1429Z" fill="#565E65"/>
</svg>
