<svg width="1440" height="348" viewBox="0 0 1440 348" fill="none" xmlns="http://www.w3.org/2000/svg">
<rect y="-0.000976562" width="1440" height="347.759" fill="#2E74FF"/>
<mask id="mask0_471_3022" style="mask-type:alpha" maskUnits="userSpaceOnUse" x="0" y="-1" width="1440" height="349">
<rect y="-0.000976562" width="1440" height="347.759" fill="#2E74FF"/>
</mask>
<g mask="url(#mask0_471_3022)">
<g opacity="0.4">
<path d="M719.641 247.749V639.416" stroke="white" stroke-width="0.214286" stroke-linecap="round" stroke-linejoin="round"/>
<path d="M636.647 247.749L198.125 639.416" stroke="white" stroke-width="0.214286" stroke-linecap="round" stroke-linejoin="round"/>
<path d="M801.461 247.749L1238.48 639.416" stroke="white" stroke-width="0.214286" stroke-linecap="round" stroke-linejoin="round"/>
<path d="M389.187 247.749L-322.139 406.639" stroke="white" stroke-width="0.214286" stroke-linecap="round" stroke-linejoin="round"/>
<path d="M471.818 247.749L-322.141 484.399" stroke="white" stroke-width="0.214286" stroke-linecap="round" stroke-linejoin="round"/>
<path d="M554.226 247.749L-322.088 639.438" stroke="white" stroke-width="0.214286" stroke-linecap="round" stroke-linejoin="round"/>
<path d="M-322.141 290.617L389.185 210.998" stroke="white" stroke-width="0.214286" stroke-linecap="round" stroke-linejoin="round"/>
<path d="M1049.63 247.749L1761.43 406.622" stroke="white" stroke-width="0.214286" stroke-linecap="round" stroke-linejoin="round"/>
<path d="M966.289 247.749L1761.43 485.022" stroke="white" stroke-width="0.214286" stroke-linecap="round" stroke-linejoin="round"/>
<path d="M1761.43 290.712L1049.63 210.975" stroke="white" stroke-width="0.214286" stroke-linecap="round" stroke-linejoin="round"/>
<path d="M883.881 247.749L1758.65 639.416" stroke="white" stroke-width="0.214286" stroke-linecap="round" stroke-linejoin="round"/>
<path d="M-322.141 174.307L389.185 174.104" stroke="white" stroke-width="0.214286" stroke-linecap="round" stroke-linejoin="round"/>
<path d="M-322.141 57.9968L389.185 137.21" stroke="white" stroke-width="0.214286" stroke-linecap="round" stroke-linejoin="round"/>
<path d="M389.187 100.113L-322.139 -58.7815" stroke="white" stroke-width="0.214286" stroke-linecap="round" stroke-linejoin="round"/>
<path d="M471.081 100.114L-322.139 -135.709" stroke="white" stroke-width="0.214286" stroke-linecap="round" stroke-linejoin="round"/>
<path d="M802.299 100.115L1240.39 -291.557" stroke="white" stroke-width="0.214286" stroke-linecap="round" stroke-linejoin="round"/>
<path d="M553.892 100.114L-322.139 -290.434" stroke="white" stroke-width="0.214286" stroke-linecap="round" stroke-linejoin="round"/>
<path d="M636.697 100.115L197.023 -291.557" stroke="white" stroke-width="0.214286" stroke-linecap="round" stroke-linejoin="round"/>
<path d="M719.641 -291.556V100.116" stroke="white" stroke-width="0.214286" stroke-linecap="round" stroke-linejoin="round"/>
<path d="M967.904 100.114L1761.43 -136.079" stroke="white" stroke-width="0.214286" stroke-linecap="round" stroke-linejoin="round"/>
<path d="M885.104 100.115L1761.43 -291.267" stroke="white" stroke-width="0.214286" stroke-linecap="round" stroke-linejoin="round"/>
<path d="M1049.63 100.218L1761.43 -58.7825" stroke="white" stroke-width="0.214286" stroke-linecap="round" stroke-linejoin="round"/>
<path d="M1761.43 57.8865L1049.63 137.227" stroke="white" stroke-width="0.214286" stroke-linecap="round" stroke-linejoin="round"/>
<path d="M1761.43 174.297L1049.63 174.098" stroke="white" stroke-width="0.214286" stroke-linecap="round" stroke-linejoin="round"/>
<path fill-rule="evenodd" clip-rule="evenodd" d="M-214.191 382.527H1653.47V-34.665H-214.191V382.527Z" stroke="white" stroke-width="0.214286" stroke-linecap="round" stroke-linejoin="round"/>
<path fill-rule="evenodd" clip-rule="evenodd" d="M-124.992 362.601H1564.21V-14.7441H-124.992V362.601Z" stroke="white" stroke-width="0.214286" stroke-linecap="round" stroke-linejoin="round"/>
<path fill-rule="evenodd" clip-rule="evenodd" d="M-50.1328 345.881H1489.29V1.98145H-50.1328V345.881Z" stroke="white" stroke-width="0.214286" stroke-linecap="round" stroke-linejoin="round"/>
<path fill-rule="evenodd" clip-rule="evenodd" d="M12.5391 331.884H1426.57V15.9814H12.5391V331.884Z" stroke="white" stroke-width="0.214286" stroke-linecap="round" stroke-linejoin="round"/>
<path fill-rule="evenodd" clip-rule="evenodd" d="M65.7773 319.991H1373.29V27.8755H65.7773V319.991Z" stroke="white" stroke-width="0.214286" stroke-linecap="round" stroke-linejoin="round"/>
<path fill-rule="evenodd" clip-rule="evenodd" d="M111.553 309.761H1327.48V38.0945H111.553V309.761Z" stroke="white" stroke-width="0.214286" stroke-linecap="round" stroke-linejoin="round"/>
<path fill-rule="evenodd" clip-rule="evenodd" d="M151.342 300.875H1287.67V46.9854H151.342V300.875Z" stroke="white" stroke-width="0.214286" stroke-linecap="round" stroke-linejoin="round"/>
<path fill-rule="evenodd" clip-rule="evenodd" d="M186.248 293.078H1252.74V54.7808H186.248V293.078Z" stroke="white" stroke-width="0.214286" stroke-linecap="round" stroke-linejoin="round"/>
<path fill-rule="evenodd" clip-rule="evenodd" d="M217.115 286.187H1221.85V61.6753H217.115V286.187Z" stroke="white" stroke-width="0.214286" stroke-linecap="round" stroke-linejoin="round"/>
<path fill-rule="evenodd" clip-rule="evenodd" d="M244.59 280.048H1194.34V67.8171H244.59V280.048Z" stroke="white" stroke-width="0.214286" stroke-linecap="round" stroke-linejoin="round"/>
<path fill-rule="evenodd" clip-rule="evenodd" d="M269.234 274.543H1169.68V73.3201H269.234V274.543Z" stroke="white" stroke-width="0.214286" stroke-linecap="round" stroke-linejoin="round"/>
<path fill-rule="evenodd" clip-rule="evenodd" d="M291.436 269.581H1147.46V78.2786H291.436V269.581Z" stroke="white" stroke-width="0.214286" stroke-linecap="round" stroke-linejoin="round"/>
<path fill-rule="evenodd" clip-rule="evenodd" d="M311.559 265.087H1127.32V82.7759H311.559V265.087Z" stroke="white" stroke-width="0.214286" stroke-linecap="round" stroke-linejoin="round"/>
<path fill-rule="evenodd" clip-rule="evenodd" d="M389.188 247.748H1049.64V100.114H389.188V247.748Z" stroke="white" stroke-width="0.214286" stroke-linecap="round" stroke-linejoin="round"/>
<path fill-rule="evenodd" clip-rule="evenodd" d="M376.119 250.666H1062.71V97.197H376.119V250.666Z" stroke="white" stroke-width="0.214286" stroke-linecap="round" stroke-linejoin="round"/>
<path fill-rule="evenodd" clip-rule="evenodd" d="M361.969 253.825H1076.87V94.0366H361.969V253.825Z" stroke="white" stroke-width="0.214286" stroke-linecap="round" stroke-linejoin="round"/>
<path fill-rule="evenodd" clip-rule="evenodd" d="M346.609 257.257H1092.24V90.6035H346.609V257.257Z" stroke="white" stroke-width="0.214286" stroke-linecap="round" stroke-linejoin="round"/>
<path fill-rule="evenodd" clip-rule="evenodd" d="M329.869 260.998H1109V86.8677H329.869V260.998Z" stroke="white" stroke-width="0.214286" stroke-linecap="round" stroke-linejoin="round"/>
</g>
</g>
</svg>
