<svg width="43" height="44" viewBox="0 0 43 44" fill="none" xmlns="http://www.w3.org/2000/svg">
<g clip-path="url(#clip0_471_2695)">
<path d="M9.73225 31.4496C9.38235 31.5329 9.05033 31.6785 8.7521 31.8795C8.49836 31.0989 8.17413 30.343 7.78342 29.6212C7.33633 28.5894 6.83193 27.5749 6.35045 26.5489C6.29255 26.4459 6.26474 26.3287 6.27021 26.2107C6.47583 26.042 6.71381 25.9172 6.96949 25.8439C7.09931 25.941 7.19389 26.0779 7.23889 26.2336C7.94391 27.7239 8.6432 29.2199 9.31956 30.7217C9.44466 30.9712 9.58241 31.2142 9.73225 31.4496Z" fill="#2065F5"/>
<path d="M11.6562 34.7846C11.8617 34.4888 12.0077 34.1559 12.0861 33.8044C13.0835 34.3776 14.1611 34.7903 15.1871 35.3062C15.8226 35.5728 16.4444 35.8713 17.0499 36.2004C17.0499 36.5615 17.0499 36.9168 17.0499 37.2722C16.5562 36.9466 16.0274 36.6775 15.4737 36.4698C14.3273 35.8966 13.1809 35.4036 12.0346 34.8706C11.9175 34.811 11.7875 34.7814 11.6562 34.7846Z" fill="#2065F5"/>
<path d="M8.75899 12.0471C9.0546 12.2491 9.38493 12.3948 9.7334 12.477C9.11436 13.5145 8.69021 14.6494 8.15714 15.727C7.83616 16.3861 7.58395 17.074 7.22285 17.7274C7.15979 17.8592 7.11394 18.0025 6.96491 18.0713C6.70652 18.0049 6.46711 17.8793 6.26562 17.7045C6.48422 17.0608 6.7545 16.4359 7.07382 15.8359C7.57822 14.6895 8.12275 13.5431 8.65581 12.3968C8.71696 12.2898 8.75229 12.1701 8.75899 12.0471Z" fill="#2065F5"/>
<path d="M12.0861 10.1039C12.0077 9.7524 11.8617 9.41952 11.6562 9.12373C12.357 8.90595 13.0347 8.6199 13.6796 8.26968C14.6941 7.82833 15.68 7.34112 16.6774 6.87111C16.8052 6.79961 16.9278 6.71916 17.0442 6.63037V7.70796C16.8061 7.87888 16.5432 8.01226 16.2647 8.10346C15.0037 8.67665 13.7598 9.28422 12.4988 9.82302C12.3269 9.92619 12.2409 10.0638 12.0861 10.1039Z" fill="#2065F5"/>
<path d="M31.0596 33.8044C31.1401 34.1553 31.2859 34.4878 31.4895 34.7846C31.1131 34.857 30.7535 34.9989 30.4291 35.203C29.128 35.7762 27.844 36.4067 26.5429 36.9914C26.417 37.0353 26.3104 37.1217 26.2413 37.2357C26.1723 37.3497 26.1451 37.4843 26.1646 37.6161C26.1646 38.5619 26.1646 39.5019 26.1646 40.4477C26.1646 40.6082 26.2162 40.7744 26.1015 40.9177C26.1015 39.5363 26.1015 38.1492 26.1015 36.7678C26.1015 36.5901 26.1015 36.4124 26.1015 36.2348C26.0698 36.203 26.0492 36.1618 26.043 36.1173C26.0368 36.0728 26.0453 36.0275 26.0671 35.9883C26.4084 36.0364 26.7554 35.9568 27.0416 35.7647C28.1879 35.2374 29.2942 34.6929 30.4348 34.1999C30.6698 34.0796 30.8418 33.9248 31.0596 33.8044Z" fill="#2065F5"/>
<path d="M34.3981 31.8844C34.1041 31.6758 33.7706 31.5295 33.418 31.4545C34.0427 30.417 34.4612 29.2764 34.9942 28.1988C35.3209 27.5397 35.5961 26.8518 35.9343 26.1984C35.9761 26.055 36.0675 25.9311 36.1922 25.8488C36.4469 25.9231 36.6832 26.05 36.8857 26.2213C36.6705 26.858 36.4021 27.4754 36.0833 28.067C35.5789 29.2134 35.0286 30.3597 34.5013 31.5061C34.4359 31.6216 34.4005 31.7517 34.3981 31.8844Z" fill="#2065F5"/>
<path d="M33.418 12.477C33.7706 12.4021 34.1041 12.2558 34.3981 12.0471C34.6554 12.8245 34.9795 13.5782 35.3668 14.2997C35.8139 15.3315 36.3183 16.346 36.794 17.3663C36.8325 17.4772 36.8651 17.5901 36.8915 17.7045C36.6634 17.8744 36.4197 18.0222 36.1635 18.1458C35.7367 17.3753 35.3539 16.5811 35.0172 15.7671C34.5701 14.8213 34.1173 13.8813 33.6988 12.9012C33.63 12.7579 33.4868 12.6432 33.418 12.477Z" fill="#2065F5"/>
<path d="M26.0843 7.98828C26.153 7.77047 26.2562 7.71315 26.4912 7.82206C27.9013 8.48695 29.317 9.12892 30.7328 9.78235C30.8818 9.85113 31.0251 9.92565 31.0423 10.1148C30.9953 10.4353 31.0237 10.7624 31.1254 11.07C31.227 11.3775 31.3991 11.6571 31.6279 11.8865C31.8567 12.1158 32.1358 12.2886 32.4432 12.391C32.7505 12.4934 33.0775 12.5226 33.3981 12.4763C33.593 12.4763 33.6675 12.6311 33.7363 12.7858C34.5273 14.5054 35.3183 16.1848 36.1036 17.8929C36.1289 17.9747 36.1424 18.0596 36.1437 18.1451L34.1605 19.1024C34.0707 19.1414 33.9949 19.2066 33.9427 19.2894C33.8906 19.3723 33.8646 19.4688 33.8681 19.5666C33.8681 21.1563 33.8681 22.744 33.8681 24.3298C33.8775 24.3739 33.8971 24.4151 33.9255 24.4502C33.9255 24.7024 34.1146 24.7884 34.298 24.8858L36.1666 25.843C35.7826 26.6856 35.4043 27.5626 35.0202 28.3765C34.6362 29.1904 34.1891 30.1649 33.7707 31.059C33.6962 31.2253 33.6389 31.4259 33.3981 31.4488C33.0778 31.4015 32.7509 31.4298 32.4435 31.5315C32.1361 31.6331 31.8567 31.8053 31.6278 32.0343C31.3989 32.2632 31.2267 32.5426 31.125 32.85C31.0233 33.1574 30.995 33.4843 31.0423 33.8046C31.0423 33.9995 30.8818 34.074 30.7328 34.1428C29.317 34.7962 27.8669 35.4382 26.4855 36.1031C26.239 36.2234 26.1588 36.1031 26.0785 35.9368C25.8688 35.7312 25.6243 35.5643 25.3563 35.4439C24.2902 34.9166 23.2183 34.3892 22.1637 33.839C21.9943 33.7392 21.8014 33.6865 21.6048 33.6865C21.4083 33.6865 21.2153 33.7392 21.046 33.839C19.8709 34.4466 18.7016 35.0656 17.4865 35.5987C17.1827 35.7305 17.1999 36.0171 17.0394 36.212C16.725 36.1752 16.4232 36.0674 16.1567 35.8967C14.9071 35.3235 13.6748 34.7503 12.4367 34.1772C12.2762 34.1026 12.1042 34.0396 12.0871 33.8218C12.1344 33.5015 12.106 33.1746 12.0044 32.8672C11.9027 32.5598 11.7305 32.2804 11.5016 32.0515C11.2726 31.8225 10.9933 31.6503 10.6859 31.5487C10.3785 31.447 10.0516 31.4187 9.73126 31.466C9.66507 31.4571 9.60249 31.4306 9.55006 31.3893C9.49762 31.3479 9.45726 31.2933 9.4332 31.231L6.9685 25.8602L8.79123 24.9145C8.96319 24.8285 9.14661 24.7654 9.19819 24.5476C9.31283 24.4215 9.26698 24.2668 9.26698 24.1292C9.26698 22.6905 9.26698 21.2633 9.26698 19.8131C9.28903 19.6401 9.25017 19.4648 9.15709 19.3174C9.064 19.1699 8.92249 19.0594 8.75684 19.0049C8.13779 18.7413 7.55315 18.3973 6.95703 18.0878C7.33533 17.2624 7.70791 16.4313 8.1034 15.6002C8.4989 14.7691 8.94599 13.7889 9.37015 12.8833C9.45039 12.7113 9.50771 12.5165 9.74272 12.4935C10.0655 12.5402 10.3947 12.5101 10.7036 12.4058C11.0126 12.3014 11.2926 12.1257 11.5209 11.8929C11.7493 11.66 11.9195 11.3767 12.0179 11.0658C12.1163 10.7548 12.14 10.4251 12.0871 10.1033C12.0954 10.0378 12.121 9.97564 12.1613 9.92326C12.2016 9.87088 12.2551 9.83017 12.3163 9.80528L16.9018 7.71315C16.9585 7.70141 17.0171 7.70141 17.0738 7.71315C17.0468 7.86283 17.0734 8.01722 17.1489 8.14926C17.2243 8.28131 17.3438 8.38259 17.4865 8.43536C18.7245 9.00855 19.9569 9.66772 21.1892 10.2753C21.3325 10.3441 21.4758 10.5103 21.6707 10.3899C21.7223 10.2466 21.8484 10.2008 21.9688 10.1492C23.1152 9.64479 24.2615 9.00282 25.3735 8.48122C25.6213 8.3331 25.8587 8.16841 26.0843 7.98828V7.98828Z" stroke="#FDDE17" stroke-width="0.643001" stroke-miterlimit="10"/>
<path d="M26.9678 21.9741C26.9678 22.8167 26.9678 23.6535 26.9678 24.4961C26.985 24.6654 26.9475 24.8357 26.8608 24.9822C26.7742 25.1287 26.6429 25.2435 26.4863 25.31C24.9559 26.0609 23.4255 26.829 21.9008 27.6028C21.7995 27.6606 21.6849 27.691 21.5683 27.691C21.4517 27.691 21.3372 27.6606 21.2359 27.6028C19.7112 26.8347 18.1808 26.0666 16.6504 25.31C16.5001 25.2487 16.3731 25.1413 16.2877 25.0033C16.2022 24.8653 16.1626 24.7038 16.1747 24.5419C16.1747 22.8224 16.1747 21.1028 16.1747 19.3833C16.1604 19.2137 16.2012 19.044 16.291 18.8994C16.3809 18.7548 16.5149 18.6431 16.6733 18.5808C18.2018 17.8357 19.717 17.0714 21.2187 16.2881C21.3259 16.2262 21.4475 16.1936 21.5712 16.1936C21.695 16.1936 21.8165 16.2262 21.9237 16.2881C23.4522 17.0523 24.9673 17.8166 26.4691 18.5808C26.6275 18.6431 26.7616 18.7548 26.8514 18.8994C26.9412 19.044 26.982 19.2137 26.9678 19.3833C26.9563 20.266 26.9678 21.12 26.9678 21.9741Z" fill="url(#paint0_linear_471_2695)"/>
<path d="M18.6796 21.6419C18.6796 21.3725 18.6796 21.0687 18.6796 20.8223C18.6796 20.5758 18.8 20.3178 19.1152 20.3236C19.4305 20.3293 19.5165 20.5471 19.5165 20.8108C19.5165 21.5731 19.5165 22.3412 19.5165 23.1035C19.5312 23.2077 19.5073 23.3136 19.4492 23.4013C19.3911 23.4889 19.3029 23.5523 19.2012 23.5793C18.9605 23.6481 18.8172 23.5105 18.6968 23.3271C18.4481 22.9346 18.1682 22.5628 17.86 22.2151C17.86 22.5132 17.86 22.7883 17.86 23.1093C17.86 23.4302 17.7339 23.6079 17.4301 23.6022C17.1263 23.5965 17.0403 23.3844 17.046 23.1093C17.046 22.3469 17.046 21.5846 17.046 20.8165C17.03 20.7137 17.0528 20.6086 17.11 20.5217C17.1672 20.4348 17.2548 20.3723 17.3556 20.3465C17.4493 20.3223 17.5485 20.3314 17.6363 20.3722C17.7241 20.4129 17.795 20.4828 17.837 20.57L18.5765 21.6648L18.6796 21.6419Z" fill="#FEFEFE"/>
<path d="M20.3513 21.945C20.3513 21.5725 20.3513 21.2056 20.3513 20.8388C20.3402 20.7683 20.3456 20.6961 20.367 20.628C20.3884 20.56 20.4252 20.4977 20.4746 20.4461C20.5239 20.3946 20.5845 20.3551 20.6516 20.3307C20.7187 20.3064 20.7905 20.2978 20.8614 20.3057H22.3173C22.5982 20.3057 22.8332 20.4261 22.816 20.7413C22.7988 21.0566 22.5695 21.1483 22.2886 21.1483C22.0824 21.1598 21.8758 21.1598 21.6696 21.1483C21.2569 21.091 21.1308 21.2515 21.1595 21.6584C21.1595 21.9164 21.2626 21.9909 21.4976 21.968C21.6599 21.9593 21.8226 21.9593 21.9848 21.968C22.0407 21.9635 22.0968 21.9714 22.1492 21.9909C22.2017 22.0105 22.2493 22.0413 22.2886 22.0811C22.3279 22.121 22.358 22.169 22.3768 22.2217C22.3957 22.2744 22.4027 22.3306 22.3975 22.3864C22.4009 22.4384 22.3931 22.4906 22.3747 22.5394C22.3563 22.5882 22.3277 22.6326 22.2909 22.6695C22.254 22.7064 22.2096 22.735 22.1608 22.7533C22.112 22.7717 22.0598 22.7795 22.0078 22.7761C21.92 22.7819 21.8319 22.7819 21.7441 22.7761C21.3887 22.7418 21.0964 22.7761 21.1709 23.2576C21.1709 23.4869 20.999 23.6015 20.7926 23.6015C20.7368 23.6049 20.6809 23.5963 20.6286 23.5765C20.5763 23.5566 20.5289 23.5259 20.4893 23.4864C20.4498 23.4469 20.4191 23.3994 20.3992 23.3471C20.3794 23.2948 20.3708 23.2389 20.3742 23.1831C20.3742 22.7704 20.3742 22.3577 20.3742 21.945H20.3513Z" fill="#F6FCFF"/>
<path d="M24.4686 22.2551C24.4686 22.0774 24.4686 21.8997 24.4686 21.7278C24.4686 21.3839 24.5145 21.0801 24.0043 21.1259C23.775 21.1259 23.6318 20.9425 23.6432 20.7018C23.6417 20.6531 23.6499 20.6047 23.6673 20.5592C23.6846 20.5137 23.7109 20.4722 23.7445 20.437C23.7781 20.4018 23.8184 20.3736 23.863 20.3541C23.9076 20.3346 23.9557 20.3242 24.0043 20.3235C24.5775 20.3235 25.1507 20.3235 25.7239 20.3235C25.7764 20.3239 25.8283 20.3354 25.8761 20.3573C25.9239 20.3792 25.9665 20.4109 26.0011 20.4504C26.0358 20.49 26.0617 20.5364 26.0771 20.5866C26.0926 20.6368 26.0972 20.6898 26.0907 20.7419C26.0968 20.7938 26.0913 20.8464 26.0746 20.896C26.058 20.9455 26.0307 20.9908 25.9945 21.0286C25.9584 21.0663 25.9144 21.0957 25.8656 21.1145C25.8169 21.1333 25.7646 21.1411 25.7124 21.1374C25.2481 21.0916 25.2768 21.3724 25.2825 21.6762C25.2825 22.1462 25.2825 22.6162 25.2825 23.0862C25.2825 23.3786 25.1736 23.5964 24.8698 23.6078C24.566 23.6193 24.4571 23.39 24.4629 23.0977C24.4686 22.8054 24.4686 22.536 24.4686 22.2551Z" fill="#F6F8FF"/>
<path d="M21.5688 30.3606C26.2128 30.3606 29.9774 26.5959 29.9774 21.952C29.9774 17.308 26.2128 13.5433 21.5688 13.5433C16.9248 13.5433 13.1602 17.308 13.1602 21.952C13.1602 26.5959 16.9248 30.3606 21.5688 30.3606Z" stroke="#2E74FF" stroke-width="1.286" stroke-miterlimit="10"/>
<path d="M23.6945 1.50596C24.3422 1.90719 25.0414 2.21098 25.7178 2.54342C25.8955 2.6294 26.0732 2.68672 26.0904 2.916C26.1342 2.99671 26.1445 3.09142 26.119 3.17966C26.0826 3.26785 26.0289 3.3478 25.9609 3.41477C25.893 3.48173 25.8122 3.53433 25.7235 3.56943C24.4453 4.22286 23.1614 4.8591 21.8775 5.50107C21.7851 5.54844 21.6831 5.57394 21.5794 5.57558C21.4185 5.56369 21.2631 5.51252 21.1266 5.42655L17.5786 3.65541C17.3558 3.57088 17.1735 3.40494 17.0684 3.19113C17.0054 2.85295 17.1315 2.66953 17.4639 2.5205C18.1505 2.23065 18.8152 1.89158 19.4529 1.50596C20.0652 1.2523 20.6624 0.963312 21.2412 0.640446C21.344 0.584257 21.4593 0.55481 21.5765 0.55481C21.6937 0.55481 21.809 0.584257 21.9118 0.640446C22.4905 0.959899 23.0855 1.2488 23.6945 1.50596Z" fill="#2874FF"/>
<path d="M17.0677 3.22559C17.4277 3.50366 17.8252 3.72944 18.2484 3.89621C19.3604 4.43501 20.438 5.04259 21.5787 5.52406C21.7041 5.72356 21.7511 5.96254 21.7105 6.19469C21.7105 7.55314 21.7105 8.91159 21.7105 10.27C21.7105 10.4535 21.636 10.5452 21.4411 10.5108C21.3277 10.4788 21.2182 10.4346 21.1144 10.379C19.9164 9.77711 18.7242 9.16953 17.5148 8.58488C17.3285 8.51567 17.1708 8.38603 17.0669 8.21666C16.963 8.04729 16.9189 7.84798 16.9416 7.65059C16.8953 7.31846 16.9308 6.98007 17.0447 6.6647L17.0677 3.22559Z" fill="#2874FF"/>
<path d="M31.4907 9.13998C31.2887 9.43559 31.1429 9.76592 31.0608 10.1144C30.0348 9.50108 28.9113 9.09412 27.8452 8.56106C27.5529 8.41776 27.272 8.27446 26.9625 8.14836C26.653 8.02226 26.4524 7.84458 26.1314 7.98787C26.0626 7.98787 26.0167 7.91336 25.9938 7.83884C25.8964 6.56064 25.9938 5.28243 25.9479 4.00423C25.9143 3.73646 25.9623 3.46478 26.0855 3.22469V2.92664C26.2173 3.0642 26.16 3.23616 26.16 3.39092C26.16 4.38826 26.16 5.38561 26.16 6.38868C26.16 6.5893 26.16 6.75552 26.395 6.85296L31.2671 9.10558C31.3398 9.12684 31.415 9.13841 31.4907 9.13998Z" fill="#2065F5"/>
<path d="M26.0858 7.98851C26.0745 8.06867 26.0427 8.14455 25.9935 8.20882C25.9443 8.27309 25.8793 8.32356 25.8049 8.35535C24.4235 9.03171 23.0708 9.77685 21.6608 10.3902C21.5117 10.2641 21.5633 10.0921 21.5633 9.93734C21.5633 8.46616 21.5633 6.98925 21.5633 5.50661C23.0765 4.79013 24.6012 4.07938 26.0571 3.21387C26.0762 4.80733 26.0858 6.39887 26.0858 7.98851Z" fill="#0A22DB"/>
<path d="M1.48914 18.5987C1.87126 18.4115 2.25338 18.2204 2.63551 18.0255C3.09055 17.734 3.57229 17.4864 4.07421 17.2861C4.16806 17.2552 4.26379 17.2303 4.3608 17.2116C4.62575 17.1583 4.89893 17.1614 5.1626 17.2207C5.42627 17.2799 5.67452 17.394 5.89121 17.5555L6.04597 17.6759C6.09756 17.716 6.18354 17.7103 6.25805 17.7332C6.54698 17.809 6.82595 17.9187 7.08917 18.0599C7.66236 18.3408 8.23554 18.6331 8.80873 18.914C8.98345 18.9792 9.13303 19.0981 9.236 19.2536C9.33898 19.409 9.39006 19.5932 9.38191 19.7795C9.38191 21.2354 9.38191 22.6913 9.38191 24.1472C9.38191 24.3076 9.38191 24.4796 9.21569 24.5713C8.98641 24.4452 9.0552 24.2159 9.04947 23.9981C9.04947 22.8518 9.04947 21.6481 9.04947 20.4673C9.04947 19.9572 9.04947 19.9514 8.56799 20.1922L5.25497 21.8487C5.0908 21.9483 4.91035 22.0181 4.72191 22.055C4.54581 22.059 4.37242 22.0111 4.22324 21.9175L0.629357 20.1177C0.420705 20.0381 0.251823 19.8795 0.159344 19.6763C-0.0527349 19.1375 0.772654 18.9197 1.1223 18.7649L1.48914 18.5987Z" fill="#2874FF"/>
<path d="M0.177119 19.6707C0.438343 19.8847 0.730059 20.0586 1.04263 20.1865L4.68236 21.9806C4.84647 22.2649 4.91479 22.5945 4.87725 22.9206C4.96329 24.2261 4.96329 25.5358 4.87725 26.8412C4.61931 27.0246 4.42443 26.8068 4.23528 26.7151C3.26086 26.2566 2.30364 25.7751 1.36934 25.2993C1.32387 25.2636 1.27599 25.2311 1.22605 25.2019C0.0338196 24.5714 0.217241 24.9268 0.211509 23.5167C0.159923 22.2328 0.171388 20.9546 0.177119 19.6707Z" fill="#2874FF"/>
<path d="M4.87744 26.841C4.72268 26.7149 4.78 26.5373 4.78 26.3825C4.78 25.431 4.78 24.4738 4.78 23.5166C4.72183 23.0066 4.69503 22.4936 4.69975 21.9804L8.7751 19.9743L9.21646 19.7507V24.5311C9.31963 24.8177 9.07889 24.8807 8.91267 24.9667C8.29363 25.2934 7.66312 25.603 7.03835 25.9125C6.78614 25.9985 6.57407 26.1991 6.28747 26.2105L4.87744 26.841Z" fill="#0A22DB"/>
<path d="M19.4587 42.4023C18.8167 42.0699 18.1862 41.7202 17.5385 41.4164C17.3801 41.3616 17.2451 41.2546 17.1556 41.1129C17.066 40.9713 17.0272 40.8035 17.0456 40.6369C17.0456 39.4905 17.0456 38.3957 17.0456 37.2723C16.9198 36.971 16.8957 36.637 16.9768 36.3208C16.9917 36.2749 17.015 36.2321 17.0456 36.1947C17.2404 36.1374 17.3895 36.252 17.5442 36.3265C18.788 36.9398 20.0261 37.5646 21.2642 38.1837C21.4304 38.2696 21.6196 38.3384 21.6769 38.5562C21.7629 40.0351 21.6769 41.5196 21.6769 42.9984C21.681 43.064 21.672 43.1297 21.6503 43.1917C21.6286 43.2537 21.5948 43.3108 21.5508 43.3595C20.9825 43.1532 20.4322 42.9002 19.9057 42.6029L19.4587 42.4023Z" fill="#2874FF"/>
<path d="M21.5801 43.3491C21.5801 41.7097 21.5801 40.0685 21.5801 38.4254C21.6947 38.2076 21.9412 38.1961 22.1533 38.0987C23.334 37.4911 24.5263 36.9523 25.7013 36.3046C25.8618 36.2243 26.0567 36.0123 26.2057 36.339C26.3433 36.7803 26.1369 37.2045 26.1426 37.6401C26.1426 38.7234 26.1828 39.8068 26.1426 40.8901C26.1426 41.1537 25.9363 41.2569 25.7299 41.3601L23.7353 42.3918L22.0673 43.1886C21.9253 43.2911 21.7552 43.3471 21.5801 43.3491Z" fill="#0A22DB"/>
<path d="M17.059 36.2065C16.9845 35.7995 17.1736 35.6333 17.5462 35.4556C18.7728 34.8824 19.9822 34.2691 21.1859 33.6443C21.3112 33.5713 21.4536 33.5328 21.5986 33.5328C21.7436 33.5328 21.886 33.5713 22.0113 33.6443L25.8116 35.5416C25.9835 35.6218 26.1153 35.7192 26.0981 35.9371C26.0981 36.0288 26.0981 36.1262 26.0981 36.2179L22.0858 38.247C21.9311 38.3215 21.7591 38.3731 21.5986 38.4361C20.051 37.7483 18.5665 36.9516 17.059 36.2065Z" fill="#2874FF"/>
<path d="M36.8893 17.7043C37.3218 17.564 37.7357 17.3716 38.1216 17.1311C38.2297 17.0719 38.3509 17.0409 38.4741 17.0409C38.5973 17.0409 38.7186 17.0719 38.8266 17.1311C39.824 17.6355 40.8271 18.117 41.8301 18.6099C42.0737 18.7594 42.3264 18.8934 42.5867 19.0112C42.902 19.1373 43.0568 19.3207 42.9765 19.6646C42.8966 19.8412 42.7564 19.9834 42.581 20.0658C41.3372 20.6963 40.0877 21.3154 38.8381 21.9402C38.7219 22.0047 38.5925 22.0419 38.4598 22.0491C38.4141 22.0546 38.3679 22.0546 38.3222 22.0491C37.0498 21.4759 35.8231 20.811 34.5679 20.1977C34.0864 19.9627 34.0864 19.9569 34.0864 20.5129C34.0864 21.6593 34.0864 22.7713 34.0864 23.9005C34.0864 24.1011 34.1437 24.3189 33.9374 24.4736C33.7196 24.3647 33.7539 24.1584 33.7539 23.975C33.7539 22.5917 33.7539 21.2103 33.7539 19.8308C33.7412 19.6379 33.7898 19.4459 33.8927 19.2822C33.9957 19.1185 34.1477 18.9916 34.3271 18.9195C34.9003 18.6443 35.4735 18.3463 36.0467 18.0883C36.3218 17.9852 36.5511 17.7215 36.8893 17.7043Z" fill="#2874FF"/>
<path d="M38.4836 21.9691L42.708 19.8885C42.8062 19.8245 42.8983 19.7516 42.9831 19.6707C42.9831 21.2183 42.9831 22.7659 42.9831 24.3135C42.9921 24.4343 42.9625 24.5549 42.8987 24.6579C42.8348 24.7608 42.74 24.8409 42.6277 24.8867C42.3583 25.0242 42.0889 25.1732 41.8196 25.3165L39.0855 26.6578L38.6441 26.8527C38.3116 26.8928 38.3518 26.6349 38.346 26.4514C38.346 25.7808 38.346 25.1045 38.346 24.4338V23.0525C38.3976 22.7143 38.2429 22.3073 38.4836 21.9691Z" fill="#0A22DB"/>
<path d="M33.9483 24.4335V19.7449L38.3848 21.9688C38.4345 22.3277 38.4498 22.6904 38.4306 23.0522C38.4306 24.1985 38.4306 25.3105 38.4306 26.4454C38.4306 26.5715 38.5567 26.7779 38.3045 26.8352C37.8059 26.6919 37.3989 26.3365 36.8945 26.2161C36.6284 26.1535 36.3734 26.0511 36.1379 25.9124C35.5131 25.5971 34.8826 25.2933 34.2636 24.9666C34.0572 24.8634 33.805 24.766 33.9483 24.4335Z" fill="#2874FF"/>
<path d="M38.293 26.8351C38.442 26.709 38.3847 26.537 38.3847 26.3823C38.3847 25.2359 38.3847 24.1411 38.3847 23.0234C38.4133 22.9833 38.442 22.9833 38.4649 23.0234C38.4649 24.1698 38.4649 25.2817 38.4649 26.4109C38.4649 26.5657 38.3675 26.7835 38.6426 26.8351C38.6211 26.8604 38.5943 26.8808 38.5641 26.8948C38.5339 26.9088 38.5011 26.916 38.4678 26.916C38.4345 26.916 38.4017 26.9088 38.3715 26.8948C38.3413 26.8808 38.3145 26.8604 38.293 26.8351Z" fill="#2874FF"/>
<path d="M38.465 23.023H38.3848V21.9691H38.4821L38.465 23.023Z" fill="#2874FF"/>
<path d="M31.4653 9.11129C31.8677 8.69069 32.41 8.43177 32.99 8.38334C33.1825 8.37338 33.3755 8.39074 33.5632 8.43493C33.8407 8.50287 34.1013 8.62691 34.329 8.79943C34.5568 8.97194 34.7467 9.18927 34.8872 9.43801C35.0372 9.71759 35.1246 10.0264 35.1434 10.3431C35.1622 10.6598 35.112 10.9768 34.9962 11.2722C34.8816 11.5715 34.6968 11.8388 34.4574 12.0517C34.1809 12.2894 33.8497 12.4547 33.4935 12.5328C33.1373 12.6108 32.7674 12.5991 32.4168 12.4988C32.2794 12.4578 32.1468 12.4021 32.0213 12.3326C31.7266 12.159 31.4766 11.9187 31.2914 11.631C31.1063 11.3433 30.9911 11.0163 30.9552 10.6761C30.8976 10.235 30.9992 9.78791 31.2418 9.41508C31.308 9.30794 31.3827 9.20634 31.4653 9.11129V9.11129Z" stroke="#FDDE17" stroke-width="1.286" stroke-linecap="round" stroke-linejoin="round"/>
<path d="M31.468 32.3206C31.8694 31.8979 32.4118 31.6369 32.9926 31.587C33.1852 31.577 33.3782 31.5944 33.5658 31.6385C33.8433 31.7065 34.104 31.8305 34.3317 32.003C34.5594 32.1756 34.7494 32.3929 34.8899 32.6416C35.0398 32.9212 35.1272 33.23 35.1461 33.5467C35.1649 33.8634 35.1146 34.1804 34.9988 34.4758C34.8827 34.7742 34.6981 35.0412 34.46 35.2553C34.1827 35.4917 33.8515 35.6562 33.4956 35.7341C33.1398 35.8121 32.7701 35.8012 32.4195 35.7024C32.2829 35.6589 32.1506 35.6033 32.024 35.5362C31.727 35.3648 31.4744 35.1262 31.2862 34.8395C31.0981 34.5528 30.9797 34.2261 30.9406 33.8854C30.878 33.4464 30.9735 32.9995 31.21 32.6244C31.2857 32.5148 31.3721 32.4131 31.468 32.3206Z" stroke="#FDDE17" stroke-width="1.286" stroke-linecap="round" stroke-linejoin="round"/>
<path d="M8.14218 9.11129C8.54452 8.69069 9.08682 8.43177 9.66686 8.38334C9.85939 8.37338 10.0524 8.39074 10.24 8.43493C10.5175 8.50287 10.7782 8.62691 11.0059 8.79943C11.2336 8.97194 11.4236 9.18927 11.5641 9.43801C11.7141 9.71759 11.8015 10.0264 11.8203 10.3431C11.8391 10.6598 11.7888 10.9768 11.673 11.2722C11.5709 11.5648 11.4021 11.8297 11.1801 12.046C10.9036 12.2837 10.5724 12.449 10.2162 12.527C9.86004 12.6051 9.49007 12.5934 9.13952 12.4931C9.0021 12.4521 8.8695 12.3963 8.74402 12.3269C8.44144 12.1591 8.18291 11.9221 7.98962 11.6351C7.79634 11.3482 7.67379 11.0195 7.63204 10.6761C7.56937 10.2371 7.66486 9.79014 7.90144 9.41508C7.9731 9.3073 8.05362 9.20568 8.14218 9.11129V9.11129Z" stroke="#FDDE17" stroke-width="1.286" stroke-linecap="round" stroke-linejoin="round"/>
<path d="M8.14477 32.3206C8.54622 31.8979 9.08862 31.6369 9.66944 31.587C9.86198 31.577 10.055 31.5944 10.2426 31.6385C10.5201 31.7065 10.7808 31.8305 11.0085 32.003C11.2362 32.1756 11.4262 32.3929 11.5667 32.6416C11.7166 32.9212 11.804 33.23 11.8229 33.5467C11.8417 33.8634 11.7914 34.1804 11.6756 34.4758C11.5727 34.7698 11.4042 35.0364 11.1827 35.2553C10.9054 35.4917 10.5742 35.6562 10.2183 35.7341C9.86242 35.8121 9.4928 35.8012 9.14211 35.7024C9.00559 35.6589 8.87322 35.6033 8.74661 35.5362C8.44967 35.3648 8.19701 35.1262 8.00889 34.8395C7.82076 34.5528 7.7024 34.2261 7.66329 33.8854C7.60062 33.4464 7.69611 32.9995 7.93269 32.6244C7.99383 32.5168 8.06483 32.4151 8.14477 32.3206Z" stroke="#FDDE17" stroke-width="1.286" stroke-linecap="round" stroke-linejoin="round"/>
</g>
<defs>
<linearGradient id="paint0_linear_471_2695" x1="21.5741" y1="16.7982" x2="21.5741" y2="28.3995" gradientUnits="userSpaceOnUse">
<stop stop-color="#2E74FF"/>
<stop offset="1" stop-color="#2E74FF" stop-opacity="0"/>
</linearGradient>
<clipPath id="clip0_471_2695">
<rect width="42.8571" height="42.7884" fill="white" transform="translate(0.142578 0.571533)"/>
</clipPath>
</defs>
</svg>
