<svg width="45" height="54" viewBox="0 0 45 54" fill="none" xmlns="http://www.w3.org/2000/svg">
<path fill-rule="evenodd" clip-rule="evenodd" d="M22.8583 18.2844L32.2868 23.8559V34.9987L22.8583 40.5701L13.4297 34.9987L13.4297 23.8559L22.8583 18.2844Z" fill="url(#paint0_linear_471_2671)"/>
<path d="M22.8577 8.85596L23.2919 8.11692C23.0238 7.95945 22.6916 7.95945 22.4235 8.11692L22.8577 8.85596ZM40.0006 18.9274H40.8577C40.8577 18.6235 40.6968 18.3423 40.4347 18.1883L40.0006 18.9274ZM40.0006 39.0702L40.4347 39.8093C40.6968 39.6553 40.8577 39.3741 40.8577 39.0702H40.0006ZM22.8577 49.1417L22.4235 49.8807C22.6916 50.0382 23.0238 50.0382 23.2919 49.8807L22.8577 49.1417ZM5.71484 39.0702H4.8577C4.8577 39.3741 5.01863 39.6553 5.28066 39.8093L5.71484 39.0702ZM5.71484 18.9274L5.28066 18.1883C5.01863 18.3423 4.8577 18.6235 4.8577 18.9274H5.71484ZM23.7148 28.7974C23.7148 28.324 23.3311 27.9402 22.8577 27.9402C22.3843 27.9402 22.0006 28.324 22.0006 28.7974H23.7148ZM22.4235 9.595L39.5664 19.6664L40.4347 18.1883L23.2919 8.11692L22.4235 9.595ZM39.1434 18.9274V39.0702H40.8577V18.9274H39.1434ZM39.5664 38.3312L22.4235 48.4026L23.2919 49.8807L40.4347 39.8093L39.5664 38.3312ZM23.2919 48.4026L6.14903 38.3312L5.28066 39.8093L22.4235 49.8807L23.2919 48.4026ZM6.57199 39.0702V18.9274H4.8577V39.0702H6.57199ZM6.14903 19.6664L23.2919 9.595L22.4235 8.11692L5.28066 18.1883L6.14903 19.6664ZM22.0006 28.7974V49.1417H23.7148V28.7974H22.0006Z" fill="#2E74FF"/>
<path d="M11.2805 49.4844L1.7793 43.6578V15.1421L11.2805 9.16235" stroke="#FDDE17" stroke-width="1.71429" stroke-linecap="round" stroke-linejoin="round"/>
<path fill-rule="evenodd" clip-rule="evenodd" d="M13.3662 10.321C14.646 10.321 15.6835 9.28348 15.6835 8.00364C15.6835 6.7238 14.646 5.68628 13.3662 5.68628C12.0863 5.68628 11.0488 6.7238 11.0488 8.00364C11.0488 9.28348 12.0863 10.321 13.3662 10.321Z" stroke="#FDDE17" stroke-width="1.71429"/>
<path fill-rule="evenodd" clip-rule="evenodd" d="M13.3662 52.96C14.646 52.96 15.6835 51.9225 15.6835 50.6427C15.6835 49.3628 14.646 48.3253 13.3662 48.3253C12.0863 48.3253 11.0488 49.3628 11.0488 50.6427C11.0488 51.9225 12.0863 52.96 13.3662 52.96Z" stroke="#FDDE17" stroke-width="1.71429"/>
<path d="M34.4363 49.4832L43.9375 43.6566V15.141L34.4363 9.39294" stroke="#FDDE17" stroke-width="1.71429" stroke-linecap="round" stroke-linejoin="round"/>
<path fill-rule="evenodd" clip-rule="evenodd" d="M32.3506 10.321C31.0708 10.321 30.0333 9.28348 30.0333 8.00364C30.0333 6.7238 31.0708 5.68628 32.3506 5.68628C33.6305 5.68628 34.668 6.7238 34.668 8.00364C34.668 9.28348 33.6305 10.321 32.3506 10.321Z" stroke="#FDDE17" stroke-width="1.71429"/>
<path fill-rule="evenodd" clip-rule="evenodd" d="M32.3506 52.96C31.0708 52.96 30.0333 51.9225 30.0333 50.6427C30.0333 49.3628 31.0708 48.3253 32.3506 48.3253C33.6305 48.3253 34.668 49.3628 34.668 50.6427C34.668 51.9225 33.6305 52.96 32.3506 52.96Z" stroke="#FDDE17" stroke-width="1.71429"/>
<rect opacity="0.1" x="17.5703" y="0.28418" width="4.23129" height="4.23129" fill="url(#paint1_linear_471_2671)"/>
<rect opacity="0.1" x="23.918" y="0.28418" width="4.23129" height="4.23129" fill="url(#paint2_linear_471_2671)"/>
<rect opacity="0.4" x="17.5703" y="5.57397" width="4.23129" height="4.23129" fill="url(#paint3_linear_471_2671)"/>
<rect opacity="0.4" x="23.918" y="5.57397" width="4.23129" height="4.23129" fill="url(#paint4_linear_471_2671)"/>
<rect opacity="0.7" x="17.5703" y="10.8628" width="4.23129" height="4.23129" fill="url(#paint5_linear_471_2671)"/>
<rect opacity="0.7" x="23.918" y="10.8628" width="4.23129" height="4.23129" fill="url(#paint6_linear_471_2671)"/>
<rect x="17.5703" y="16.1516" width="4.23129" height="4.23129" fill="url(#paint7_linear_471_2671)"/>
<rect x="23.918" y="16.1516" width="4.23129" height="4.23129" fill="url(#paint8_linear_471_2671)"/>
<defs>
<linearGradient id="paint0_linear_471_2671" x1="22.8583" y1="18.2844" x2="22.8583" y2="40.5701" gradientUnits="userSpaceOnUse">
<stop stop-color="#2E74FF"/>
<stop offset="1" stop-color="#2E74FF" stop-opacity="0"/>
</linearGradient>
<linearGradient id="paint1_linear_471_2671" x1="19.686" y1="0.28418" x2="19.686" y2="4.51547" gradientUnits="userSpaceOnUse">
<stop stop-color="#2E74FF"/>
<stop offset="1" stop-color="#2E74FF" stop-opacity="0"/>
</linearGradient>
<linearGradient id="paint2_linear_471_2671" x1="26.0336" y1="0.28418" x2="26.0336" y2="4.51547" gradientUnits="userSpaceOnUse">
<stop stop-color="#2E74FF"/>
<stop offset="1" stop-color="#2E74FF" stop-opacity="0"/>
</linearGradient>
<linearGradient id="paint3_linear_471_2671" x1="19.686" y1="5.57397" x2="19.686" y2="9.80526" gradientUnits="userSpaceOnUse">
<stop stop-color="#2E74FF"/>
<stop offset="1" stop-color="#2E74FF" stop-opacity="0"/>
</linearGradient>
<linearGradient id="paint4_linear_471_2671" x1="26.0336" y1="5.57397" x2="26.0336" y2="9.80526" gradientUnits="userSpaceOnUse">
<stop stop-color="#2E74FF"/>
<stop offset="1" stop-color="#2E74FF" stop-opacity="0"/>
</linearGradient>
<linearGradient id="paint5_linear_471_2671" x1="19.686" y1="10.8628" x2="19.686" y2="15.0941" gradientUnits="userSpaceOnUse">
<stop stop-color="#2E74FF"/>
<stop offset="1" stop-color="#2E74FF" stop-opacity="0"/>
</linearGradient>
<linearGradient id="paint6_linear_471_2671" x1="26.0336" y1="10.8628" x2="26.0336" y2="15.0941" gradientUnits="userSpaceOnUse">
<stop stop-color="#2E74FF"/>
<stop offset="1" stop-color="#2E74FF" stop-opacity="0"/>
</linearGradient>
<linearGradient id="paint7_linear_471_2671" x1="19.686" y1="16.1516" x2="19.686" y2="20.3829" gradientUnits="userSpaceOnUse">
<stop stop-color="#2E74FF"/>
<stop offset="1" stop-color="#2E74FF" stop-opacity="0"/>
</linearGradient>
<linearGradient id="paint8_linear_471_2671" x1="26.0336" y1="16.1516" x2="26.0336" y2="20.3829" gradientUnits="userSpaceOnUse">
<stop stop-color="#2E74FF"/>
<stop offset="1" stop-color="#2E74FF" stop-opacity="0"/>
</linearGradient>
</defs>
</svg>
