<svg width="44" height="44" viewBox="0 0 44 44" fill="none" xmlns="http://www.w3.org/2000/svg">
<g clip-path="url(#clip0_471_2734)">
<path d="M14.876 2.33618H16.6413C16.95 2.70032 16.7917 3.12778 16.8233 3.54733C16.8233 4.60807 17.0133 4.83764 18.0582 4.83764H25.9742C27.0191 4.83764 27.2249 4.61599 27.2091 3.54733C27.2091 3.14361 27.0825 2.70032 27.3912 2.33618H29.1564C29.3404 2.20624 29.5663 2.14977 29.7897 2.17787C31.1513 2.17787 32.5128 2.17787 33.8823 2.17787C34.1033 2.14944 34.3268 2.20603 34.5077 2.33618C35.0005 2.33914 35.4874 2.44342 35.9382 2.64255C36.389 2.84167 36.794 3.13139 37.1281 3.49368C37.4622 3.85598 37.7182 4.28312 37.8802 4.74854C38.0422 5.21397 38.1068 5.70775 38.0698 6.19919C38.0698 8.90645 38.0698 11.6058 38.0698 14.3052C38.1102 15.3074 37.9432 16.3073 37.5791 17.242C37.4713 17.6787 37.2753 18.0888 37.003 18.4469C36.7307 18.8049 36.388 19.1034 35.9959 19.3239C35.3213 19.8063 34.5429 20.1236 33.7234 20.2502C32.9038 20.3768 32.0659 20.3091 31.2773 20.0527C30.4886 19.7962 29.7712 19.3581 29.1829 18.7737C28.5945 18.1892 28.1516 17.4748 27.8899 16.6879C27.7791 16.3871 27.6999 16.0862 27.5812 15.7934C27.3279 15.1284 27.122 15.0018 26.4254 15.0018C25.8192 15.0639 25.2068 15.0265 24.6127 14.8909C24.4623 14.7089 24.5493 14.5031 24.5652 14.3052C24.6328 13.8038 24.5463 13.2938 24.3173 12.8428C24.0882 12.3918 23.7274 12.0211 23.2828 11.78C22.9091 11.5264 22.4678 11.3909 22.0162 11.3909C21.5646 11.3909 21.1234 11.5264 20.7497 11.78C20.3178 12.0231 19.9681 12.3894 19.7454 12.8321C19.5226 13.2748 19.4368 13.7739 19.499 14.2656C19.499 14.4635 19.5939 14.6693 19.499 14.8593C19.1751 14.999 18.818 15.043 18.4699 14.9859C16.9263 14.9859 16.8392 14.7247 16.2455 16.5691C15.9615 17.4621 15.4516 18.2665 14.7652 18.9043C14.1968 19.4391 13.5164 19.8405 12.7733 20.0791C12.0303 20.3177 11.2434 20.3876 10.4699 20.2838C9.69646 20.1799 8.9559 19.9048 8.30216 19.4786C7.64843 19.0523 7.09797 18.4857 6.69088 17.8199C6.56771 17.6558 6.50356 17.455 6.50882 17.2499C6.0916 16.2486 5.90233 15.167 5.9547 14.0835C5.9547 11.4475 5.9547 8.81938 5.9547 6.16752C5.91545 5.6752 5.97831 5.18008 6.13936 4.71319C6.30042 4.2463 6.55618 3.81771 6.89062 3.45429C7.22506 3.09087 7.63096 2.80045 8.08289 2.60124C8.53481 2.40202 9.02301 2.29831 9.5169 2.29661C9.69774 2.16645 9.92127 2.10986 10.1423 2.13828C11.5117 2.13828 12.8733 2.13828 14.2348 2.13828C14.4659 2.1202 14.6953 2.19098 14.876 2.33618Z" fill="url(#paint0_linear_471_2734)"/>
<path opacity="0.4" d="M7.96486 23.7413L1.48167 21.1607C1.16683 21.0892 0.886844 20.91 0.690075 20.654C0.615078 20.5294 0.57076 20.3888 0.560765 20.2437C0.55077 20.0986 0.575385 19.9532 0.632585 19.8194C0.689786 19.6857 0.777936 19.5675 0.889774 19.4745C1.00161 19.3815 1.13394 19.3164 1.27586 19.2846C2.93821 18.6196 4.60849 17.9705 6.27876 17.3135C6.45542 17.5744 6.599 17.8563 6.70622 18.1526C7.11648 19.0455 7.7936 19.7892 8.64426 20.2812C9.49492 20.7732 10.4772 20.9892 11.4558 20.8994C12.4417 20.8642 13.3931 20.5283 14.1826 19.9368C14.9722 19.3454 15.562 18.5267 15.8729 17.5905C16.0313 17.1789 16.15 16.7435 16.3241 16.3398C16.3998 16.1035 16.5505 15.8984 16.7534 15.7555C16.9563 15.6126 17.2002 15.5398 17.4482 15.5482C17.7462 15.564 18.0448 15.564 18.3427 15.5482C18.6814 15.4859 19.031 15.5283 19.3449 15.6697C19.6589 15.8112 19.9223 16.0449 20.1001 16.3398C20.3323 16.6705 20.6451 16.9364 21.0088 17.1125C21.3725 17.2885 21.7751 17.3689 22.1785 17.3459C22.582 17.3229 22.9729 17.1974 23.3142 16.9811C23.6556 16.7649 23.9361 16.4652 24.1293 16.1103C24.2234 15.9208 24.3732 15.7647 24.5585 15.6629C24.7439 15.561 24.956 15.5182 25.1663 15.5403C25.6096 15.5403 26.0608 15.5403 26.5041 15.5403C26.7854 15.5173 27.066 15.5933 27.2972 15.7552C27.5285 15.9171 27.696 16.1547 27.7707 16.4269C27.8973 16.7752 28.0081 17.1314 28.1427 17.4797C28.3909 18.2028 28.8008 18.8596 29.3411 19.4004C29.8814 19.9412 30.538 20.3516 31.2608 20.6004C31.9836 20.8493 32.7537 20.9299 33.5124 20.8364C34.2711 20.7428 34.9985 20.4774 35.6391 20.0603C36.4396 19.5442 37.0701 18.8035 37.4519 17.9309C37.5469 17.7172 37.5865 17.456 37.8477 17.3451L42.8506 19.2846C43.0277 19.3444 43.1805 19.4601 43.2862 19.6143C43.3918 19.7685 43.4445 19.9528 43.4364 20.1395C43.4427 20.345 43.3786 20.5464 43.2548 20.7105C43.131 20.8746 42.9549 20.9915 42.7556 21.0419L37.6577 23.0526C37.1274 23.2584 36.6049 23.4959 36.0745 23.7175C35.9558 23.9075 35.7421 23.9392 35.56 24.0183C31.4278 25.6886 27.2561 27.2639 23.124 28.9341C22.7763 29.0831 22.4019 29.1599 22.0237 29.1599C21.6454 29.1599 21.271 29.0831 20.9233 28.9341C16.8809 27.351 12.8385 25.7678 8.79604 24.1846C8.48042 24.1246 8.19052 23.9699 7.96486 23.7413Z" fill="url(#paint1_linear_471_2734)"/>
<path d="M36.9853 31.2939L42.7244 33.5421C42.9337 33.5893 43.1204 33.7072 43.253 33.8759C43.3856 34.0445 43.4561 34.2537 43.4527 34.4683C43.4429 34.6738 43.3666 34.8707 43.2352 35.0291C43.1039 35.1876 42.9246 35.2991 42.7244 35.3469C37.7268 37.2995 32.7318 39.2627 27.7395 41.2364C26.1563 41.8539 24.5731 42.4555 23.0453 43.0967C22.7315 43.2319 22.3935 43.3017 22.0518 43.3017C21.7102 43.3017 21.3721 43.2319 21.0584 43.0967C14.5356 40.5161 8.01019 37.9486 1.48214 35.3944C1.0151 35.2124 0.627214 34.9986 0.643046 34.4287C0.658878 33.8587 1.03093 33.6846 1.43464 33.5104C3.31073 32.7901 5.18682 32.046 7.06291 31.3177C7.33524 31.3266 7.60359 31.3856 7.85451 31.4918C12.1529 33.1938 16.4592 34.8561 20.7417 36.5818C21.1531 36.7637 21.598 36.8577 22.0479 36.8577C22.4977 36.8577 22.9426 36.7637 23.354 36.5818C25.9742 35.4894 28.6261 34.492 31.27 33.4154C32.9798 32.7426 34.6818 32.0697 36.3995 31.4048C36.5886 31.3405 36.7858 31.3032 36.9853 31.2939Z" fill="url(#paint2_linear_471_2734)"/>
<path opacity="0.7" d="M36.9864 24.1688L42.7809 26.4328C42.9715 26.4815 43.1407 26.5917 43.2623 26.7462C43.3839 26.9007 43.4512 27.0911 43.4538 27.2877C43.459 27.4939 43.3947 27.6958 43.2712 27.8609C43.1477 28.026 42.9722 28.1448 42.773 28.1981L36.5669 30.6362L36.0682 30.8657C35.989 31.0399 35.8307 31.0874 35.6724 31.1507C31.564 32.7339 27.4398 34.3171 23.3472 36.0111C22.9339 36.1914 22.4879 36.2844 22.0371 36.2844C21.5863 36.2844 21.1403 36.1914 20.727 36.0111C16.769 34.4279 12.716 32.8447 8.71054 31.2615C8.45376 31.2038 8.2197 31.0717 8.03767 30.8816L1.70489 28.3405L1.34076 28.206C1.14913 28.151 0.980595 28.0351 0.86063 27.8759C0.740665 27.7167 0.675781 27.5227 0.675781 27.3233C0.675781 27.124 0.740665 26.93 0.86063 26.7708C0.980595 26.6116 1.14913 26.4957 1.34076 26.4407C2.92395 25.8153 4.5784 25.1742 6.19326 24.5409L7.11943 24.1926C7.39176 24.2015 7.66011 24.2605 7.91103 24.3667C12.2094 26.0687 16.5157 27.731 20.7983 29.4567C21.2097 29.6386 21.6545 29.7326 22.1044 29.7326C22.5542 29.7326 22.9991 29.6386 23.4105 29.4567C26.0307 28.3643 28.6826 27.3669 31.3265 26.3299L36.4561 24.3192C36.6247 24.2439 36.8033 24.1932 36.9864 24.1688Z" fill="url(#paint3_linear_471_2734)"/>
<path d="M16.6738 3.55574C16.6738 3.15202 16.6738 2.76414 16.6738 2.35251C16.6738 2.25752 16.6738 2.17044 16.6738 2.07545C16.6738 0.721815 16.8401 0.571411 18.257 0.571411H25.9039C27.1388 0.571411 27.3287 0.761395 27.3367 2.02004C27.3367 2.13086 27.3367 2.24168 27.3367 2.35251C27.3367 2.74831 27.3367 3.1441 27.3367 3.54782C27.3127 3.76343 27.2061 3.96136 27.0393 4.10009C26.8726 4.23883 26.6585 4.30758 26.4422 4.29192C25.9672 4.3315 25.4843 4.29192 25.0014 4.29192H17.8771C17.0696 4.29984 16.8717 4.16527 16.6738 3.55574Z" fill="#2E74FF"/>
<path d="M37.8316 17.3776C37.5514 18.3258 37.0035 19.1729 36.2537 19.8174C35.5038 20.4619 34.584 20.8764 33.6045 21.011C32.9276 21.1202 32.2353 21.0842 31.5733 20.9054C30.9114 20.7266 30.2951 20.4091 29.7652 19.974C28.808 19.2355 28.1185 18.2041 27.8021 17.0372C27.709 16.7674 27.6006 16.5031 27.4775 16.2456C27.4118 16.0936 27.3001 15.966 27.1581 15.8808C27.0161 15.7956 26.851 15.7571 26.6859 15.7706C26.0526 15.7706 25.4273 15.7706 24.794 15.7706C24.6936 15.7605 24.5927 15.7837 24.5069 15.8367C24.4211 15.8896 24.355 15.9693 24.319 16.0635C24.1131 16.521 23.7794 16.9092 23.3581 17.1815C22.9369 17.4539 22.4459 17.5988 21.9442 17.5988C21.4426 17.5988 20.9516 17.4539 20.5303 17.1815C20.109 16.9092 19.7754 16.521 19.5694 16.0635C19.5332 15.97 19.4668 15.8912 19.3808 15.8396C19.2948 15.788 19.1941 15.7665 19.0945 15.7786C18.477 15.7786 17.8675 15.7786 17.258 15.7786C17.0857 15.7763 16.917 15.8277 16.7751 15.9255C16.6333 16.0234 16.5254 16.1629 16.4664 16.3248C16.3081 16.7127 16.1656 17.1164 16.031 17.5201C15.6752 18.6217 14.9636 19.5739 14.0079 20.2273C13.0523 20.8806 11.9067 21.1981 10.751 21.1298C9.75962 21.0368 8.81461 20.6657 8.02478 20.0593C7.23494 19.453 6.63237 18.6359 6.28641 17.7021C6.27432 17.5917 6.27432 17.4802 6.28641 17.3697L6.50015 17.2905C6.85924 18.0266 7.38561 18.6684 8.03715 19.1646C8.68868 19.6608 9.4473 19.9976 10.2523 20.1482C11.3949 20.352 12.5728 20.1624 13.5936 19.6103C14.6144 19.0582 15.4179 18.1762 15.8727 17.1085C16.0785 16.6335 16.2368 16.1348 16.3951 15.644C16.4415 15.4005 16.5782 15.1836 16.7779 15.0367C16.9776 14.8899 17.2255 14.824 17.4717 14.8524C18.1208 14.8524 18.7699 14.8524 19.419 14.8524C19.6803 14.8524 19.6961 15.0582 19.7911 15.2007C20.0067 15.5973 20.3253 15.9283 20.7133 16.159C21.1013 16.3897 21.5443 16.5115 21.9957 16.5115C22.4471 16.5115 22.8901 16.3897 23.2781 16.159C23.6661 15.9283 23.9847 15.5973 24.2003 15.2007C24.2953 15.0582 24.3111 14.8286 24.5723 14.8524H26.4009C27.1925 14.8524 27.4142 15.0028 27.6437 15.7627C27.9358 16.9178 28.5412 17.9697 29.3932 18.8025C29.9538 19.3294 30.6263 19.7227 31.3604 19.9532C32.0945 20.1837 32.8711 20.2453 33.6323 20.1334C34.3935 20.0215 35.1196 19.739 35.7563 19.307C36.393 18.875 36.9239 18.3048 37.3092 17.6388L37.5387 17.2668L37.8316 17.3776Z" fill="#F9E359"/>
<path d="M7.99659 30.866C9.71436 31.5309 11.4242 32.18 13.1341 32.8529C15.7859 33.8899 18.4457 34.9269 21.0975 36.0193C21.4063 36.1411 21.7363 36.1997 22.0681 36.1915C22.3999 36.1834 22.7267 36.1087 23.029 35.9718C27.0398 34.3886 31.0585 32.8054 35.0851 31.2222C35.3938 31.1034 35.7184 31.0005 36.0271 30.8897L36.9453 31.3172C35.886 31.8385 34.7939 32.2907 33.676 32.6708C30.2484 34.0403 26.7891 35.3622 23.3853 36.7475C22.9514 36.9395 22.4823 37.0387 22.0079 37.0387C21.5335 37.0387 21.0643 36.9395 20.6305 36.7475C16.1501 34.8952 11.6538 33.1537 7.18916 31.4122C7.14166 31.4122 7.10208 31.3409 7.0625 31.3093L7.99659 30.866Z" fill="#F99868"/>
<path d="M36.9864 24.1687C35.738 24.7635 34.4591 25.2919 33.155 25.7519C29.9095 27.058 26.6481 28.3008 23.4025 29.6069C22.9687 29.7989 22.4995 29.8981 22.0252 29.8981C21.5508 29.8981 21.0816 29.7989 20.6478 29.6069C16.1911 27.81 11.7027 26.0843 7.23017 24.327C7.18268 24.327 7.1431 24.2557 7.10352 24.2241L8.00594 23.7887L12.8189 25.649C15.6053 26.7334 18.3996 27.8179 21.1781 28.942C21.4777 29.062 21.7985 29.1196 22.1211 29.1114C22.4436 29.1033 22.7611 29.0295 23.0542 28.8945L35.324 24.0578C35.5773 23.9549 35.8465 23.8837 36.1156 23.7966L36.9864 24.1687Z" fill="#F9C859"/>
<path d="M14.8766 2.33668H9.52539C9.52539 0.642655 9.59663 0.571411 11.3065 0.571411H13.6417C14.5916 0.571411 14.8687 0.848471 14.8766 1.78256V2.33668Z" fill="#2E74FF"/>
<path d="M34.484 2.33668H29.1328C29.1328 0.642655 29.212 0.571411 30.9218 0.571411H33.2491C34.199 0.571411 34.484 0.848471 34.484 1.78256V2.33668Z" fill="#2E74FF"/>
<path d="M24.5805 14.8202C24.4587 15.2104 24.25 15.568 23.9702 15.8661C23.6904 16.1641 23.3467 16.395 22.965 16.5413C22.5832 16.6875 22.1733 16.7454 21.766 16.7107C21.3586 16.6759 20.9645 16.5493 20.613 16.3404C20.2616 16.1315 19.9621 15.8457 19.7369 15.5045C19.5117 15.1633 19.3666 14.7756 19.3127 14.3703C19.2588 13.9651 19.2973 13.5529 19.4255 13.1647C19.5536 12.7764 19.768 12.4223 20.0526 12.1288C20.4432 11.6974 20.9652 11.407 21.5377 11.3025C22.1102 11.198 22.7012 11.2853 23.219 11.5509C23.7233 11.8156 24.1329 12.2305 24.391 12.7383C24.6491 13.246 24.743 13.8214 24.6597 14.3848L24.5805 14.8202Z" fill="#2E74FF"/>
<path d="M9.66703 9.14425C9.36622 8.24182 9.58787 7.86186 10.5061 7.69562C10.7185 7.66789 10.9143 7.56618 11.0591 7.40836C11.2038 7.25055 11.2883 7.04674 11.2977 6.83278C11.3848 6.22325 11.7173 5.90661 12.216 5.92244C12.7147 5.93827 13.0076 6.23908 13.0788 6.83278C13.0882 7.04674 13.1727 7.25055 13.3175 7.40836C13.4623 7.56618 13.6581 7.66789 13.8704 7.69562C14.7966 7.86186 15.0182 8.24182 14.7174 9.14425C14.6383 9.50838 14.3375 9.57963 14.0446 9.61921C13.8333 9.62935 13.6326 9.71471 13.4787 9.85988C13.3248 10.005 13.2279 10.2005 13.2055 10.4108C13.1917 10.6161 13.1185 10.813 12.9948 10.9774C12.8711 11.1419 12.7023 11.2668 12.5089 11.337C12.3702 11.3881 12.2218 11.4074 12.0747 11.3936C11.9275 11.3799 11.7853 11.3333 11.6585 11.2574C11.5317 11.1815 11.4236 11.0781 11.3419 10.9549C11.2603 10.8317 11.2073 10.6917 11.1869 10.5454C11.1711 10.296 11.0623 10.0617 10.882 9.88871C10.7017 9.71574 10.463 9.61674 10.2132 9.61129C9.96783 9.56379 9.71452 9.46089 9.66703 9.14425Z" fill="#2E74FF"/>
<path d="M16.6733 3.55601C16.7862 3.75722 16.9563 3.92034 17.1621 4.02464C17.3679 4.12895 17.6001 4.16972 17.8291 4.14179C20.6155 4.14179 23.3703 4.14179 26.1804 4.14179C26.4104 4.17008 26.6435 4.1286 26.8496 4.02273C27.0557 3.91687 27.2252 3.7515 27.3362 3.5481C27.3362 3.73808 27.3362 3.92015 27.3362 4.11013C27.3468 4.23098 27.331 4.35269 27.29 4.46688C27.2491 4.58106 27.1838 4.685 27.0988 4.77153C27.0138 4.85806 26.911 4.92512 26.7975 4.9681C26.6841 5.01108 26.5627 5.02894 26.4416 5.02047H17.552C17.431 5.02894 17.3096 5.01108 17.1961 4.9681C17.0827 4.92512 16.9799 4.85806 16.8949 4.77153C16.8099 4.685 16.7446 4.58106 16.7036 4.46688C16.6626 4.35269 16.6469 4.23098 16.6575 4.11013C16.6496 3.92015 16.6654 3.73808 16.6733 3.55601Z" fill="#F9E359"/>
<path d="M9.6676 9.14478C9.90529 9.34989 10.2018 9.47457 10.5146 9.501C10.7203 9.51406 10.9141 9.60166 11.0598 9.74738C11.2055 9.89309 11.2931 10.0869 11.3062 10.2926C11.4091 10.9655 11.7099 11.2742 12.2245 11.2583C12.739 11.2425 13.0161 10.9496 13.0952 10.2926C13.1066 10.0863 13.1937 9.89155 13.3397 9.74549C13.4858 9.59943 13.6806 9.51237 13.8868 9.501C14.2024 9.47621 14.5019 9.35143 14.7417 9.14478C14.8205 9.26439 14.8654 9.40314 14.8715 9.54624C14.8776 9.68933 14.8448 9.83141 14.7766 9.95733C14.7084 10.0833 14.6072 10.1883 14.484 10.2613C14.3607 10.3343 14.22 10.3724 14.0768 10.3718C13.2852 10.4826 13.214 10.5934 13.0952 11.3771C13.077 11.6033 12.9704 11.8132 12.7985 11.9613C12.6267 12.1095 12.4034 12.184 12.177 12.1687C11.9597 12.1731 11.7492 12.0931 11.5897 11.9455C11.4302 11.7978 11.3343 11.5941 11.322 11.3771C11.1954 10.5855 11.0925 10.4826 10.3325 10.3718C10.1893 10.3724 10.0486 10.3343 9.92535 10.2613C9.80211 10.1883 9.70098 10.0833 9.63274 9.95733C9.5645 9.83141 9.5317 9.68933 9.53784 9.54624C9.54398 9.40314 9.58882 9.26439 9.6676 9.14478Z" fill="#F9E359"/>
<path d="M31.0567 7.35611C30.9549 7.1388 30.9112 6.89875 30.9301 6.6595C30.9706 6.43863 31.092 6.2408 31.2706 6.10467C31.4492 5.96853 31.6721 5.90387 31.8958 5.92331C32.0111 5.93321 32.1232 5.96597 32.2257 6.01969C32.3281 6.0734 32.4188 6.147 32.4925 6.23617C32.5662 6.32534 32.6214 6.42831 32.6549 6.53905C32.6883 6.64979 32.6994 6.76609 32.6874 6.88115C32.6601 7.04307 32.6177 7.20208 32.5607 7.35611C32.5087 7.51448 32.408 7.65238 32.2729 7.75014C32.1379 7.8479 31.9754 7.90053 31.8087 7.90053C31.642 7.90053 31.4796 7.8479 31.3445 7.75014C31.2095 7.65238 31.1088 7.51448 31.0567 7.35611Z" fill="#2E74FF"/>
<path d="M29.2752 9.1439C29.174 8.92355 29.1304 8.68115 29.1485 8.43937C29.1889 8.21997 29.3092 8.02331 29.4861 7.88736C29.663 7.75141 29.8839 7.6858 30.1063 7.70319C30.3383 7.72524 30.5521 7.83854 30.7005 8.01816C30.849 8.19779 30.92 8.42904 30.8979 8.66102C30.8669 8.82471 30.8246 8.98605 30.7713 9.1439C30.7174 9.29944 30.6165 9.43433 30.4824 9.52981C30.3483 9.62528 30.1878 9.67659 30.0232 9.67659C29.8586 9.67659 29.6981 9.62528 29.5641 9.52981C29.43 9.43433 29.329 9.29944 29.2752 9.1439Z" fill="#2E74FF"/>
<path d="M32.8459 9.14398C32.7385 8.92551 32.692 8.68212 32.7113 8.43945C32.7535 8.2194 32.8753 8.02264 33.0535 7.88681C33.2317 7.75098 33.4537 7.68563 33.677 7.70327C33.9082 7.72731 34.1207 7.84116 34.2687 8.0203C34.4168 8.19945 34.4886 8.42956 34.4686 8.6611C34.4386 8.82582 34.3935 8.98744 34.3341 9.14398C34.2786 9.29679 34.1774 9.42883 34.0443 9.52214C33.9112 9.61545 33.7525 9.6655 33.59 9.6655C33.4274 9.6655 33.2688 9.61545 33.1356 9.52214C33.0025 9.42883 32.9013 9.29679 32.8459 9.14398Z" fill="#2E74FF"/>
<path d="M31.0562 10.9253C30.9557 10.7075 30.9121 10.4679 30.9295 10.2287C30.9666 10.0061 31.0871 9.80608 31.2666 9.66929C31.446 9.53251 31.6708 9.46929 31.8953 9.4925C32.0102 9.50139 32.1222 9.53322 32.2246 9.5861C32.327 9.63898 32.4178 9.71185 32.4915 9.80039C32.5653 9.88894 32.6206 9.99137 32.6542 10.1016C32.6877 10.2119 32.6988 10.3278 32.6869 10.4424C32.6606 10.6071 32.6181 10.7689 32.5602 10.9253C32.5082 11.0837 32.4074 11.2216 32.2724 11.3193C32.1373 11.4171 31.9749 11.4697 31.8082 11.4697C31.6415 11.4697 31.479 11.4171 31.344 11.3193C31.209 11.2216 31.1082 11.0837 31.0562 10.9253Z" fill="#2E74FF"/>
<path d="M18.6833 9.45347C18.5171 9.29515 18.3667 9.12892 18.4775 8.87561C18.5883 8.6223 18.8258 8.58272 19.087 8.59063H20.4644C20.7256 8.59063 20.9552 8.59063 21.0739 8.87561C21.1927 9.16058 21.0264 9.29515 20.8681 9.46139C20.5251 9.61838 20.1521 9.69898 19.7748 9.69761C19.3976 9.69625 19.0252 9.61295 18.6833 9.45347Z" fill="#2E74FF"/>
<path d="M23.1403 9.45347C22.9741 9.29515 22.8237 9.12892 22.9345 8.87561C23.0454 8.6223 23.2828 8.58272 23.5441 8.59063H24.9214C25.1827 8.59063 25.4122 8.59063 25.531 8.87561C25.6497 9.16058 25.4835 9.29515 25.3252 9.46139C24.9821 9.61838 24.6091 9.69898 24.2319 9.69761C23.8546 9.69625 23.4822 9.61295 23.1403 9.45347Z" fill="#2E74FF"/>
<path d="M18.683 9.45361H20.8678C20.9945 9.66734 21.224 9.84941 21.042 10.1423C20.8599 10.4352 20.6462 10.3719 20.4087 10.3719H19.1975C18.9363 10.3719 18.6751 10.3719 18.5089 10.1344C18.3426 9.89691 18.5643 9.66734 18.683 9.45361Z" fill="#F9E359"/>
<path d="M23.14 9.45361H25.3249C25.4515 9.66734 25.6811 9.84941 25.499 10.1423C25.3169 10.4352 25.1032 10.3719 24.8657 10.3719H23.6546C23.3934 10.3719 23.1321 10.3719 22.9659 10.1344C22.7997 9.89691 23.0213 9.66734 23.14 9.45361Z" fill="#F9E359"/>
<path d="M31.0565 7.35547C31.6977 7.83043 31.9194 7.83043 32.5605 7.35547C32.6182 7.43289 32.6596 7.52109 32.6825 7.61485C32.7053 7.7086 32.7091 7.806 32.6936 7.90124C32.6781 7.99649 32.6436 8.08766 32.5922 8.16932C32.5408 8.25098 32.4735 8.32148 32.3943 8.37663C32.234 8.52237 32.0252 8.60312 31.8085 8.60312C31.5919 8.60312 31.383 8.52237 31.2227 8.37663C31.1436 8.32148 31.0763 8.25098 31.0248 8.16932C30.9734 8.08766 30.9389 7.99649 30.9234 7.90124C30.9079 7.806 30.9117 7.7086 30.9346 7.61485C30.9574 7.52109 30.9989 7.43289 31.0565 7.35547Z" fill="#F9E359"/>
<path d="M29.2744 9.14478C29.9077 9.61182 30.1373 9.61182 30.7785 9.14478C31.0714 9.54057 30.8972 9.87305 30.6122 10.158C30.4537 10.3072 30.2442 10.3902 30.0264 10.3902C29.8087 10.3902 29.5992 10.3072 29.4407 10.158C29.1557 9.87305 28.9815 9.54057 29.2744 9.14478Z" fill="#F9E359"/>
<path d="M32.8456 9.14478C33.4788 9.61182 33.7084 9.61182 34.3417 9.14478C34.6425 9.54057 34.4683 9.87305 34.1754 10.158C34.0241 10.3076 33.822 10.3947 33.6093 10.4021C33.3966 10.4094 33.1889 10.3364 33.0276 10.1976C32.7189 9.87305 32.5448 9.54057 32.8456 9.14478Z" fill="#F9E359"/>
<path d="M31.0565 10.9263C31.6977 11.4012 31.9194 11.4012 32.5605 10.9263C32.6182 11.0037 32.6596 11.0919 32.6825 11.1857C32.7053 11.2794 32.7091 11.3768 32.6936 11.472C32.6781 11.5673 32.6436 11.6585 32.5922 11.7401C32.5408 11.8218 32.4735 11.8923 32.3943 11.9474C32.234 12.0932 32.0252 12.1739 31.8085 12.1739C31.5919 12.1739 31.383 12.0932 31.2227 11.9474C31.1436 11.8923 31.0763 11.8218 31.0248 11.7401C30.9734 11.6585 30.9389 11.5673 30.9234 11.472C30.9079 11.3768 30.9117 11.2794 30.9346 11.1857C30.9574 11.0919 30.9989 11.0037 31.0565 10.9263Z" fill="#F9E359"/>
</g>
<defs>
<linearGradient id="paint0_linear_471_2734" x1="22.0004" y1="2.51034" x2="22.0004" y2="19.5455" gradientUnits="userSpaceOnUse">
<stop stop-color="#2E74FF"/>
<stop offset="1" stop-color="#2E74FF" stop-opacity="0"/>
</linearGradient>
<linearGradient id="paint1_linear_471_2734" x1="21.9999" y1="16.1182" x2="21.9999" y2="28.4434" gradientUnits="userSpaceOnUse">
<stop stop-color="#2E74FF"/>
<stop offset="1" stop-color="#2E74FF" stop-opacity="0"/>
</linearGradient>
<linearGradient id="paint2_linear_471_2734" x1="22.0083" y1="34.3574" x2="22.0083" y2="43.8724" gradientUnits="userSpaceOnUse">
<stop stop-color="#2E74FF"/>
<stop offset="1" stop-color="#2E74FF" stop-opacity="0"/>
</linearGradient>
<linearGradient id="paint3_linear_471_2734" x1="22.0094" y1="27.3748" x2="22.0094" y2="36.399" gradientUnits="userSpaceOnUse">
<stop stop-color="#2E74FF"/>
<stop offset="1" stop-color="#2E74FF" stop-opacity="0"/>
</linearGradient>
<clipPath id="clip0_471_2734">
<rect width="42.8571" height="42.7305" fill="white" transform="translate(0.572266 0.571533)"/>
</clipPath>
</defs>
</svg>
