<svg width="32" height="33" viewBox="0 0 32 33" fill="none" xmlns="http://www.w3.org/2000/svg">
<path d="M27.3595 12.2419C28.0499 12.2419 28.6095 11.6822 28.6095 10.9919C28.6095 10.3015 28.0499 9.74188 27.3595 9.74188V12.2419ZM8.80078 9.74188C8.11043 9.74188 7.55078 10.3015 7.55078 10.9919C7.55078 11.6822 8.11043 12.2419 8.80078 12.2419V9.74188ZM27.3595 9.74188H8.80078V12.2419H27.3595V9.74188Z" fill="#2F74FF"/>
<path d="M18.0811 18.0414C18.7715 18.0414 19.3311 17.4818 19.3311 16.7914C19.3311 16.1011 18.7715 15.5414 18.0811 15.5414L18.0811 18.0414ZM4.16211 15.5414C3.47175 15.5414 2.91211 16.1011 2.91211 16.7914C2.91211 17.4818 3.47175 18.0414 4.16211 18.0414L4.16211 15.5414ZM18.0811 15.5414L4.16211 15.5414L4.16211 18.0414L18.0811 18.0414L18.0811 15.5414Z" fill="#2F74FF"/>
<path d="M27.3604 18.0414C28.0507 18.0414 28.6104 17.4818 28.6104 16.7914C28.6104 16.1011 28.0507 15.5414 27.3604 15.5414V18.0414ZM22.7207 15.5414C22.0303 15.5414 21.4707 16.1011 21.4707 16.7914C21.4707 17.4818 22.0303 18.0414 22.7207 18.0414V15.5414ZM27.3604 15.5414H22.7207V18.0414H27.3604V15.5414Z" fill="#FDDE17"/>
<path d="M27.3595 23.841C28.0499 23.841 28.6095 23.2814 28.6095 22.591C28.6095 21.9006 28.0499 21.341 27.3595 21.341V23.841ZM8.80078 21.341C8.11043 21.341 7.55078 21.9006 7.55078 22.591C7.55078 23.2814 8.11043 23.841 8.80078 23.841V21.341ZM27.3595 21.341H8.80078V23.841H27.3595V21.341Z" fill="#2F74FF"/>
</svg>
