<svg width="71" height="59" viewBox="0 0 71 59" fill="none" xmlns="http://www.w3.org/2000/svg">
<path d="M-41.9128 33.7875C-37.2342 28.6307 -33.411 22.8353 -27.2638 19.3602C-24.5484 17.8275 -21.5289 17.0772 -18.4528 16.8802C-16.4433 16.7525 -14.542 17.0931 -12.6355 17.4603C-12.6097 17.471 -12.584 17.471 -12.5582 17.4763C-11.4246 17.6892 -10.291 17.9127 -9.13168 18.0457C-8.7916 18.083 -8.32787 17.588 -8.84828 17.5295C-9.86335 17.4124 -10.8527 17.2315 -11.842 17.0399C-8.49274 11.766 -0.449463 15.3157 4.36311 15.8691C4.72895 15.9117 5.15662 15.3689 4.6362 15.3103C-0.598892 14.709 -8.87405 11.154 -12.5427 16.9122C-13.9494 16.6461 -15.3612 16.396 -16.8349 16.3534C-19.4267 16.2789 -21.9978 16.7366 -24.4505 17.5668C-29.799 19.3815 -34.0705 23.5271 -37.698 27.8111C-47.7147 39.6573 -58.9114 50.5403 -74.6012 53.0841C-74.998 53.148 -75.2144 53.6802 -74.6888 53.595C-61.6732 51.4876 -50.7599 43.5369 -41.9128 33.7875Z" fill="white"/>
<path d="M0.937048 13.889C0.736094 14.2935 1.5193 14.2935 1.67388 13.9795C3.53914 10.2756 8.05286 8.6471 11.7061 7.59339C16.6732 6.15652 22.1196 6.00219 26.5612 9.03558C26.7776 9.18459 27.2053 9.06752 27.2516 8.77482C27.973 3.95863 34.9291 2.43129 38.7369 1.63835C40.8958 1.186 43.1115 0.925235 45.3168 1.12746C47.4294 1.31904 49.3616 2.42597 50.7786 4.02249C51.0826 4.36309 53.0252 7.63064 50.9796 7.00268C49.0576 6.41196 46.9244 0.494173 44.5954 4.36309C43.9926 5.36358 44.0493 6.07669 44.987 6.77916C45.6208 7.2528 46.4195 7.50824 47.0842 7.92866C47.7643 8.35972 48.1456 10.3394 46.8368 9.99882C46.3628 9.87642 45.8939 9.42939 45.5178 9.12073C44.6264 8.38101 44.3327 7.47631 43.1166 7.5721C42.0294 7.65725 41.6121 8.39697 41.7254 9.43472C41.7976 10.1159 42.3025 10.8184 42.6787 11.3505C42.3386 11.4144 41.9985 11.4729 41.6584 11.5368C41.4987 11.2228 41.3853 10.8982 41.3184 10.5523C41.2153 10.1372 41.1586 9.70613 41.0762 9.28571C40.8392 8.05638 40.0508 7.10379 38.742 7.09847C37.6548 7.09314 36.5728 7.38052 36.0524 8.43955C35.805 8.94512 36.2739 9.42939 36.5728 9.73273C36.3924 9.54647 34.048 9.3336 33.476 9.31232C32.4713 9.27506 31.7035 10.1319 31.4819 11.0578C31.3583 11.5634 31.9045 12.3191 32.2548 12.5639C32.7907 12.9417 32.7289 12.9045 33.3318 13.1706C30.7297 12.0158 30.4617 13.9369 29.5497 11.4517C29.4157 11.0898 28.648 11.3133 28.7768 11.6645C29.7816 14.4106 32.2291 15.2301 34.388 13.2078C34.5941 13.0163 34.5375 12.7927 34.2644 12.7342C32.1106 12.2872 31.9405 11.3505 33.7491 9.91367C34.3674 9.93496 35.0373 10.1851 35.6401 10.3181C36.3254 10.4671 36.9128 10.4139 37.5672 10.1851C37.727 10.1265 38.0722 9.84981 37.7939 9.67952C36.109 8.65774 39.1388 5.67224 40.2054 9.10477C40.329 9.5039 40.3806 9.94028 40.4579 10.3501C40.5764 11.0046 40.7155 11.6113 41.138 12.1222C41.7872 12.9151 43.0084 12.1275 43.6113 11.739C43.7143 11.6752 43.8019 11.4889 43.7092 11.3825C43.1475 10.7332 42.7353 10.0627 42.4932 9.22185C41.6894 6.48114 44.209 8.91318 44.2348 8.93979C44.951 9.66355 45.7342 10.3713 46.7235 10.6268C48.1817 11.0046 48.8979 9.11541 48.2538 8.00849C48.1765 7.88076 48.0735 7.76901 47.9601 7.65725C50.0573 7.68918 52.1132 7.9393 53.6023 9.68484C54.2206 10.4086 54.4009 11.3878 54.303 12.3138C54.2154 13.128 53.4735 14.5915 52.7572 13.3835C52.5614 13.0535 51.8298 13.3728 52.0565 13.7453C52.4738 14.4478 53.2055 14.8203 53.9423 14.336C54.8647 13.7294 55.1635 12.5107 55.1172 11.4463C55.0347 9.38682 53.7002 8.27457 52.041 7.68386C52.3038 7.57742 52.5408 7.38052 52.7109 7.05589C53.8238 4.96977 49.7893 2.05877 48.5939 1.42016C45.9403 -0.0113935 42.6529 0.398381 39.8138 0.861374C35.6659 1.53724 27.9112 3.18166 26.5921 8.22136C22.1763 5.49662 17.0751 5.68288 12.1647 6.8856C8.08893 7.88076 2.9878 9.81256 0.937048 13.889ZM47.2903 7.02396C47.213 7.02396 47.1512 7.04525 47.0945 7.07186C46.672 6.85367 46.2288 6.67805 45.8939 6.50243C44.4254 5.72545 45.2601 2.88364 47.0275 3.9746C47.8159 4.45888 48.3929 5.54984 48.934 6.28956C49.1504 6.58758 49.4956 6.90688 49.8821 7.17829C48.97 7.06121 48.058 7.02928 47.2903 7.02396Z" fill="white"/>
<path d="M17.6564 13.336C18.6921 10.7656 15.9303 9.6161 13.8744 9.50434C13.591 9.48838 13.0499 9.91412 13.5704 9.94073C15.2553 10.0312 17.3266 10.9093 17.069 12.7613C16.3064 12.1652 15.5438 11.8193 14.4927 11.7129C14.3999 11.7022 13.6476 11.8832 13.895 12.0748C14.3896 12.4579 14.6215 12.74 14.874 13.3573C15.0698 13.8522 14.9307 16.6515 13.2664 14.8793C12.7356 14.3152 12.8593 13.32 12.3956 12.7134C11.7257 11.8353 10.7416 12.2929 9.93259 12.724C9.8656 12.7613 9.70587 12.8996 9.80892 12.9848C10.3757 13.3094 10.6127 13.8469 10.5097 14.5973C10.4272 15.3423 9.28335 16.5397 9.01026 15.2838C8.90721 14.8155 8.46408 14.113 8.04157 13.9161C7.07287 13.4637 6.38241 13.7351 5.59921 14.427C5.26429 14.7197 6.03203 14.7037 6.21238 14.544C7.77878 13.1657 8.35073 15.7414 8.35588 16.6089C8.35588 16.7739 8.71656 16.71 8.7887 16.694C9.84499 16.4333 11.602 15.3796 11.3238 13.9746C11.2053 13.3786 11.2723 13.5808 10.9528 13.0486C11.1332 12.9635 11.3135 12.8837 11.4938 12.7985C11.6793 13.0273 11.8082 13.2775 11.8906 13.5595C12.1379 14.2301 12.241 14.874 12.7356 15.4062C14.3742 17.1517 16.4764 14.3737 15.2192 12.4366C15.8272 12.6868 16.3785 13.0699 16.8938 13.5382C17.1051 13.7139 17.5688 13.5595 17.6564 13.336Z" fill="white"/>
<path d="M0.203969 19.7221C0.379159 19.5411 0.559502 19.3549 0.734692 19.1739C0.997477 19.3868 1.27057 19.5305 1.61064 19.6901C1.78583 19.7753 2.13106 19.6635 2.2032 19.472C2.76484 17.9659 1.97133 17.0346 0.945951 15.9649C0.714083 15.7201 -0.017591 16.0394 0.240041 16.3055C0.920191 17.0186 1.73431 17.7584 1.60034 18.8546C1.44061 18.7429 1.28088 18.6364 1.1263 18.5247C0.951108 18.3278 0.616179 18.4236 0.451294 18.5885C0.270951 18.7748 0.0906148 18.9611 -0.0897279 19.1473C-0.548314 18.7908 -1.06873 18.5885 -1.5943 18.2905C-1.76949 18.1894 -2.41873 18.2905 -2.2796 18.6205C-1.70251 19.9882 -2.18171 21.1802 -3.50079 21.6219C-3.84601 19.5358 -5.02082 18.2001 -7.17978 18.2373C-7.60745 18.2426 -7.78264 18.8014 -7.25706 18.7908C-5.21146 18.7588 -4.45918 20.3075 -4.23246 22.1009C-4.2067 22.3031 -3.90269 22.2765 -3.77903 22.2552C-2.14048 21.9412 -1.02751 20.7758 -1.27999 19.2005C-0.99144 19.3549 -0.713199 19.5305 -0.476177 19.7859C-0.290681 19.9828 0.0390844 19.8977 0.203969 19.7221Z" fill="white"/>
<path d="M13.4209 18.3478C13.6424 18.4595 14.0134 18.3371 14.1113 18.103C14.338 17.5548 14.2041 17.3792 13.9052 16.8896C13.7609 16.6555 13.0138 16.9162 13.189 17.2089C13.3127 17.3632 13.3796 17.5282 13.4003 17.7145C12.514 17.4697 11.6381 17.6347 10.7312 17.9753C10.5663 18.0391 10.3602 18.3212 10.6539 18.3744C11.3083 18.4861 11.2001 19.3536 10.9631 20.0933C10.2984 18.6351 9.01536 17.8582 7.45411 18.9438C7.02128 19.2471 7.68082 19.3749 7.93846 19.1993C9.42242 18.1722 10.2262 20.0773 10.5045 21.1949C10.5818 21.4929 11.1434 21.2534 11.2516 21.0991C11.669 20.4818 12.2667 18.7948 11.5968 18.1615C12.21 18.0125 12.8129 18.0391 13.4209 18.3478Z" fill="white"/>
<path d="M53.2858 50.5866C47.6539 49.5422 42.1152 49.3299 37.103 46.0875C32.2717 42.96 30.1385 37.3361 31.1585 31.6204C32.1785 25.8932 36.4778 20.3497 42.2249 19.7873C42.0165 20.5678 42.1152 21.222 43.2559 21.572C43.4368 21.6237 43.9907 21.5433 44.0017 21.2793C44.0455 20.1144 47.1823 19.0528 45.2904 21.0498C44.731 21.6409 44.4788 22.0024 44.3197 22.8517C44.2704 23.1272 44.9558 22.8747 45.0436 22.8116C46.1733 22.5992 46.5078 22.9895 46.0471 23.988C45.6578 25.4169 44.04 24.9291 43.1626 24.8775C42.8391 24.8603 42.4826 24.9349 42.1755 25.0554C41.3749 25.371 39.9546 27.0467 40.843 27.9591C43.1297 30.3005 45.4494 26.9434 47.1603 25.2964C46.9355 26.6909 47.621 28.0854 49.1729 26.9549C49.321 26.8458 49.469 26.6048 49.4636 26.4384C49.4361 25.1472 49.6007 24.3151 50.3465 23.2534C51.3719 23.7699 51.4597 24.3266 50.6152 24.9234C50.3903 25.13 50.2039 25.3653 50.0558 25.6292C49.7542 26.0826 50.2039 26.7827 50.4068 27.1557C51.1636 28.5502 53.1597 26.7827 53.5819 26.0596C54.3606 24.734 54.8322 23.328 53.9055 21.9622C53.0171 20.6481 51.0265 20.0628 51.5419 18.542C52.2713 19.9193 54.1687 19.3225 54.7555 17.773C55.271 16.4244 53.4942 15.5923 52.6442 15.1906C51.3994 14.6053 50.7413 14.2151 50.33 12.7747C49.7707 10.8063 52.6332 9.89386 52.8032 12.0286C52.8197 12.2238 53.6477 12.0573 53.6258 11.7991C53.4284 9.34869 51.18 9.37738 49.8968 11.0014C49.0632 12.0573 49.5239 13.6182 50.2423 14.5594C50.6097 15.0357 51.4706 15.3169 51.9752 15.5464C52.7539 15.9022 53.3516 16.1949 53.8287 16.9524C54.421 17.8935 52.3371 19.0011 52.1177 17.532C52.0794 17.291 51.4158 17.5664 51.3335 17.6697C49.7378 19.6381 51.2513 20.4932 52.7484 21.8417C54.251 23.1961 53.5052 25.2046 52.4742 26.5933C51.4268 28.0051 50.5219 25.8071 51.3665 24.8832C51.7448 24.47 51.9752 24.1716 52.0903 23.5978C52.37 22.2549 50.681 22.4673 50.0942 22.8001C49.6281 23.0583 48.8274 24.12 48.6574 24.6365C48.46 25.239 48.4984 24.9923 48.5423 25.6579C48.8165 26.3351 48.5697 26.4614 47.7965 26.0367C47.8074 25.4915 47.9226 24.9808 48.1474 24.4987C48.2407 24.2634 47.5607 24.4586 47.5003 24.493C46.7984 24.889 46.3981 25.2505 45.8717 25.9104C45.6029 26.2949 45.3287 26.6737 45.0381 27.041C41.8191 31.2646 39.7955 24.7971 43.8262 25.394C44.5117 25.4973 45.4878 25.5145 46.0362 24.9463C47.6978 23.219 46.8313 21.704 45.241 22.2951C45.5645 21.3769 46.2994 20.7916 47.1165 20.2521C47.1713 20.212 47.2481 20.1374 47.1823 20.0685C45.7181 18.5363 43.7275 18.9035 43.2723 20.8317C42.34 19.707 44.5281 17.0787 43.3875 15.5751C42.4771 14.3758 41.4297 13.9224 40.0533 14.3643C38.8962 14.7373 38.5178 15.9711 38.951 17.0385C39.0388 17.2508 39.3897 17.6984 39.5214 17.8763C40.5304 19.2364 38.633 19.1274 38.0956 18.1231C37.5417 17.0901 37.6678 15.6325 38.1394 14.6168C38.1504 14.5823 38.1449 14.5536 38.1175 14.5364C36.9714 13.5092 35.4414 13.0272 34.7943 14.8348C34.4598 15.7645 34.5311 16.918 34.5256 17.8878C34.5146 19.1446 33.0998 16.7802 32.9243 16.4589C32.6172 15.9022 31.9701 15.4202 31.5314 14.9554C30.7198 14.106 28.943 14.5709 28.0053 14.7775C25.8556 15.248 24.0405 13.4289 21.9127 14.0027C20.6185 14.3528 19.6095 14.9094 18.7047 15.9711C18.2386 16.5163 18.1837 17.1188 18.1727 17.796C18.2221 18.0887 18.3208 18.3584 18.4689 18.6051C17.3337 17.182 17.6408 19.5692 16.9882 17.7386C16.906 17.5148 16.2918 17.7386 16.204 17.8763C14.1147 21.0555 17.3502 21.1875 19.3408 22.6738C20.7392 23.7183 20.2347 25.4169 18.5402 24.5274C17.6573 24.0626 17.6682 23.0296 17.2076 22.2434C16.9444 21.7901 16.1382 21.9508 15.7708 22.1287C14.6357 22.6738 14.7563 23.328 15.3047 24.5045C15.4473 24.7455 15.546 25.0037 15.6008 25.2849C16.2753 27.787 14.8605 25.0439 13.676 26.2318C14.1586 25.7498 13.9776 24.9177 13.8241 24.3667C13.1989 22.1172 10.5941 23.2879 10.1225 24.8258C10.0402 25.1644 9.95795 25.503 9.8702 25.8416C9.70569 26.8286 8.97634 27.0065 7.68764 26.381C7.4299 25.6981 7.6328 24.7283 7.54506 23.9995C7.44087 23.1502 6.35506 22.5361 5.59829 22.6681C4.79765 22.8058 4.42475 23.1329 4.05733 23.8904C3.77217 24.4758 4.31507 25.6637 3.7283 25.4571C2.90024 25.1644 2.12154 24.602 1.37574 24.1487C0.0596123 23.3453 -1.74457 22.0082 -3.25263 23.0469C-3.96004 23.5289 -3.73521 25.0152 -3.55424 25.6637C-3.39521 26.2203 -2.79747 26.7311 -2.44102 27.1328C-1.47587 28.0911 -2.35328 28.3264 -5.07327 27.8329C-6.04391 27.2361 -5.70391 25.7268 -5.49004 24.9119C-5.41875 24.6365 -6.13714 24.9062 -6.21391 24.9521C-6.98713 25.4341 -7.49713 25.9621 -7.49165 26.9893C-7.48616 27.5919 -7.44777 28.1887 -7.42035 28.7855C-7.34358 30.3005 -8.91745 31.1785 -9.59744 29.6693C-10.3103 28.0911 -9.86615 27.0983 -11.9829 27.2418C-12.6245 27.2877 -13.2442 27.6263 -13.809 27.919C-14.5932 28.3264 -17.0774 28.028 -15.0539 26.49C-14.8839 26.3638 -14.4561 26.1285 -14.3629 25.8932C-14.0668 25.1357 -15.2074 23.3166 -15.5584 22.7083C-16.0464 21.8647 -17.1706 20.9982 -18.1413 20.9236C-21.8758 20.6194 -27.3267 22.582 -29.4983 25.9564C-33.4138 32.0393 -37.0825 40.5325 -36.3312 48.0157C-36.3092 48.2166 -35.4867 48.0444 -35.5086 47.7862C-36.2325 40.5784 -32.7557 32.9403 -29.3393 26.8803C-27.3651 23.374 -24.3161 22.5361 -20.7461 21.5433C-17.9384 20.7629 -16.6661 22.209 -15.5529 24.5045C-15.3061 25.0152 -15.1252 26.0539 -15.6845 26.4384C-15.8381 26.5474 -16.4193 26.9491 -16.4468 27.1902C-16.5784 28.4068 -15.9039 29.0437 -14.829 28.8027C-14.2916 28.6822 -13.7926 28.3494 -13.3155 28.0797C-10.5626 26.536 -10.8752 28.8773 -10.25 30.2603C-9.86615 31.1097 -8.89551 31.2646 -8.14422 30.8629C-6.04939 29.7439 -7.11326 27.6033 -6.46616 26.0539C-6.60874 28.1428 -5.03489 28.7798 -2.8907 28.7052C-2.41909 28.688 -0.516193 28.4125 -1.17974 27.4484C-1.89812 26.4154 -2.76457 25.8014 -2.88522 24.4413C-3.09908 21.9795 -0.27491 23.9249 0.613472 24.4586C1.75411 25.1472 3.14153 26.2949 4.5454 25.9334C4.63314 25.9104 4.94571 25.8129 4.91829 25.6637C4.72087 25.0439 4.70443 24.4069 4.88539 23.7584C5.89442 23.1272 6.5141 23.2879 6.74442 24.2405C6.93635 24.8086 6.81022 25.5833 6.82667 26.1802C6.85957 27.2418 7.56699 27.6033 8.49376 27.5517C9.25602 27.5115 9.78795 27.259 10.2925 26.6794C10.616 26.3121 10.7147 25.6637 10.8354 25.2046C10.9067 24.8717 10.9944 24.5504 11.1041 24.229C11.7457 24.3553 12.3873 24.4815 13.0289 24.6078C13.3799 25.3825 13.1879 26.1056 12.4531 26.7885C12.4257 26.8114 12.4147 26.8458 12.4147 26.8803C12.9521 28.0854 16.045 29.4741 16.5934 27.3451C16.8895 26.2031 16.3905 24.8086 15.9134 23.7757C15.4363 22.7427 16.5769 22.6451 16.8895 23.747C17.0979 24.4815 17.6463 24.7684 18.266 25.0956C18.7156 25.3308 21.2766 25.899 21.1395 24.5446C20.816 21.3884 15.6337 21.4802 16.5221 18.7486C17.3392 20.298 18.6115 20.6997 20.1305 19.4774C20.1798 19.4372 20.2676 19.3626 20.1963 19.2938C16.906 16.3613 21.5563 13.7043 24.6217 14.8463C25.384 15.1275 26.2614 15.4546 27.0895 15.3054C29.4859 14.8693 31.1475 14.9381 32.354 17.1303C32.6611 17.687 32.8914 18.5076 33.5549 18.7199C33.9991 18.8576 35.1891 18.651 35.3427 18.1231C35.4633 17.6984 35.3701 17.1016 35.3756 16.6655C35.3865 16.1375 35.4414 15.6096 35.5291 15.0873C35.732 13.8707 37.5691 14.2839 37.1469 15.1906C36.0994 17.4631 38.5014 21.4458 40.7059 18.9896C40.9965 18.6683 40.7662 18.2379 40.5578 17.9567C40.1849 17.4517 39.8284 16.9754 39.5926 16.39C40.3275 15.9309 41.0623 15.4776 41.8026 15.0185C42.2852 15.3685 42.6362 15.8391 42.861 16.4244C43.2613 17.2508 42.8007 18.2436 42.4552 19.156C32.694 19.9193 27.3472 32.7624 31.6685 41.3589C34.2349 46.4606 39.8449 48.9913 44.9833 50.0357C50.8236 51.2236 58.9122 50.6957 63.047 56.0211C63.2938 56.3368 64.0725 55.9867 63.7983 55.6367C61.2483 52.3082 57.0642 51.2868 53.2858 50.5866Z" fill="white"/>
<path d="M61.904 51.8688C61.6309 51.7837 60.992 52.1988 61.4402 52.3371C63.9702 53.1248 67.1906 55.0087 67.3194 58.074C67.3297 58.3667 68.1026 58.1964 68.0923 57.8611C67.9583 54.6574 64.537 52.6884 61.904 51.8688Z" fill="white"/>
<path d="M69.8972 58.087C66.4962 60.6589 63.1459 56.9941 59.9539 55.9928C58.1045 55.4168 56.0145 56.1236 54.2159 56.5294C50.5045 57.3605 50.1689 51.5622 46.0396 52.0399C45.2162 52.1381 44.9566 52.1773 44.1649 52.4064C41.3022 53.231 41.2199 52.8318 39.9596 51.1564C38.5916 49.3305 37.2299 49.1276 35.1019 49.3698C29.7819 49.9784 25.3612 55.8488 19.9209 54.2519C18.7303 53.9051 17.6599 53.3357 16.6276 52.7598C16.9633 52.6747 17.2989 52.3933 16.9886 52.2232C12.0866 49.5007 8.55894 44.1473 8.14727 38.3816C8.12193 37.9824 7.1656 38.2115 7.19727 38.6434C7.55827 43.7677 10.3829 48.5844 14.4109 51.5687C12.7643 50.7768 11.0543 50.3253 8.9326 51.0582C8.06494 51.3593 7.22894 51.7781 6.37394 52.1184C2.37128 53.7087 2.89061 51.019 4.06228 49.2782C4.54994 48.5517 5.25928 47.2297 4.09395 46.6996C2.98561 46.1957 1.64928 45.8947 0.464954 46.3659C-0.257046 46.6538 -0.877716 47.0072 -1.53005 47.4392C-5.13371 49.8213 -4.15837 46.9549 -6.1977 46.2481C-6.4067 46.1761 -6.6157 46.1303 -6.81837 46.091C-7.59103 43.9837 -7.76837 41.7717 -7.78104 39.5073C-7.78104 39.2913 -8.73103 39.4549 -8.73103 39.7691C-8.71837 41.9222 -8.55371 44.0295 -7.87604 46.0386C-8.64871 46.0845 -9.40871 46.2873 -10.1814 46.4117C-10.2194 43.1591 -10.3967 40.0505 -9.11104 36.9746C-8.90204 36.4707 -9.85203 36.4968 -10.0167 36.8764C-11.3277 40.0112 -11.1757 43.1853 -11.1377 46.5164C-11.5367 46.536 -11.942 46.5099 -12.36 46.4182C-15.058 45.8161 -12.4994 43.2376 -12.5817 41.5295C-12.5817 41.4641 -12.7147 41.4445 -12.7527 41.4445C-13.2594 41.4379 -13.709 41.5623 -14.1967 41.7062C-15.1784 41.9942 -16.54 42.5963 -17.5027 42.1251C-17.281 40.8424 -16.6857 40.2664 -15.7104 40.3842C-15.476 40.3712 -15.248 40.3515 -15.0137 40.3254C-14.1777 40.1617 -12.1004 38.9052 -13.329 37.8123C-14.602 36.6801 -16.578 37.0531 -18.0094 37.6356C-18.6364 37.8908 -19.2634 38.4275 -19.6054 39.023C-19.922 39.5793 -20.207 40.1486 -20.4984 40.718C-21.6383 41.6212 -21.8093 41.6277 -21.0177 40.7246C-20.7453 40.2992 -20.416 39.9196 -20.036 39.5989C-19.998 39.5662 -19.9664 39.4877 -20.0233 39.4484C-22.7403 37.7207 -24.767 39.1081 -26.04 41.8437C-26.667 43.1984 -27.104 44.6316 -27.6043 46.0386C-27.617 45.6198 -28.0413 45.1748 -28.51 44.8803C-29.1433 42.1578 -29.232 39.4288 -28.7127 36.6474C-28.6303 36.2154 -29.593 36.3594 -29.669 36.7455C-30.163 39.3699 -30.1187 41.9484 -29.5993 44.5203C-30.6507 44.5596 -31.6767 44.8214 -32.6393 45.2402C-32.6393 43.3685 -32.614 41.4575 -32.0123 39.6709C-31.8413 39.1539 -32.785 39.1997 -32.9117 39.5858C-33.5767 41.5688 -33.5957 43.6434 -33.5957 45.718C-33.6273 45.7376 -33.659 45.7572 -33.697 45.7769C-34.4697 42.3803 -33.8617 38.8725 -32.4303 35.7311C-32.3037 35.4563 -33.241 35.561 -33.374 35.862C-34.8687 39.1408 -35.4577 42.8188 -34.571 46.3462C-34.6343 46.392 -34.6977 46.4313 -34.761 46.4771C-35.616 47.125 -36.2113 48.146 -36.8067 49.0295C-37.8517 50.5936 -38.808 52.4718 -41.3667 51.752C-42.247 51.5033 -43.0576 50.9077 -43.976 50.7834C-45.04 50.6459 -46.0786 50.659 -47.1173 50.9993C-50.322 52.053 -52.9756 53.447 -56.5793 52.9234C-54.768 50.8292 -53.5266 47.9169 -52.4943 45.6329C-52.374 45.3711 -53.305 45.4758 -53.438 45.7703C-54.9326 49.0818 -57.2506 55.1485 -61.5003 55.1354C-61.8296 55.1354 -62.52 55.6459 -61.8803 55.6459C-59.8916 55.6524 -58.3083 54.7297 -56.9973 53.375C-53.913 53.7873 -51.6203 53.2179 -48.745 51.9745C-44.6663 50.214 -43.653 52.2493 -40.3723 52.4457C-40.1 52.4653 -39.8087 52.4064 -39.5237 52.3213C-40.328 52.9627 -40.7523 54.8737 -42.133 54.3043C-43.007 53.9443 -43.805 53.2441 -44.7866 53.2114C-47.1553 53.1263 -48.9603 54.5203 -50.7273 55.9862C-51.1516 56.3396 -50.2016 56.3462 -49.9673 56.1498C-48.0483 54.553 -45.7936 53.1983 -43.3173 54.5595C-42.6903 54.9064 -42.171 55.1158 -41.4743 54.9915C-41.0817 54.9195 -40.6003 54.7493 -40.309 54.4483C-40.0367 54.1669 -39.9227 54.0294 -39.682 53.7153C-39.5173 53.4666 -39.3463 53.2179 -39.1753 52.9692C-36.775 52.8776 -36.5153 53.3684 -38.39 54.4417C-38.7447 54.4417 -39.397 55.0045 -38.7573 54.998C-37.573 54.9915 -36.072 54.6184 -36.2113 53.1001C-36.3127 51.9352 -37.8517 51.7978 -38.8397 52.0334C-36.7497 50.8946 -35.9073 48.5059 -34.286 46.8698C-33.9883 46.9287 -33.45 46.7193 -33.5197 46.4706C-33.5387 46.3986 -33.5577 46.3266 -33.5767 46.2481C-33.4817 46.1761 -33.3803 46.1041 -33.279 46.0386C-33.013 46.0648 -32.6837 45.9209 -32.6583 45.6918C-31.702 45.2141 -30.3467 44.6381 -29.479 45.0963C-29.403 45.4169 -29.327 45.7376 -29.2383 46.0583C-29.1877 46.2415 -28.9533 46.2808 -28.7317 46.235C-28.6493 46.6538 -28.8457 46.68 -29.175 46.9287C-29.9477 47.4981 -30.676 48.1198 -31.3347 48.8266C-33.146 50.7637 -28.9217 50.0504 -27.9527 48.6826C-26.838 47.1185 -26.363 45.0112 -25.7233 43.218C-25.3243 42.1054 -24.8683 41.0125 -24.2033 40.0374C-23.494 38.9968 -22.4047 38.9903 -21.4294 39.4746C-20.7644 39.8018 -22.658 41.6931 -22.8733 41.9026C-22.9937 42.0204 -22.8417 42.0793 -22.7467 42.0923C-21.6827 42.2232 -20.53 42.1054 -19.8904 41.0649C-18.9214 39.4942 -15.875 34.8738 -14.0827 38.4602C-13.291 40.0505 -16.6477 39.9785 -17.414 40.1879C-18.5034 40.489 -19.1747 41.4117 -18.402 42.4588C-17.6104 43.5321 -13.329 41.3397 -13.6077 42.8253C-13.8167 43.9641 -15.8117 45.8554 -13.8547 46.5557C-12.968 46.8698 -12.0434 47.1774 -11.0934 47.04C-10.9097 47.3083 -10.2637 47.1708 -10.2004 46.8436C-9.38337 46.6277 -8.54737 46.3724 -7.71137 46.5098C-7.6227 46.7389 -7.53403 46.968 -7.4327 47.1905C-7.32504 47.4261 -6.64737 47.2232 -6.50804 47.0269C-6.48271 47.0465 -6.45738 47.0596 -6.43204 47.0792C-5.94438 47.4588 -5.61504 48.2638 -4.94371 48.3881C-3.32871 48.6826 -2.20138 48.3685 -0.808048 47.485C-0.276051 47.1447 4.45495 45.7572 3.65061 48.4732C3.51128 48.9378 3.07429 49.4614 2.83995 49.8148C2.51062 50.3122 1.71261 51.3135 2.20028 51.9614C3.15661 53.2441 4.65761 53.0674 6.01927 52.5962C8.28027 51.8174 9.85727 50.6787 12.4729 51.2873C14.5313 51.765 16.2919 53.4797 18.2426 54.2716C24.8989 56.9744 29.1929 50.4103 35.5642 49.6774C38.9526 49.2912 39.1616 53.4993 42.4549 53.2506C44.1839 53.1197 45.7355 52.2101 47.5405 52.6878C48.7945 53.0216 49.8902 55.2336 50.6819 56.1564C51.6572 57.2951 52.1132 57.3867 53.5002 57.0464C56.7239 56.248 59.4599 56.1171 62.4999 57.8514C63.7665 58.5778 65.1029 59.4286 66.5785 59.5529C68.1682 59.6904 69.3652 59.0621 70.6065 58.1262C71.0309 57.8448 70.0809 57.9495 69.8972 58.087ZM-28.3897 48.002C-28.624 48.5059 -28.9407 48.964 -29.3017 49.3829C-29.8083 49.3698 -30.3213 49.3567 -30.828 49.3371C-30.6443 49.0033 -30.4163 48.7088 -30.144 48.4536C-29.498 47.7664 -28.7063 47.1905 -27.9463 46.6473C-27.8703 46.5884 -27.807 46.536 -27.7563 46.4706C-27.9527 46.9941 -28.1553 47.5046 -28.3897 48.002Z" fill="white"/>
<path d="M42.6934 56.02C42.276 56.4511 41.8484 56.8609 41.4052 57.2653C39.0969 59.3674 38.5764 57.707 37.7469 56.5096C37.2831 55.8391 36.268 55.3229 35.4642 55.392C34.4646 55.4772 33.702 55.8763 32.8673 56.4404C32.7385 56.5256 30.2497 58.2073 30.6929 56.6054C30.9608 55.6422 30.9402 55.1366 30.6156 54.1521C30.5692 54.019 30.3889 54.0297 30.2807 54.035C25.3753 54.333 20.9801 57.393 15.9975 56.2755C14.0962 55.8497 12.437 54.3916 10.4842 54.1893C8.30461 53.9658 6.15596 55.4932 4.05883 55.1792C2.47181 54.9397 1.09606 54.1574 -0.55794 54.3649C-1.60393 54.498 -1.99553 54.3064 -2.68599 53.6199C-2.94362 53.3645 -3.18579 53.0984 -3.57224 53.0824C-4.56155 53.0398 -5.36021 53.4762 -6.20525 53.9711C-7.68406 54.8386 -9.83271 55.1579 -9.63691 52.8802C-9.56992 52.1085 -9.54416 51.4327 -9.66782 50.6663C-9.67813 50.5972 -9.76572 50.5705 -9.81725 50.5546C-10.9611 50.2832 -11.8319 50.4747 -12.7646 51.1985C-13.4035 51.6934 -13.8827 52.4438 -14.4598 53.0079C-15.0833 52.8855 -15.7119 52.7631 -16.3354 52.6407C-16.2117 52.3108 -16.1344 51.9648 -16.0932 51.6136C-16.0468 51.3316 -16.1035 51.1134 -16.1653 50.8473C-16.6754 48.5696 -22.2557 51.4912 -23.1626 51.885C-23.6573 52.1032 -23.2038 52.3693 -22.8586 52.215C-21.9569 51.8212 -21.0552 51.4167 -20.138 51.0655C-19.3909 50.7781 -17.5153 50.0171 -16.9382 51.0601C-16.5878 51.6988 -17.1443 52.8163 -17.3659 53.3857C-17.3916 53.4443 -17.335 53.5081 -17.2886 53.5294C-16.1859 54.0084 -15.2688 54.0616 -14.2228 53.439C-13.723 53.1409 -13.3365 52.6194 -12.9604 52.1777C-12.7594 51.9436 -10.6726 49.5009 -10.3583 51.4273C-10.2552 52.0553 -10.3995 52.8216 -10.4562 53.4656C-10.5953 55.0727 -9.62145 55.3814 -8.256 55.3974C-6.51955 55.4133 -3.86594 51.7945 -2.98999 55.094C-2.95392 55.2218 -2.75297 55.2271 -2.65507 55.2111C-0.903172 54.8918 0.652933 54.7534 2.40483 55.2537C3.23441 55.4932 3.97124 55.7859 4.84719 55.6688C6.50119 55.4559 7.9697 54.6097 9.67522 54.5885C11.3344 54.5672 13.112 55.8391 14.6269 56.4298C16.6158 57.2014 18.9242 57.2281 20.975 56.7331C22.361 56.3979 23.7059 55.9455 25.061 55.4985C26.8284 54.9184 32.0171 53.1729 29.5129 57.3611C29.4614 57.4462 29.4872 57.5101 29.5644 57.5633C32.4448 59.41 34.9644 53.3272 37.5408 57.6165C39.1226 60.2561 42.0236 57.4729 43.3117 56.1531C43.6363 55.8231 42.8737 55.8338 42.6934 56.02Z" fill="white"/>
<path d="M29.5129 21.4453C25.2104 26.3573 24.4375 34.3665 29.5129 39.0177C29.7138 39.204 30.4352 38.8953 30.2291 38.7091C25.2362 34.1324 25.9988 26.2881 30.2291 21.4613C30.4507 21.2058 29.6778 21.259 29.5129 21.4453Z" fill="white"/>
<path d="M26.6781 39.7573C29.0844 43.2271 30.9703 46.5905 34.7884 47.9954C35.5974 48.4318 36.4785 48.7564 37.442 48.9427C37.6481 48.9852 38.3437 48.6393 37.9264 48.5595C37.5605 48.485 37.2101 48.3945 36.8649 48.2828C37.0246 48.1604 37.0916 48.006 36.8495 47.9581C36.159 47.8198 35.5304 47.6229 34.943 47.3781C33.356 46.3829 32.0936 44.9088 31.1506 43.1473C31.0218 42.9078 30.285 43.1845 30.3777 43.3601C30.5787 43.738 30.8002 44.1052 31.0321 44.4564C29.7233 42.977 28.631 41.2048 27.3943 39.4221C27.2088 39.1666 26.4669 39.454 26.6781 39.7573Z" fill="white"/>
<path d="M21.9944 45.1279C21.9017 45.0214 21.5462 45.1172 21.3607 45.2396C20.8299 44.122 20.4126 42.914 20.0622 41.6794C19.9901 41.4346 19.2223 41.6528 19.2893 41.8922C20.3662 45.6813 22.0357 49.1777 25.7507 50.7636C25.9568 50.8541 26.6627 50.5294 26.3742 50.407C24.1843 49.4757 22.7313 47.8473 21.6904 45.8995C23.1899 47.6291 24.9314 49.5236 27.1677 50.0132C27.3532 50.0558 28.0282 49.7471 27.8015 49.6939C27.549 49.6407 27.3017 49.5609 27.0595 49.4704C27.3068 49.4172 27.5851 49.2629 27.4923 49.1617C26.57 48.2092 25.694 47.2459 25.0293 46.0805C24.9057 45.8623 24.1792 46.155 24.2564 46.2933C24.8954 47.4162 25.7301 48.3635 26.6112 49.2841C24.782 48.4114 23.2929 46.6233 21.9944 45.1279Z" fill="white"/>
<path d="M13.2207 32.7542C13.1794 31.9772 13.5556 31.3173 13.7875 30.6201C13.9369 30.1678 14.1739 29.742 14.3543 29.3003C14.4573 29.0449 14.5758 28.7735 14.2821 28.4222C14.0502 28.8107 13.8184 29.1407 13.6483 29.4972C13.468 29.8644 13.2619 30.1518 12.8806 30.3274C12.7054 30.4126 12.556 30.668 12.489 30.8756C12.2983 31.4769 12.1541 32.0943 11.9892 32.7063C11.9686 32.7808 11.9119 32.8393 11.8243 32.9883C11.6285 32.5572 11.6646 32.19 11.7109 31.8335C11.8037 31.1576 11.7161 30.519 11.4224 29.9123C11.2781 29.609 11.2833 29.3216 11.443 29.0342C11.5873 28.7788 11.6852 28.5234 11.4997 28.1987C11.3451 28.2413 11.1905 28.2786 10.9432 28.3477C11.0256 27.906 11.0978 27.5229 11.1854 27.0652C10.3816 27.3366 10.5258 28.236 10.0415 28.699C9.86114 28.4968 9.75809 28.3531 9.62927 28.252C9.42317 28.0923 9.1913 28.2147 9.1913 28.4861C9.1913 28.6777 9.23767 28.8799 9.29435 29.0662C9.43347 29.4972 9.5932 29.5451 9.94358 29.2684C10.16 29.0981 10.3609 28.9118 10.5774 28.7256C10.8298 29.1726 10.7783 29.3748 10.4073 29.4919C10.2064 29.5505 9.98996 29.5877 9.7787 29.609C9.30465 29.6569 8.99549 29.8644 8.86668 30.3753C8.76362 30.7957 8.56267 31.1949 8.44416 31.61C7.91344 33.4992 7.63004 35.4257 7.59913 37.3894C7.59398 37.5916 7.66096 37.8417 7.3518 37.9908C7.00658 37.6661 6.90352 37.2191 6.88291 36.7668C6.85199 35.9791 6.81077 35.1809 6.8726 34.3933C6.96535 33.1905 7.13024 31.9931 7.28482 30.7957C7.33119 30.4285 7.4497 30.072 7.5476 29.7154C7.60428 29.4972 7.67641 29.2897 7.37756 29.1354C7.03233 29.5664 6.68711 29.9762 6.46039 30.5137C6.05848 31.4716 5.97089 32.5094 5.66173 33.4939C5.63081 33.5897 5.5999 33.6801 5.57413 33.7759C5.52776 33.7706 5.48139 33.76 5.44017 33.7546C5.47108 33.3981 5.4917 33.0362 5.53807 32.685C5.56383 32.4455 5.64112 32.2113 5.65658 31.9719C5.66688 31.7803 5.69264 31.5142 5.58959 31.4024C5.25982 31.0406 5.22375 30.5935 5.14646 30.088C4.81154 30.2316 4.54876 30.1837 4.39418 29.7633C4.25506 29.9389 4.16746 30.0454 4.08502 30.1625C3.98712 30.3008 3.92014 30.4924 3.79132 30.5776C3.2606 30.9235 3.02872 31.4397 2.89991 32.0357C2.85353 32.2592 2.79686 32.4615 2.47224 32.4721C2.20946 31.3545 3.06479 30.5084 3.15239 29.4653C2.80716 29.4547 2.72987 29.7101 2.63712 29.907C2.28674 30.6574 1.95697 31.4184 1.60659 32.1634C1.47263 32.4508 1.30774 32.7222 1.12224 33.0628C0.76671 32.6105 1.00889 32.222 0.97282 31.8601C0.936752 31.4823 0.823393 31.1151 0.730646 30.6733C0.596676 30.8064 0.473015 30.9288 0.354504 31.0459C0.0401917 31.0139 -0.263817 30.9767 -0.614197 30.9394C-0.526602 30.5669 -0.186527 30.4764 0.0453415 30.4179C0.699728 30.2476 0.534845 29.5611 0.859461 29.1939C0.869766 29.1833 0.864616 29.1407 0.854311 29.13C0.576069 28.9065 0.313284 28.6564 0.00927734 28.4808C-0.222591 28.3477 -0.464767 28.4914 -0.603889 28.699C-1.03671 29.3482 -1.47469 29.9975 -1.85599 30.6787C-2.21667 31.3173 -2.50522 31.9985 -2.82984 32.6584C-2.84529 32.6903 -2.89682 32.7009 -2.95865 32.7329C-3.21113 32.4881 -3.11838 32.1954 -3.00503 31.9559C-2.69587 31.312 -2.34549 30.6893 -2.01057 30.0613C-1.92813 29.907 -1.84052 29.7527 -1.77869 29.593C-1.35102 28.5287 -0.753317 27.5814 -0.00102997 26.7299C0.179314 26.5224 0.174154 26.5171 0.122629 26.1445C-0.274126 26.1924 -0.356567 26.5969 -0.59359 26.8151C-0.846069 27.0439 -1.05733 27.3153 -1.2995 27.5867C-1.34587 27.5708 -1.41285 27.5654 -1.46438 27.5388C-2.02087 27.2195 -2.14453 27.2461 -2.5619 27.6932C-3.4327 28.6138 -4.10254 29.6835 -4.64872 30.8277C-5.1846 31.9452 -5.71532 33.0628 -6.18937 34.207C-6.42639 34.7817 -6.51913 35.4204 -6.68917 36.0217C-6.81798 36.4741 -6.96226 36.9211 -7.11169 37.4054C-7.21989 37.3149 -7.27142 37.283 -7.27142 37.267C-7.10138 36.0377 -6.98802 34.7977 -6.41608 33.6589C-6.22028 33.2704 -6.18421 32.7914 -6.04509 32.2433C-6.36455 32.6424 -6.61703 32.9617 -6.89528 33.3076C-7.19928 33.0575 -7.04985 32.8127 -6.94165 32.5572C-6.81799 32.2592 -6.69432 31.9559 -6.60157 31.6419C-6.55005 31.4663 -6.59642 31.2853 -6.86951 31.2375C-7.40539 31.8069 -7.58058 32.6584 -8.14737 33.3129C-8.33801 32.967 -8.27103 32.7116 -8.15767 32.4827C-7.91035 31.9772 -7.62695 31.4876 -7.36932 30.982C-7.2302 30.7106 -7.10138 30.4339 -6.98287 30.1518C-6.85921 29.8591 -6.91073 29.6037 -7.18382 29.3482C-7.30234 29.4334 -7.44146 29.4972 -7.5239 29.6037C-8.16798 30.4179 -8.81206 31.2321 -9.44068 32.057C-9.68801 32.387 -9.88381 32.7275 -10.3372 32.8287C-10.7288 32.9138 -10.8267 33.3555 -10.9762 33.6801C-11.172 34.0899 -11.275 34.5476 -11.4502 34.968C-11.5842 35.2767 -11.7697 35.564 -11.9294 35.8621C-11.9758 35.8514 -12.017 35.8408 -12.0634 35.8301C-12.0891 35.7184 -12.1561 35.596 -12.1355 35.4949C-11.8933 34.521 -11.7439 33.5205 -11.2441 32.6264C-10.9813 32.1528 -10.7392 31.6685 -10.497 31.1842C-10.43 31.0459 -10.4094 30.8756 -10.3682 30.7212C-10.4145 30.6946 -10.4558 30.6733 -10.5021 30.6467C-11.0329 31.3811 -11.5636 32.1102 -12.1149 32.8712C-12.3983 32.6264 -12.2489 32.3923 -12.1149 32.1847C-11.579 31.3439 -11.0432 30.5031 -10.497 29.6729C-10.3785 29.4919 -10.2496 29.3269 -10.363 28.9917C-11.3008 30.0294 -12.0016 31.1629 -12.9033 32.2646C-12.8775 31.5834 -12.5271 31.1044 -12.4447 30.535C-13.8977 32.1102 -14.5985 34.1591 -15.629 36.0856C-15.9639 35.713 -15.9021 35.3618 -15.8248 34.9946C-15.7269 34.5316 -15.6548 34.058 -15.5672 33.5631C-16.17 33.6482 -16.2834 34.0793 -16.4225 34.654C-16.5874 34.3134 -16.6853 34.1059 -16.7781 33.909C-16.845 33.9249 -16.876 33.9196 -16.8811 33.9303C-17.0615 34.4039 -17.2418 34.8722 -17.4221 35.3458C-17.4376 35.3884 -17.4273 35.4416 -17.4479 35.4736C-17.9271 36.1281 -17.7777 36.953 -18.025 37.6715C-18.1641 38.0759 -18.2156 38.475 -17.8189 38.8103C-17.6952 38.9114 -17.6592 39.1615 -17.6385 39.3478C-17.587 39.9598 -17.5613 40.5771 -17.5252 41.1891C-17.4943 41.7213 -17.4788 41.7639 -17.1336 42.2215C-17.0357 41.6947 -16.9532 41.2423 -16.8708 40.7847C-16.8296 40.774 -16.7884 40.7687 -16.7523 40.7581C-16.5616 41.9395 -15.9433 42.9027 -15.3456 43.9564C-15.0674 43.8074 -14.8097 43.6797 -14.5573 43.5307C-14.2275 43.3391 -14.0987 43.0358 -14.109 42.6473C-14.1141 42.4131 -14.0729 42.179 -14.0523 41.9235C-13.8823 41.9501 -13.7638 41.9714 -13.6298 41.9927C-13.5525 40.8751 -13.4804 39.7735 -13.4031 38.6719C-13.3515 38.6719 -13.3 38.6666 -13.2485 38.6666C-13.2227 38.7997 -13.1764 38.9327 -13.1712 39.0658C-13.1351 39.7469 -13.1145 40.4281 -13.0681 41.1093C-13.0475 41.3914 -13.1351 41.7266 -12.8002 41.9714C-12.4756 41.4925 -12.6765 40.9763 -12.625 40.5026C-12.5735 40.0343 -12.5735 39.5607 -12.5477 39.0924C-12.4962 39.0924 -12.4447 39.0924 -12.3932 39.0924C-12.3725 39.433 -12.3468 39.7789 -12.3262 40.1195C-12.3107 40.4494 -12.3107 40.7794 -12.2849 41.1093C-12.2489 41.5989 -12.1201 41.6681 -11.6718 41.4659C-11.5069 41.3914 -11.3369 41.3381 -11.1514 41.269C-11.1462 41.3914 -11.1256 41.4605 -11.1411 41.4712C-12.1407 42.2109 -13.1351 42.9666 -14.1554 43.685C-14.9076 44.2119 -15.6754 44.7175 -16.4586 45.1858C-16.8605 45.4252 -17.3088 45.5902 -17.7416 45.7605C-17.9013 45.8244 -18.0971 45.8031 -18.2053 45.8137C-18.4063 44.9037 -18.6176 44.0895 -18.767 43.2593C-19.0143 41.9129 -19.0401 40.5558 -18.7464 39.2094C-18.7258 39.103 -18.6691 38.9912 -18.6794 38.8901C-18.7515 37.9695 -18.4114 37.118 -18.2002 36.2559C-17.9786 35.3565 -17.5973 34.4944 -17.2676 33.6269C-16.8553 32.5466 -16.2473 31.5727 -15.6393 30.6095C-15.2735 30.0294 -14.8458 29.4706 -14.3563 28.997C-13.9853 28.6351 -13.6813 28.2094 -13.3 27.8581C-12.9239 27.5069 -12.5735 27.1237 -12.1767 26.8044C-11.6615 26.3893 -11.105 26.0275 -10.5794 25.6283C-10.3785 25.474 -10.2033 25.2824 -9.9508 25.0483C-10.4661 25.027 -10.8319 25.2239 -11.1411 25.4474C-12.0067 26.0754 -12.8517 26.7459 -13.6762 27.4324C-14.2584 27.9114 -14.7531 28.5074 -15.3662 28.9278C-16.7523 29.8751 -17.8756 31.1523 -19.2101 32.1634C-20.1118 32.8499 -20.9466 33.6322 -21.8328 34.3454C-22.4357 34.8296 -22.8479 35.4629 -23.1828 36.1441C-23.9402 37.6927 -24.6049 39.2893 -25.3984 40.8166C-26.1816 42.3173 -27.0627 43.7649 -27.9232 45.223C-28.1087 45.537 -28.3973 45.7818 -28.6601 46.0426C-28.7477 46.1277 -28.8816 46.2182 -28.9898 46.2129C-29.4072 46.1916 -29.7679 46.298 -30.0977 46.596C-30.0822 46.2288 -29.8452 46.0213 -29.6339 45.8084C-28.7734 44.9463 -28.2324 43.8394 -27.5368 42.8495C-27.5059 42.8069 -27.5574 42.7058 -27.5883 42.5409C-27.815 42.8176 -28.0521 42.9985 -28.1396 43.2433C-28.2633 43.568 -28.49 43.6531 -28.7631 43.7276L-28.7477 43.7436C-28.6446 43.4136 -28.5622 43.089 -28.2633 42.8495C-28.0572 42.6845 -27.9593 42.3812 -27.7841 42.163C-27.6553 42.0034 -27.4801 41.8863 -27.3255 41.7479C-27.3049 41.8863 -27.2895 42.0193 -27.2534 42.2588C-27.0473 41.9235 -27.1864 41.8384 -27.341 41.7639C-27.3204 41.6574 -27.3049 41.5563 -27.274 41.386C-27.0988 41.4925 -26.97 41.5723 -26.7897 41.6841C-26.1662 40.4068 -25.553 39.1669 -24.9553 37.9109C-24.7801 37.5437 -24.5379 37.2617 -24.2339 37.0116C-23.9815 36.804 -23.7805 36.5273 -23.492 36.2133C-23.9145 36.1069 -24.0845 36.2718 -24.2391 36.4847C-24.3525 36.639 -24.4504 36.8466 -24.6049 36.9158C-25.2851 37.2138 -25.7643 37.7779 -26.3311 38.2196C-26.4238 38.2941 -26.5423 38.3314 -26.6969 38.4112C-26.7227 38.0599 -26.4857 37.9322 -26.3311 37.7939C-25.62 37.1446 -24.8832 36.522 -24.167 35.878C-23.0179 34.8403 -21.8586 33.8079 -20.7301 32.7488C-19.679 31.759 -18.6691 30.7159 -17.6179 29.7261C-16.4586 28.6298 -15.2683 27.5708 -14.0884 26.4905C-13.8977 26.3148 -13.6865 26.1552 -13.5319 25.9476C-12.7487 24.8673 -11.5842 24.3511 -10.4712 23.7764C-10.2806 23.6752 -9.98171 23.771 -9.73954 23.8136C-9.55919 23.8455 -9.38401 23.9999 -9.20882 23.9999C-8.5029 23.9839 -7.88974 23.6274 -7.15806 23.4198C-7.50844 22.9994 -7.92066 23.2868 -8.30711 23.0579C-8.14737 22.9834 -8.03917 22.9089 -7.92066 22.8876C-6.60158 22.6801 -5.2825 22.4619 -3.95827 22.2863C-2.97411 22.1585 -2.00541 22.2384 -1.07793 22.6481C-0.959421 22.7014 -0.846069 22.7599 -0.737864 22.8291C0.163851 23.4251 0.27721 24.2181 -0.454466 25.0216C-0.804846 25.4048 -1.21706 25.7188 -1.61381 26.0487C-1.82507 26.219 -1.98481 26.4 -1.99511 26.6767C-1.80962 26.9109 -1.63442 26.8364 -1.47985 26.7033C-1.15523 26.4159 -0.846069 26.1179 -0.536909 25.8199C-0.238056 25.5325 0.0608025 25.2558 0.498777 25.2186C0.885227 25.1813 1.10163 25.2984 1.26652 25.6549C1.33865 25.8146 1.42625 25.9742 1.45201 26.1445C1.5293 26.5916 1.50354 26.996 1.09648 27.3206C0.844 27.5229 0.673965 27.8528 0.48847 28.1402C0.385418 28.2998 0.380264 28.5074 0.576065 28.5872C0.668812 28.6245 0.859459 28.5393 0.936749 28.4489C1.519 27.789 2.0961 27.1184 2.65774 26.4372C2.94629 26.086 3.37395 25.9263 3.73464 26.0647C4.06956 26.1924 4.2293 26.5862 4.29113 27.0013C4.38903 27.6346 4.12109 28.0391 3.67796 28.3956C3.54914 28.5021 3.47186 28.6777 3.32243 28.8799C3.85315 29.0023 4.22414 28.8906 4.57967 28.683C5.16708 28.3371 5.68234 27.8635 5.94513 27.2461C6.15638 26.7459 6.16154 26.1445 6.19761 25.5804C6.22852 25.1387 6.21821 24.7023 6.43462 24.3032C6.65619 23.8988 7.04264 23.6593 7.41878 23.7072C8.0371 23.7817 8.36687 24.2766 8.25352 24.9418C8.21745 25.16 7.99588 25.3782 8.21745 25.6124C8.66057 25.5112 8.82546 25.3463 8.87183 24.8992C8.89759 24.6598 8.85637 24.415 8.87698 24.1755C8.90274 23.8509 8.91821 23.5103 9.0058 23.2016C9.17068 22.6215 9.56229 22.3501 10.1497 22.3555C11.1751 22.3714 11.948 22.9408 12.6539 23.6274C12.9373 23.8988 12.9682 24.2872 12.9527 24.6704C12.9424 24.8833 12.9527 25.0962 12.9527 25.3889C13.3907 25.1015 13.334 24.729 13.3134 24.3777C13.2825 23.8509 13.2258 23.3293 13.1949 22.8025C13.1898 22.7014 13.2207 22.6003 13.2516 22.4033C13.6896 22.8025 14.076 22.7227 14.4934 22.4619C14.6531 22.3608 14.9159 22.3821 15.1168 22.4246C15.9979 22.6109 16.6523 23.0739 17.0542 23.9573C17.3737 24.6598 17.1264 25.1813 16.7657 25.7241C16.6523 25.8944 16.5184 26.0434 16.3844 26.2137C16.642 26.3947 16.7966 26.3148 16.8894 26.1552C17.1418 25.7294 17.3943 25.2984 17.6056 24.846C17.9147 24.1702 18.2445 23.5635 19.0741 23.4571C19.3008 23.4304 19.5017 23.2069 19.7851 23.0313C20.3932 23.4411 20.3983 24.117 20.5065 24.7822C20.6302 25.5006 20.1098 25.9902 19.9397 26.5969C20.4138 26.7086 20.6405 26.6075 20.8827 26.2297C21.4031 25.4261 21.6916 24.5533 21.7122 23.5741C21.7174 23.2389 21.8307 22.8823 21.9853 22.5843C22.346 21.8925 22.7943 21.8552 23.459 22.2331C24.0773 22.5843 24.1804 23.0952 24.1288 23.7231C24.1134 23.9254 24.1082 24.1276 24.0979 24.3777C24.6647 24.117 24.8863 23.654 24.7059 23.1963C24.3968 22.398 24.0258 21.6423 23.3302 21.0995C22.9592 20.8121 22.6346 20.4503 22.346 20.0724C21.7792 19.3433 22.0317 18.4493 22.8716 18.0927C23.0262 18.0289 23.1962 17.9863 23.3559 17.9331C23.7733 17.7947 23.83 17.683 23.6548 17.2679C23.5826 17.0922 23.4847 16.9273 23.3765 16.725C23.8248 16.8953 24.0773 17.1295 24.3813 17.8745C24.5771 18.3429 24.6389 18.875 24.7626 19.3806C25.0563 19.4498 25.1542 19.2475 25.1697 19.0187C25.1851 18.8058 25.1645 18.577 25.0975 18.3801C24.8708 17.7149 24.9687 17.2838 25.5716 16.9432C26.5145 16.4057 27.509 16.129 28.5395 16.7091C28.6889 16.7942 28.8023 16.9752 28.9053 17.1295C29.0908 17.4115 29.2918 17.502 29.5237 17.2732C30.4924 16.294 31.6311 16.5281 32.7698 16.725C33.1666 16.7942 33.5633 16.9486 33.9601 16.9432C34.8206 16.9273 35.2895 17.4488 35.6244 18.1459C35.7944 18.4972 35.8717 18.891 36.0005 19.2582C36.0469 19.3912 36.1242 19.519 36.1809 19.6307C36.4952 19.6094 36.5364 19.4072 36.5158 19.205C36.49 18.9655 36.4333 18.7313 36.3767 18.4972C36.2375 17.9224 36.4282 17.5446 36.9589 17.4062C37.5875 17.2412 38.7314 17.6563 39.0303 18.3748C39.1179 18.5823 39.0818 18.8431 39.123 19.0773C39.1436 19.189 39.2209 19.2954 39.2776 19.4019C39.391 19.3274 39.5868 19.2635 39.6074 19.173C39.6434 18.9495 39.6383 18.6941 39.5765 18.4706C39.4786 18.0981 39.3291 17.7149 39.7156 17.4541C40.0505 17.2306 40.4163 17.353 40.741 17.5446C41.4417 17.965 41.9879 18.5451 42.3177 19.3061C42.5959 19.9394 42.6217 20.578 42.2765 21.1368C41.9415 21.1581 41.6221 21.0942 41.3954 21.2166C40.473 21.7062 39.5352 22.1905 38.6851 22.7972C37.5206 23.6273 36.5416 24.6864 35.9284 26.0275C35.5729 26.7991 35.3049 27.6133 34.9958 28.4063C34.7845 28.9491 34.5681 29.4972 34.3362 30.0347C34.295 30.1359 34.161 30.1944 34.0631 30.2795C33.9652 30.0294 33.9137 28.6351 34.0374 28.0657C34.1868 27.3632 34.4084 26.682 34.6248 25.8891C34.4341 25.9583 34.2898 25.9689 34.2383 26.0434C34.0322 26.3468 33.8003 26.6501 33.687 26.996C33.5633 27.3739 33.3469 27.6293 32.9553 27.9539C33.1099 27.3366 33.1872 26.8204 33.3778 26.3521C33.6252 25.7507 33.9601 25.1866 34.2589 24.6066C34.362 24.4043 34.4187 24.2074 34.2177 23.9254C34.0837 24.0531 33.9498 24.1436 33.8673 24.2713C33.3984 25.0323 33.0532 25.8306 32.8007 26.714C32.4813 27.8369 32.4504 28.9651 32.3885 30.0986C32.3009 31.6792 32.1567 33.2597 32.3164 34.8403C32.3267 34.9201 32.2906 35.0053 32.2649 35.1702C31.9145 34.7179 31.7238 34.2815 31.6311 33.7866C31.5538 33.3608 31.4765 32.9457 31.1467 32.5945C30.9818 32.4189 30.9561 32.0676 30.9355 31.7909C30.8633 30.8277 30.8221 29.8591 30.7654 28.8959C30.75 28.5872 30.6985 28.2945 30.4563 28.0604C30.2038 27.8209 30.2708 27.4856 30.3172 27.1876C30.5233 25.7933 30.8479 24.4363 31.5177 23.191C31.5796 23.0792 31.6156 22.9462 31.6414 22.8184C31.6775 22.5949 31.8011 22.4938 32.0021 22.4087C32.4452 22.2224 32.4916 22.116 32.3525 21.6743C32.2958 21.4933 32.203 21.3017 32.0742 21.1687C31.9712 21.0623 31.7754 20.9452 31.662 20.9771C31.5332 21.0144 31.3683 21.2219 31.3735 21.3496C31.3838 21.6636 31.4868 21.9723 31.5538 22.2863C31.5332 22.3182 31.5177 22.3821 31.492 22.3927C30.8839 22.5843 30.5799 23.0313 30.3996 23.6433C30.0441 24.8354 29.6061 26.0062 29.2609 27.2036C28.9465 28.2945 28.6992 29.4014 28.421 30.5031C28.4004 30.5829 28.3643 30.6627 28.2973 30.8224C28.05 30.3115 28.1324 29.8644 28.1891 29.4227C28.2716 28.7682 28.3798 28.1242 28.4828 27.475C28.5498 27.0492 28.6219 26.6288 28.7095 26.0807C28.287 26.4213 28.1067 26.7619 27.9779 27.161C27.612 28.2892 27.6584 29.4653 27.6017 30.6201C27.4987 32.685 27.5863 34.7498 28.0139 36.788C28.0861 37.1286 28.0912 37.4852 28.1067 37.8364C28.1118 37.9482 28.0448 38.0653 27.9882 38.2568C27.8696 38.1238 27.7769 38.0599 27.7408 37.9695C26.9267 35.8514 26.3805 33.6748 26.4372 31.3705C26.4527 30.7798 26.4321 30.1837 26.4063 29.593C26.3857 29.1354 26.3496 28.6777 26.0868 28.1828C25.9683 28.3531 25.855 28.4542 25.824 28.5766C25.7365 28.9385 25.6386 29.3057 25.6334 29.6729C25.6128 31.0565 25.6282 32.4402 25.6282 33.8238C25.6282 34.1804 25.7261 34.5529 25.5613 34.952C25.216 34.7072 25.1284 34.3933 25.0821 34.0686C25.0099 33.5684 24.9275 33.0628 24.9275 32.5626C24.9223 31.0884 24.9378 29.6143 24.9739 28.1455C24.9842 27.6932 25.0872 27.2461 25.1439 26.7938C25.0975 26.7831 25.0512 26.7725 25.0048 26.7619C24.8296 27.5282 24.572 28.2839 24.4895 29.0609C24.2422 31.3599 24.3452 33.6695 24.5462 35.9685C24.572 36.2931 24.6492 36.6124 24.7111 36.9796C24.2679 36.49 24.0876 35.9685 24.0618 35.3458C24.0412 34.803 23.9124 34.2602 23.866 33.7174C23.7991 32.9723 23.7475 32.2326 23.7115 31.4876C23.6805 30.8703 23.6857 30.833 23.3405 30.37C23.4951 30.3008 23.6393 30.2316 23.7836 30.1625C24.0515 30.0347 24.17 29.8272 24.0876 29.5238C24.0103 29.2524 23.6702 28.9065 23.4693 28.9172C23.392 28.9225 23.2786 28.9544 23.2477 29.013C22.9592 29.5558 22.48 29.9922 22.5006 30.7106C22.5212 31.61 22.4439 32.5094 22.4027 33.4087C22.3975 33.5684 22.3512 33.728 22.2223 33.8877C22.1966 33.7493 22.1451 33.611 22.1451 33.4779C22.1399 32.0943 22.1038 30.7106 22.1554 29.3269C22.1863 28.5659 22.4078 27.8156 22.48 27.0546C22.5367 26.4213 22.5212 25.788 22.7685 25.1866C22.8561 24.9791 22.8201 24.7236 22.784 24.4788C22.2378 25.5858 22.0214 26.7885 21.7535 27.9699C21.4855 29.1726 21.3052 30.386 21.3309 31.6259C21.3567 32.8766 21.4031 34.1218 21.4443 35.4576C21.233 34.8775 20.9909 34.4092 20.9342 33.8398C20.8105 32.6158 20.6611 31.3971 20.8363 30.1625C20.9033 29.6888 20.8517 29.1939 20.8414 28.7149C20.8363 28.5766 20.7848 28.4435 20.6456 28.3052C20.4138 29.4281 20.1819 30.5509 19.9346 31.743C19.7748 31.6206 19.6563 31.5248 19.476 31.3918C19.1153 32.2858 19.4451 33.2597 19.0792 34.1218C18.6516 32.0943 18.7907 30.072 19.2029 28.055C19.1462 28.0391 19.0947 28.0231 19.038 28.0125C18.8422 28.385 18.6516 28.7575 18.4558 29.13C18.3888 29.2631 18.3476 29.4387 18.2445 29.5185C17.6416 29.9656 17.4613 30.6201 17.3325 31.3226C17.08 32.6903 17.0336 34.0739 16.9666 35.4523C16.9357 36.1122 16.9409 36.7721 17.1985 37.4C17.2655 37.5597 17.2913 37.7406 17.2964 37.9163C17.3325 38.6187 17.6365 39.2201 17.9611 39.8108C18.0745 40.0183 18.229 40.2206 18.0126 40.4973C17.585 40.3749 17.4355 39.9705 17.25 39.6299C16.1577 37.6129 15.8228 35.431 15.9773 33.1426C16.0752 31.7537 16.3638 30.4073 16.7708 29.0821C16.9151 28.6138 17.0233 28.1296 17.0645 27.5921C16.7193 28.0817 16.3432 28.5553 16.034 29.0662C15.359 30.1731 14.8953 31.3758 14.6531 32.6584C14.5346 33.281 14.4779 33.9196 14.4676 34.5529C14.4522 35.5587 14.4418 36.5592 14.751 37.5544C14.9365 38.1504 14.9932 38.7943 15.2457 39.3797C15.3126 39.5394 15.292 39.7416 15.3281 40.0875C15.1323 39.9172 15.0241 39.8747 14.9983 39.7948C14.7201 38.9859 14.3594 38.193 14.2151 37.3628C14.0399 36.3517 14.0348 35.3139 14.0039 34.2815C13.9884 33.7813 14.1018 33.2757 14.1327 32.7701C14.1533 32.4508 14.1378 32.1315 14.1378 31.8282C13.8441 31.7643 13.7772 31.9293 13.7153 32.0943C13.6226 32.3391 13.571 32.6105 13.2774 32.7009L13.2207 32.7542ZM23.8351 25.4953C23.4178 25.639 23.3559 25.9583 23.2838 26.2829C23.1962 26.6607 23.0725 27.0333 22.9746 27.4111C22.8613 27.8422 22.7479 28.2732 23.0519 28.7043C23.2426 28.2147 23.3817 27.7091 23.495 27.2036C23.6136 26.6607 23.7115 26.1126 23.8351 25.4953ZM-5.62257 29.7154C-6.20482 30.354 -6.35425 30.7319 -6.20997 31.2853C-5.76169 31.1523 -5.39585 30.9128 -5.25673 30.4498C-5.16398 30.1465 -5.35979 29.8911 -5.62257 29.7154ZM27.9675 21.1793C27.9572 20.8441 27.679 20.578 27.3338 20.5886C27.1174 20.594 26.9576 20.6951 26.9731 20.9399C26.9885 21.2006 27.375 21.5891 27.6017 21.5998C27.8284 21.6157 27.9727 21.4454 27.9675 21.1793ZM-5.43193 29.476C-4.74147 28.8533 -4.07162 27.8688 -4.0407 27.4005C-4.52505 27.938 -4.98364 28.5021 -5.42677 29.0768C-5.47314 29.1354 -5.43193 29.2631 -5.43193 29.476ZM31.6053 27.0971C31.6465 26.7086 31.461 26.4213 31.224 26.3893C31.0076 26.3627 30.9149 26.4905 30.8891 26.6874C30.853 26.9694 31.0282 27.3153 31.2343 27.2994C31.3838 27.2887 31.5229 27.145 31.6053 27.0971ZM26.9628 18.593C27.3235 18.1193 27.6842 17.651 28.1067 17.1029C27.9212 17.0922 27.7717 17.055 27.7563 17.0869C27.509 17.5978 26.9834 17.949 26.9628 18.593ZM-16.3195 33.0096C-16.3658 33.0043 -16.4122 32.9936 -16.4534 32.9883C-16.6235 33.3076 -16.6235 33.3076 -16.3555 33.6535C-16.3401 33.3768 -16.3298 33.1959 -16.3195 33.0096ZM-15.8763 32.1528C-16.2216 32.3284 -16.2576 32.4721 -16.0361 32.7063C-15.9949 32.5626 -15.9536 32.4189 -15.8763 32.1528ZM12.8188 29.0821C12.4941 29.3216 12.4941 29.3216 12.6899 29.7687C12.7415 29.4866 12.7724 29.3269 12.8188 29.0821ZM7.98558 28.2998C7.9392 28.2998 7.89283 28.2998 7.84645 28.2998C7.74855 28.5659 7.74855 28.5659 7.93405 28.8959C7.95981 28.6245 7.97012 28.4648 7.98558 28.2998ZM23.6393 28.2839C23.696 28.2839 23.7527 28.2892 23.8094 28.2892C23.8094 28.1083 23.8094 27.9273 23.8094 27.7464C23.7681 27.7464 23.7321 27.7411 23.6908 27.7411C23.6702 27.922 23.6548 28.1029 23.6393 28.2839ZM-15.763 31.8122C-15.7063 31.8175 -15.6548 31.8228 -15.5981 31.8282C-15.5981 31.7058 -15.5981 31.5834 -15.5981 31.461C-15.6342 31.4556 -15.6702 31.4556 -15.7063 31.4503C-15.7269 31.5727 -15.7424 31.6898 -15.763 31.8122ZM-12.1767 30.1359C-12.1407 30.1465 -12.1046 30.1571 -12.0685 30.1678C-12.0428 30.0826 -12.017 29.9975 -11.9964 29.9123C-12.0325 29.9017 -12.0995 29.8804 -12.1046 29.8804C-12.1355 29.9656 -12.1561 30.0507 -12.1767 30.1359Z" fill="white"/>
<path d="M29.198 31.802C29.5071 32.2969 29.4865 32.8717 29.5741 33.4145C29.7596 34.5906 30.1718 35.6816 30.6459 36.7566C31.0787 37.7411 31.6042 38.6671 32.3514 39.4281C33.0573 40.1412 33.7993 40.817 34.5361 41.5248C34.2424 41.9346 33.959 41.0938 33.6189 41.4929C34.2115 42.0889 34.9277 42.4934 35.6182 42.9298C35.9479 43.1373 35.9582 43.1427 36.154 43.7227C35.9531 43.6642 35.7985 43.6482 35.6697 43.579C35.2626 43.3555 34.8607 43.1107 34.4588 42.8766C34.3867 42.834 34.2991 42.7755 34.2218 42.7808C33.4953 42.8712 33.0882 42.3125 32.5523 41.9772C32.609 41.7909 32.6554 41.6526 32.6811 41.5674C32.3308 41.2002 31.9907 40.8809 31.6918 40.5244C31.3981 40.1784 31.0271 39.8804 30.9499 39.3749C31.5579 39.8645 32.0577 40.5031 32.81 40.7904C31.5991 39.609 30.7077 38.2307 30.043 36.682C29.3731 35.1334 29.0485 33.5103 29.198 31.802ZM33.454 41.1523C33.3974 41.0885 33.3664 41.0246 33.3252 41.014C33.2789 41.0033 33.2222 41.0352 33.1706 41.0512C33.2067 41.1044 33.2325 41.1789 33.284 41.2109C33.3046 41.2268 33.3768 41.1789 33.454 41.1523Z" fill="white"/>
</svg>
